{"glyphs":{"0":{"ha":982,"x_min":0,"x_max":0,"o":"m 475 24 b 932 496 754 24 932 254 b 501 950 932 765 749 950 b 50 485 267 950 50 765 b 475 24 50 176 265 24 z m 494 132 b 172 478 281 132 172 315 b 489 842 172 689 307 842 b 810 501 669 842 810 683 b 494 132 810 250 635 132 z "},"1":{"ha":982,"x_min":0,"x_max":0,"o":"m 589 0 b 586 368 585 43 586 168 l 586 582 b 597 1000 586 769 597 954 l 593 1000 b 217 642 553 954 243 665 l 279 567 b 467 758 319 608 426 711 l 467 399 b 458 0 467 211 458 36 z "},"2":{"ha":982,"x_min":0,"x_max":0,"o":"m 779 108 l 365 93 l 364 99 b 724 606 486 197 724 381 b 228 996 724 790 543 958 l 203 882 b 589 593 367 874 589 788 b 97 14 589 369 283 140 l 100 0 l 257 0 b 779 -11 458 -1 744 -7 z "},"3":{"ha":982,"x_min":0,"x_max":0,"o":"m 261 896 b 568 718 404 894 568 833 b 293 522 568 610 406 533 l 293 481 b 586 304 397 476 586 429 b 196 78 586 143 354 67 l 204 -35 b 728 311 458 -28 728 122 b 525 514 728 422 633 486 l 525 517 b 697 740 596 547 697 642 b 278 1003 697 906 439 994 z "},"4":{"ha":982,"x_min":0,"x_max":0,"o":"m 693 1015 l 685 1015 l 81 238 l 83 226 l 578 226 l 578 178 b 571 0 578 100 572 39 l 694 0 b 692 163 693 40 692 107 l 692 228 l 835 224 l 844 328 l 693 324 z m 581 325 l 271 325 b 578 738 321 394 532 668 l 581 738 z "},"5":{"ha":982,"x_min":0,"x_max":0,"o":"m 375 868 l 735 865 l 736 986 b 290 969 664 981 332 971 l 233 621 b 589 400 453 600 589 521 b 201 78 589 219 353 106 l 232 -31 b 721 422 453 17 721 214 b 349 718 721 536 654 667 z "},"6":{"ha":982,"x_min":0,"x_max":0,"o":"m 594 1008 b 185 300 406 875 185 575 b 269 54 185 189 214 113 b 465 -22 322 0 386 -22 b 799 317 629 -22 799 117 b 390 608 799 492 622 617 b 667 913 458 750 596 871 z m 310 308 b 347 513 310 396 322 454 b 668 289 510 524 668 443 b 475 79 668 178 590 79 b 310 308 379 79 310 167 z "},"7":{"ha":982,"x_min":0,"x_max":0,"o":"m 176 868 l 656 865 b 300 38 642 831 329 81 l 422 -22 b 808 968 451 54 786 932 l 806 972 b 171 985 674 972 274 981 z "},"8":{"ha":982,"x_min":0,"x_max":0,"o":"m 492 904 b 663 729 583 904 663 844 b 485 547 663 617 585 547 b 317 725 382 547 317 636 b 492 904 317 810 367 904 z m 504 994 b 189 724 300 996 189 849 b 340 500 189 626 249 538 b 178 243 247 449 178 347 b 481 -22 178 100 272 -22 b 804 263 710 -22 804 146 b 632 513 804 378 742 467 b 790 747 743 563 790 667 b 504 994 790 896 672 994 z m 488 68 b 307 247 376 68 307 156 b 486 454 307 357 369 454 b 672 254 590 454 672 378 b 488 68 672 142 596 68 z "},"9":{"ha":982,"x_min":0,"x_max":0,"o":"m 394 -36 b 797 679 583 97 797 388 b 508 994 797 861 685 994 b 185 661 342 994 185 847 b 596 375 185 488 361 364 b 322 60 524 222 393 103 z m 667 660 b 635 468 667 582 651 510 b 314 688 468 453 314 526 b 500 894 314 796 390 894 b 667 660 599 894 667 815 z "}," ":{"ha":417,"x_min":0,"x_max":0,"o":""},"!":{"ha":417,"x_min":0,"x_max":0,"o":"m 121 0 l 260 0 l 260 136 l 121 136 z m 231 311 b 296 972 243 500 282 856 l 147 979 b 153 300 156 828 147 496 z "},"\"":{"ha":424,"x_min":0,"x_max":0,"o":"m 253 994 l 281 717 l 342 717 l 371 994 z m 53 994 l 81 717 l 142 717 l 171 994 z "},"#":{"ha":704,"x_min":0,"x_max":0,"o":"m 654 551 l 654 642 l 540 642 l 576 903 l 486 903 l 450 642 l 308 642 l 344 903 l 254 903 l 219 642 l 86 642 l 86 551 l 206 551 l 181 358 l 51 358 l 51 268 l 165 268 l 131 0 l 221 0 l 257 268 l 397 268 l 361 0 l 453 0 l 488 268 l 621 268 l 621 358 l 503 358 l 528 551 z m 436 551 l 411 358 l 271 358 l 296 551 z "},"$":{"ha":982,"x_min":0,"x_max":0,"o":"m 421 1093 l 425 892 b 256 678 358 851 256 776 b 456 469 256 585 350 526 b 590 319 558 414 590 382 b 269 139 590 250 467 156 l 289 32 b 425 67 314 35 392 54 l 421 -118 l 522 -118 l 518 99 b 724 351 588 129 724 238 b 546 551 724 457 639 504 b 389 703 440 603 389 638 b 675 863 389 790 565 864 l 661 974 b 518 935 639 972 543 947 l 522 1093 z "},"%":{"ha":1310,"x_min":0,"x_max":0,"o":"m 321 446 b 601 711 531 446 601 624 b 344 972 601 886 497 972 b 56 699 157 972 56 819 b 321 446 56 565 143 446 z m 324 524 b 160 703 224 524 160 611 b 336 894 160 782 211 894 b 496 708 422 894 496 836 b 324 524 496 593 418 524 z m 974 0 b 1254 265 1183 0 1254 178 b 997 526 1254 440 1150 526 b 708 253 810 526 708 374 b 974 0 708 119 796 0 z m 976 72 b 813 251 876 72 813 160 b 989 443 813 331 864 443 b 1149 256 1075 443 1149 385 b 976 72 1149 140 1071 72 z m 403 -29 b 704 483 444 44 571 267 b 1006 953 831 689 964 890 l 918 1001 b 636 542 878 928 758 738 b 318 29 500 324 367 99 z "},"&":{"ha":854,"x_min":0,"x_max":0,"o":"m 314 82 b 150 224 210 82 150 149 b 279 440 150 314 210 388 b 572 193 333 386 458 281 b 314 82 494 119 415 82 z m 883 92 b 726 213 854 117 796 158 b 856 368 779 265 819 321 l 767 433 b 651 272 744 401 710 344 b 421 463 556 346 469 418 b 254 693 335 542 254 611 b 536 892 254 810 450 878 l 506 997 b 128 669 317 954 128 818 b 211 507 128 610 160 561 b 25 204 142 447 25 336 b 289 -22 25 69 149 -22 b 644 129 439 -22 554 42 b 808 0 710 75 769 31 z "},"’":{"ha":222,"x_min":0,"x_max":0,"o":"m 14 729 l 68 704 l 203 944 l 92 994 z "},"(":{"ha":417,"x_min":0,"x_max":0,"o":"m 344 1078 b 53 458 239 1006 53 781 b 344 -111 53 160 239 -43 l 411 -22 b 165 472 315 26 165 219 b 411 994 165 781 343 960 z "},")":{"ha":417,"x_min":0,"x_max":0,"o":"m 72 -111 b 364 508 178 -39 364 186 b 72 1078 364 807 178 1010 l 6 989 b 251 494 101 940 251 747 b 6 -28 251 186 74 7 z "},"*":{"ha":486,"x_min":0,"x_max":0,"o":"m 436 846 b 249 797 403 838 288 804 b 304 606 251 785 296 635 l 390 649 b 303 768 378 665 308 761 b 440 761 308 771 421 763 z m 96 944 b 242 804 114 931 214 833 b 382 950 250 814 365 932 l 303 1003 b 243 865 293 976 249 874 b 172 1003 239 869 183 981 z m 179 606 b 235 797 186 639 225 761 b 51 847 222 801 74 840 l 44 757 b 182 769 64 760 174 768 b 96 643 178 763 110 664 z "},"+":{"ha":828,"x_min":0,"x_max":0,"o":"m 365 739 l 365 417 l 56 417 l 56 325 l 365 325 l 365 0 l 463 0 l 463 325 l 772 325 l 772 417 l 463 417 l 463 739 z "},",":{"ha":375,"x_min":0,"x_max":0,"o":"m 75 -140 l 131 -167 l 301 114 l 165 175 z "},"-":{"ha":486,"x_min":0,"x_max":0,"o":"m 40 424 b 453 438 93 428 431 442 l 449 525 b 33 528 424 524 104 526 z "},".":{"ha":375,"x_min":0,"x_max":0,"o":"m 110 0 l 265 0 l 265 154 l 110 154 z "},"/":{"ha":471,"x_min":0,"x_max":0,"o":"m 575 915 l 482 967 b 204 524 442 896 324 713 b -108 32 69 313 -62 96 l -18 -28 b 279 467 24 43 147 257 b 575 915 404 665 535 860 z "},":":{"ha":375,"x_min":0,"x_max":0,"o":"m 113 56 l 263 56 l 263 204 l 113 204 z m 113 539 l 263 539 l 263 688 l 113 688 z "},";":{"ha":375,"x_min":0,"x_max":0,"o":"m 78 -83 l 129 -104 l 269 160 l 142 217 z m 113 539 l 263 539 l 263 688 l 113 688 z "},"<":{"ha":828,"x_min":0,"x_max":0,"o":"m 90 328 l 739 0 l 739 106 l 203 368 l 203 371 l 739 633 l 739 739 l 90 411 z "},"=":{"ha":828,"x_min":0,"x_max":0,"o":"m 772 465 l 772 557 l 56 557 l 56 465 z m 772 190 l 772 282 l 56 282 l 56 190 z "},">":{"ha":828,"x_min":0,"x_max":0,"o":"m 739 414 l 89 739 l 89 633 l 631 371 l 631 368 l 89 106 l 89 0 l 739 325 z "},"?":{"ha":597,"x_min":0,"x_max":0,"o":"m 46 893 b 389 654 194 876 389 814 b 147 400 389 519 238 431 l 188 311 b 524 685 289 356 524 482 b 78 1000 524 847 303 958 z m 149 0 l 288 0 l 288 136 l 149 136 z "},"@":{"ha":1099,"x_min":0,"x_max":0,"o":"m 471 443 b 551 601 482 464 542 585 b 632 446 557 589 622 467 z m 821 43 l 785 121 b 546 51 718 81 640 51 b 178 433 338 51 178 213 b 561 851 178 661 333 851 b 926 467 764 851 926 681 b 853 296 926 364 907 296 b 776 361 824 296 801 319 b 564 736 742 418 619 642 l 543 736 b 294 285 525 708 333 350 l 378 238 b 442 371 388 258 431 350 l 665 376 b 714 292 674 361 700 311 b 846 217 744 246 786 217 b 971 285 890 217 942 242 b 1021 475 1003 332 1021 397 b 563 928 1021 735 828 928 b 78 426 289 928 78 699 b 544 -25 78 161 276 -25 b 821 43 653 -25 740 -1 z "},"A":{"ha":1111,"x_min":0,"x_max":0,"o":"m 142 -26 b 296 315 165 21 279 289 l 778 335 b 968 -25 793 313 940 28 l 1086 53 b 540 1021 992 197 663 824 l 538 1021 b 28 46 504 968 104 179 z m 343 407 b 536 800 356 429 515 769 b 736 424 550 778 721 454 z "},"B":{"ha":889,"x_min":0,"x_max":0,"o":"m 208 514 b 201 -8 208 488 208 68 l 213 -8 b 756 318 546 -7 756 153 b 538 535 756 443 633 519 l 538 538 b 713 754 685 606 713 701 b 393 964 713 832 674 940 b 201 972 339 971 275 972 b 208 668 206 943 208 710 z m 328 467 b 617 310 503 475 617 407 b 328 92 617 179 479 107 z m 328 883 b 582 736 424 881 582 861 b 328 546 582 643 481 550 z "},"C":{"ha":917,"x_min":0,"x_max":0,"o":"m 850 103 b 689 83 803 92 744 83 b 224 413 357 83 224 243 b 804 878 224 651 486 842 l 783 994 b 83 389 293 907 83 617 b 675 -22 83 261 201 -22 b 864 -8 758 -22 822 -17 z "},"D":{"ha":1147,"x_min":0,"x_max":0,"o":"m 208 439 b 200 -7 208 401 206 57 b 1064 603 517 -7 1064 172 b 556 958 1064 700 1008 901 b 201 972 435 974 281 972 b 208 611 207 933 208 640 z m 333 868 b 928 567 693 872 928 778 b 333 115 928 372 713 149 z "},"E":{"ha":797,"x_min":0,"x_max":0,"o":"m 667 106 b 333 101 553 97 367 101 l 333 440 b 608 435 361 440 578 435 l 604 544 b 333 529 536 536 358 529 l 333 882 b 650 889 356 882 606 889 l 644 999 b 204 972 600 993 238 972 b 208 589 206 946 208 611 l 208 403 b 204 0 208 371 208 74 b 672 -14 232 0 650 -14 z "},"F":{"ha":744,"x_min":0,"x_max":0,"o":"m 338 0 b 333 304 332 19 333 282 l 333 436 l 625 431 l 621 538 b 333 525 556 533 358 525 l 333 879 l 647 886 l 642 993 b 203 972 586 988 238 972 b 208 589 206 946 208 611 l 208 404 b 197 0 208 371 208 74 z "},"G":{"ha":1028,"x_min":0,"x_max":0,"o":"m 903 318 b 904 425 903 360 903 392 l 774 425 b 778 329 775 417 778 369 l 778 97 b 629 76 744 86 688 76 b 221 382 354 76 221 238 b 799 878 221 603 482 817 l 771 999 b 83 383 246 857 83 540 b 600 -22 83 154 285 -22 b 907 22 715 -22 844 -1 b 903 217 907 40 903 164 z "},"H":{"ha":1286,"x_min":0,"x_max":0,"o":"m 339 0 b 333 350 338 32 333 288 l 333 439 l 953 465 l 953 321 b 944 0 953 294 949 47 l 1083 0 b 1078 392 1081 26 1078 374 l 1078 531 b 1089 972 1078 564 1085 939 l 947 972 b 953 668 950 942 953 692 l 953 557 l 333 531 l 333 639 b 340 972 333 664 338 947 l 201 972 b 208 572 204 939 208 596 l 208 422 b 204 0 208 386 207 61 z "},"I":{"ha":542,"x_min":0,"x_max":0,"o":"m 333 569 b 340 972 333 736 338 947 l 201 972 b 208 572 204 939 208 596 l 208 422 b 204 0 208 386 207 61 l 339 0 b 333 419 338 32 333 281 z "},"J":{"ha":564,"x_min":0,"x_max":0,"o":"m 385 639 b 392 972 385 806 389 947 l 253 972 b 260 642 256 939 260 665 l 260 425 b 46 11 260 181 176 71 l 110 -89 b 385 422 251 -25 385 119 z "},"K":{"ha":1003,"x_min":0,"x_max":0,"o":"m 340 -14 b 333 431 338 13 333 324 l 333 581 b 340 986 333 701 339 964 l 201 986 b 208 567 201 954 208 688 l 208 419 b 201 -14 208 261 204 26 z m 926 92 b 499 521 874 143 542 468 b 876 869 572 594 824 819 l 796 961 b 343 511 764 925 367 533 b 835 -6 403 444 821 14 z "},"L":{"ha":740,"x_min":0,"x_max":0,"o":"m 203 972 b 208 589 206 946 208 611 l 208 404 b 197 0 208 371 208 74 b 664 -14 232 0 644 -14 l 664 106 b 333 100 531 100 367 100 l 333 493 b 344 972 333 668 339 942 z "},"M":{"ha":1518,"x_min":0,"x_max":0,"o":"m 172 -36 b 408 713 189 18 381 626 b 717 99 464 586 636 249 l 719 99 b 1072 701 776 189 1022 624 b 1342 -36 1094 650 1307 68 l 1461 15 b 1104 951 1401 161 1153 838 l 1101 951 b 738 324 1075 908 786 401 b 392 994 696 393 435 907 l 389 994 b 58 7 382 961 85 65 z "},"N":{"ha":1271,"x_min":0,"x_max":0,"o":"m 293 -10 b 303 764 292 36 303 715 l 306 764 b 1071 -29 331 729 1033 8 l 1074 -29 b 1111 972 1079 321 1106 889 l 982 979 b 972 240 981 933 972 279 b 217 1028 928 285 256 983 l 214 1028 b 163 0 207 885 169 104 z "},"O":{"ha":1181,"x_min":0,"x_max":0,"o":"m 558 -22 b 1097 521 953 -22 1097 304 b 636 994 1097 821 899 994 b 83 436 301 994 83 744 b 558 -22 83 192 256 -22 z m 571 81 b 217 457 353 81 217 250 b 617 892 217 694 368 892 b 963 514 799 892 963 763 b 571 81 963 240 779 81 z "},"P":{"ha":853,"x_min":0,"x_max":0,"o":"m 333 0 b 331 208 331 29 331 181 l 331 290 b 769 688 594 343 769 497 b 467 954 769 835 653 924 b 206 972 381 968 264 972 b 210 646 206 951 210 678 l 210 493 b 203 0 210 394 206 60 z m 331 869 b 635 667 611 865 635 708 b 331 388 635 514 506 425 z "},"Q":{"ha":1179,"x_min":0,"x_max":0,"o":"m 1122 -7 b 761 31 1025 0 892 18 l 761 36 b 1096 538 1011 135 1096 358 b 629 994 1096 822 897 994 b 83 449 314 994 83 749 b 214 108 83 301 133 189 b 543 -21 332 -11 510 -21 b 618 -31 560 -21 585 -24 b 1097 -128 772 -61 942 -97 z m 215 461 b 621 894 215 636 318 894 b 963 525 782 894 963 772 b 567 76 963 264 793 76 b 215 461 357 76 215 249 z "},"R":{"ha":961,"x_min":0,"x_max":0,"o":"m 333 879 b 642 721 596 876 642 783 b 433 463 642 585 503 500 b 803 -25 475 404 788 -6 l 908 60 b 585 458 869 101 619 411 b 778 740 699 531 778 622 b 490 958 778 858 674 936 b 201 972 383 971 267 972 b 208 617 206 946 208 658 l 208 503 b 206 0 208 474 211 33 l 340 0 b 333 425 338 21 333 372 z "},"S":{"ha":732,"x_min":0,"x_max":0,"o":"m 203 -25 b 614 322 469 38 614 186 b 424 542 614 435 529 479 b 267 693 365 576 267 621 b 557 890 267 810 472 876 l 528 997 b 132 669 338 954 132 817 b 332 449 132 571 214 513 b 476 289 432 394 476 358 b 167 79 476 176 303 107 z "},"T":{"ha":903,"x_min":0,"x_max":0,"o":"m 531 0 b 514 640 528 28 514 358 l 514 869 b 907 857 631 869 888 863 l 907 975 b 517 958 846 964 543 958 l 396 958 b -4 975 381 958 51 964 l -4 857 b 389 869 32 863 229 869 l 389 663 b 381 0 389 442 388 36 z "},"U":{"ha":1157,"x_min":0,"x_max":0,"o":"m 279 738 b 286 965 279 864 283 929 l 154 965 b 153 768 154 933 153 832 l 153 693 b 242 143 153 356 176 247 b 565 -22 339 -11 490 -22 b 899 125 713 -22 817 25 b 1018 690 1003 254 1018 424 l 1018 754 b 1017 986 1018 864 1017 956 l 885 986 b 893 757 888 935 893 853 l 893 708 b 825 217 893 490 892 321 b 583 85 779 144 703 85 b 343 219 483 85 397 125 b 279 643 289 315 279 418 z "},"V":{"ha":1021,"x_min":0,"x_max":0,"o":"m 910 994 b 514 210 893 950 538 243 b 140 994 486 253 163 932 l 21 928 b 499 -46 63 864 469 -3 l 501 -46 b 1024 928 551 50 975 856 z "},"W":{"ha":1486,"x_min":0,"x_max":0,"o":"m 1357 972 b 1078 238 1329 894 1100 306 b 757 794 1001 369 839 649 l 754 794 b 435 208 658 619 469 285 b 181 986 413 283 226 826 l 60 935 b 403 -49 117 776 360 63 l 406 -49 b 750 574 463 54 694 471 b 1082 -1 786 504 1032 96 l 1085 -1 b 1474 924 1122 78 1458 888 z "},"X":{"ha":1051,"x_min":0,"x_max":0,"o":"m 167 -25 b 521 418 185 0 504 397 b 879 -22 556 379 847 22 l 979 72 b 604 501 929 135 646 456 b 963 883 636 547 914 838 l 868 978 b 535 583 829 928 582 636 b 225 975 433 706 261 925 l 124 882 b 451 499 179 818 396 563 b 76 67 408 447 110 99 z "},"Y":{"ha":950,"x_min":0,"x_max":0,"o":"m 547 0 b 540 171 544 28 540 151 l 540 301 b 700 706 540 449 606 597 b 965 886 778 796 876 860 l 924 994 b 657 814 838 967 718 882 b 489 533 582 729 529 649 l 486 533 b 306 832 456 649 371 757 b 89 994 269 872 178 949 l 32 886 b 236 732 107 854 181 794 b 415 301 331 628 415 482 l 415 197 b 408 0 415 179 410 32 z "},"Z":{"ha":956,"x_min":0,"x_max":0,"o":"m 128 893 b 692 881 168 893 638 881 b 63 3 658 835 125 64 l 63 0 b 856 -14 135 0 821 -14 l 861 101 b 285 92 822 96 360 92 b 904 963 299 111 840 893 l 904 965 b 133 999 868 965 224 990 z "},"[":{"ha":486,"x_min":0,"x_max":0,"o":"m 147 1061 b 153 561 153 894 153 728 l 153 447 b 147 -108 153 263 153 76 l 463 -119 l 456 -22 l 269 -25 b 264 467 265 139 264 303 l 264 644 b 269 988 264 758 265 874 l 463 994 l 456 1092 z "},"\\":{"ha":471,"x_min":0,"x_max":0,"o":"m 579 32 b 267 524 533 96 401 313 b -11 967 147 713 29 896 l -104 915 b 192 467 -64 860 67 665 b 489 -28 324 257 447 43 z "},"]":{"ha":486,"x_min":0,"x_max":0,"o":"m 339 -89 b 333 411 333 78 333 244 l 333 525 b 339 1081 333 710 333 896 l 24 1092 l 31 994 l 217 997 b 222 506 221 833 222 669 l 222 328 b 217 -15 222 214 221 99 l 24 -22 l 31 -119 z "},"^":{"ha":828,"x_min":0,"x_max":0,"o":"m 749 260 l 461 903 l 367 903 l 79 260 l 185 260 l 411 790 l 415 790 l 642 260 z "},"_":{"ha":694,"x_min":0,"x_max":0,"o":"m 0 -174 l 694 -174 l 694 -104 l 0 -104 z "},"‘":{"ha":222,"x_min":0,"x_max":0,"o":"m 131 994 l 19 944 l 154 704 l 208 729 z "},"a":{"ha":986,"x_min":0,"x_max":0,"o":"m 126 -25 b 260 258 146 15 243 221 l 689 275 b 854 -24 701 254 832 21 l 967 44 b 478 868 885 168 585 700 l 475 868 b 19 36 447 822 86 154 z m 307 346 b 474 672 318 365 456 644 b 646 360 486 653 632 386 z "},"b":{"ha":806,"x_min":0,"x_max":0,"o":"m 183 438 b 176 -7 183 414 183 58 l 201 -7 b 710 271 521 -7 710 113 b 503 451 710 376 596 439 l 503 454 b 671 642 639 507 671 596 b 376 822 671 707 631 803 b 176 826 326 826 243 826 b 183 568 181 801 183 603 z m 300 393 b 581 264 457 400 581 356 b 300 83 581 144 440 93 z m 300 744 b 549 626 389 746 549 732 b 300 468 549 547 438 469 z "},"c":{"ha":815,"x_min":0,"x_max":0,"o":"m 760 94 b 626 81 731 88 678 81 b 207 350 325 81 207 211 b 718 742 207 556 443 708 l 699 847 b 78 331 267 771 78 531 b 614 -19 78 217 183 -19 b 772 -10 690 -19 749 -14 z "},"d":{"ha":1003,"x_min":0,"x_max":0,"o":"m 183 374 b 175 -6 183 342 181 49 b 936 510 507 -6 936 132 b 488 819 936 592 900 788 b 176 826 378 828 249 826 b 183 519 182 793 183 544 z m 303 733 b 808 482 621 739 808 664 b 303 97 808 310 642 119 z "},"e":{"ha":733,"x_min":0,"x_max":0,"o":"m 622 93 b 304 89 504 86 335 89 l 304 369 b 431 368 318 369 374 368 b 569 365 489 367 549 365 l 565 467 b 304 454 489 460 328 454 l 304 743 b 607 749 325 743 553 749 l 601 849 b 179 826 539 844 210 826 b 183 500 181 804 183 519 l 183 343 b 179 0 183 315 183 63 b 626 -12 204 0 585 -12 z "},"f":{"ha":688,"x_min":0,"x_max":0,"o":"m 308 0 b 304 258 303 17 304 240 l 304 367 l 585 363 l 581 461 b 304 450 507 457 328 450 l 304 739 l 604 744 l 599 844 b 178 826 526 839 210 826 b 183 500 181 804 183 519 l 183 343 b 172 0 183 315 183 63 z "},"g":{"ha":914,"x_min":0,"x_max":0,"o":"m 808 271 l 808 361 l 685 361 b 689 279 686 354 689 314 l 689 88 b 558 71 664 78 611 71 b 206 325 308 71 206 201 b 713 740 206 513 439 689 l 688 849 b 76 326 224 728 76 465 b 532 -19 76 131 246 -19 b 811 18 638 -19 754 -3 b 808 185 811 33 808 139 z "},"h":{"ha":1143,"x_min":0,"x_max":0,"o":"m 310 0 b 304 297 308 28 304 244 l 304 369 l 839 392 l 839 272 b 832 0 839 250 836 40 l 965 0 b 960 333 963 22 960 318 l 960 451 b 969 826 960 479 967 799 l 835 826 b 839 568 836 800 839 588 l 839 479 l 304 457 l 304 543 b 311 826 304 564 308 806 l 176 826 b 183 486 179 799 183 507 l 183 358 b 179 0 183 328 182 51 z "},"i":{"ha":489,"x_min":0,"x_max":0,"o":"m 304 485 b 311 826 304 626 308 806 l 176 826 b 183 486 179 799 183 507 l 183 358 b 179 0 183 328 182 51 l 310 0 b 304 357 308 28 304 239 z "},"j":{"ha":507,"x_min":0,"x_max":0,"o":"m 350 543 b 357 826 350 685 354 806 l 224 826 b 229 546 225 799 229 565 l 229 361 b 35 10 229 154 154 60 l 96 -83 b 350 358 225 -29 350 101 z "},"k":{"ha":914,"x_min":0,"x_max":0,"o":"m 310 -12 b 303 367 307 11 303 275 l 303 493 b 310 839 303 596 308 819 l 176 839 b 183 482 176 811 183 585 l 183 357 b 176 -12 183 222 179 22 z m 843 83 b 457 443 793 128 496 397 b 797 732 525 506 747 693 l 724 822 b 313 435 694 792 333 454 b 757 -11 367 376 742 6 z "},"l":{"ha":683,"x_min":0,"x_max":0,"o":"m 178 826 b 183 500 181 804 183 519 l 183 343 b 172 0 183 315 183 63 b 619 -12 204 0 579 -12 l 619 99 b 304 93 485 93 335 93 l 304 419 b 315 826 304 568 310 800 z "},"m":{"ha":1306,"x_min":0,"x_max":0,"o":"m 156 -31 b 344 590 168 15 322 517 b 618 75 400 483 547 207 l 621 75 b 935 588 675 161 894 522 b 1153 -31 951 542 1124 58 l 1268 13 b 961 810 1217 138 999 714 l 957 810 b 635 272 935 774 675 339 b 332 846 597 340 369 771 l 326 846 b 42 6 319 817 63 56 z "},"n":{"ha":1115,"x_min":0,"x_max":0,"o":"m 268 -8 b 274 631 267 31 276 608 l 276 631 b 936 -25 292 614 900 7 l 942 -25 b 976 826 947 272 971 756 l 853 832 b 849 214 851 793 849 247 b 194 874 810 251 231 835 l 188 874 b 140 0 182 751 147 89 z "},"o":{"ha":1075,"x_min":0,"x_max":0,"o":"m 504 -19 b 999 443 868 -19 999 258 b 575 846 999 697 819 846 b 76 371 269 846 76 633 b 504 -19 76 163 228 -19 z m 515 72 b 204 389 322 72 204 213 b 557 754 204 590 336 754 b 869 438 722 754 869 649 b 515 72 869 204 706 72 z "},"p":{"ha":778,"x_min":0,"x_max":0,"o":"m 304 0 b 303 178 303 25 303 154 l 303 244 b 704 585 539 286 704 415 b 431 813 704 710 600 786 b 181 826 351 825 233 826 b 183 549 181 808 183 576 l 183 419 b 178 0 183 335 181 51 z m 303 733 b 576 571 549 731 576 614 b 303 336 576 435 453 365 z "},"q":{"ha":1074,"x_min":0,"x_max":0,"o":"m 1021 -1 b 700 28 933 4 811 17 l 700 32 b 997 457 917 110 997 304 b 572 846 997 699 817 846 b 76 382 282 846 76 636 b 197 94 76 256 126 163 b 500 -18 304 -7 469 -18 b 563 -29 515 -18 532 -22 b 999 -114 701 -61 857 -89 z m 204 392 b 565 754 204 540 292 754 b 869 446 708 754 869 657 b 515 74 869 225 719 74 b 204 392 328 74 204 211 z "},"r":{"ha":856,"x_min":0,"x_max":0,"o":"m 304 736 b 583 608 540 735 583 664 b 394 394 583 490 457 426 b 732 -22 432 344 718 -6 l 828 63 b 536 385 792 97 568 342 b 715 626 640 446 715 529 b 451 817 715 729 618 797 b 176 826 346 829 236 826 b 183 524 181 804 183 560 l 183 428 b 181 0 183 403 185 28 l 311 0 b 304 361 308 18 304 317 z "},"s":{"ha":667,"x_min":0,"x_max":0,"o":"m 178 -22 b 565 274 425 28 565 151 b 386 463 565 372 482 410 b 242 589 332 493 242 525 b 513 751 242 692 431 739 l 486 849 b 114 569 307 817 114 701 b 301 381 114 483 193 433 b 436 246 393 336 436 307 b 146 75 436 151 274 100 z "},"t":{"ha":785,"x_min":0,"x_max":0,"o":"m 469 0 b 454 544 467 24 454 304 l 454 728 b 792 717 556 728 789 722 l 792 829 b 453 815 751 819 476 815 l 342 815 b -7 829 328 815 29 819 l -7 717 b 333 728 11 722 190 728 l 333 563 b 325 0 333 375 332 31 z "},"u":{"ha":1028,"x_min":0,"x_max":0,"o":"m 250 626 b 256 821 250 735 254 790 l 131 821 b 129 653 131 793 129 707 l 129 589 b 213 122 129 303 154 210 b 501 -19 301 -10 433 -19 b 800 107 636 -19 725 21 b 911 586 894 217 911 360 l 911 642 b 910 839 911 735 910 813 l 783 839 b 790 643 785 794 790 725 l 790 603 b 731 189 790 417 789 275 b 518 76 689 126 626 76 b 308 190 428 76 357 111 b 250 547 261 268 250 356 z "},"v":{"ha":910,"x_min":0,"x_max":0,"o":"m 800 847 b 453 181 785 808 474 210 b 128 847 428 218 147 793 l 13 789 b 440 -39 46 735 417 0 l 443 -39 b 911 789 488 43 871 728 z "},"w":{"ha":1313,"x_min":0,"x_max":0,"o":"m 1192 832 b 954 213 1171 765 975 271 b 667 685 889 325 744 551 l 664 685 b 381 188 575 526 415 251 b 161 842 360 250 201 706 l 42 794 b 351 -42 90 660 313 53 l 357 -42 b 660 478 410 46 610 389 b 956 -1 693 419 908 82 l 961 -1 b 1308 785 996 67 1297 754 z "},"x":{"ha":915,"x_min":0,"x_max":0,"o":"m 136 -25 b 450 353 158 -3 436 332 b 768 -24 481 318 735 15 l 864 61 b 526 426 815 111 564 385 b 844 749 557 465 804 710 l 760 832 b 463 499 724 790 506 544 b 186 833 371 604 219 790 l 94 746 b 388 424 143 692 336 481 b 49 57 349 379 82 83 z "},"y":{"ha":813,"x_min":0,"x_max":0,"o":"m 474 0 b 467 146 471 24 467 129 l 467 251 b 610 593 467 378 524 501 b 833 740 681 669 767 719 l 797 842 b 569 693 732 821 625 751 b 417 454 501 621 454 553 l 415 454 b 250 708 386 553 310 644 b 68 839 218 743 135 806 l 17 738 b 188 615 69 717 136 668 b 346 251 274 526 346 406 l 346 168 b 340 0 346 153 340 28 z "},"z":{"ha":835,"x_min":0,"x_max":0,"o":"m 107 747 b 597 742 131 747 549 742 b 42 3 569 704 94 58 l 42 0 b 753 -12 101 0 726 -12 l 757 92 b 243 83 728 88 311 83 b 789 818 254 99 743 758 l 789 821 b 113 849 769 821 183 842 z "},"{":{"ha":486,"x_min":0,"x_max":0,"o":"m 379 1085 b 185 699 258 1024 192 942 b 42 529 181 544 129 529 l 42 450 b 183 272 129 450 178 435 b 379 -119 192 21 258 -67 l 438 -36 b 299 272 336 7 299 133 b 185 497 299 394 256 465 b 300 694 250 526 299 614 b 438 1001 304 858 332 953 z "},"|":{"ha":343,"x_min":0,"x_max":0,"o":"m 224 -347 l 224 1042 l 121 1042 l 121 -347 z "},"}":{"ha":486,"x_min":0,"x_max":0,"o":"m 104 -119 b 301 274 228 -58 294 24 b 444 443 306 428 357 443 l 444 522 b 303 700 357 522 308 538 b 104 1085 294 944 228 1032 l 49 1001 b 188 693 150 958 188 832 b 301 478 188 581 231 513 b 185 271 236 447 188 363 b 49 -36 179 107 154 13 z "},"~":{"ha":828,"x_min":0,"x_max":0,"o":"m 158 288 b 238 404 161 371 190 404 b 399 343 285 404 333 376 b 599 281 490 299 542 281 b 763 500 689 281 769 338 l 671 500 b 599 385 669 424 646 385 b 433 443 551 385 501 410 b 238 506 342 486 297 506 b 67 288 138 506 63 435 z "},"¡":{"ha":417,"x_min":0,"x_max":0,"o":"m 296 972 l 157 972 l 157 836 l 296 836 z m 186 661 b 121 0 174 472 135 117 l 269 -7 b 264 672 261 144 269 476 z "},"¢":{"ha":982,"x_min":0,"x_max":0,"o":"m 481 -22 l 582 -22 l 578 182 b 665 176 601 179 632 176 b 779 186 700 176 743 179 l 769 292 b 664 281 739 286 704 281 b 386 481 521 281 386 351 b 749 774 386 613 501 749 l 733 888 b 578 843 676 876 619 863 l 582 1046 l 481 1046 l 483 799 b 256 463 350 726 256 604 b 483 204 256 400 311 244 z "},"£":{"ha":982,"x_min":0,"x_max":0,"o":"m 785 104 b 364 97 619 100 453 97 b 432 403 396 208 415 308 b 699 413 533 408 632 411 l 704 513 b 447 493 650 507 554 500 b 458 547 451 511 454 529 b 786 879 511 821 629 858 l 761 994 b 339 569 553 949 390 833 b 325 488 333 543 329 515 b 165 479 271 483 215 481 l 167 385 b 311 394 213 388 260 390 b 232 0 293 271 274 143 b 785 -7 315 0 736 -7 z "},"⁄":{"ha":208,"x_min":0,"x_max":0,"o":"m 447 953 l 360 1001 b 78 542 319 928 200 738 b -240 29 -58 324 -192 99 l -156 -29 b 146 483 -114 44 13 267 b 447 953 272 689 406 890 z "},"¥":{"ha":982,"x_min":0,"x_max":0,"o":"m 544 0 b 538 183 542 29 538 163 l 538 311 b 772 308 650 311 738 310 l 769 400 b 539 397 732 399 647 397 b 897 915 649 549 847 849 l 797 979 b 492 490 735 869 585 638 l 489 490 b 188 979 393 636 260 857 l 85 908 b 419 399 161 800 321 549 b 189 400 306 397 221 399 l 192 308 b 422 310 225 310 311 311 l 422 211 b 415 0 422 192 417 35 z "},"ƒ":{"ha":982,"x_min":0,"x_max":0,"o":"m 457 0 l 457 115 b 463 372 457 199 458 292 b 721 382 517 375 665 381 l 726 482 b 467 467 671 476 532 467 b 471 517 468 488 469 504 b 786 872 511 838 681 865 l 763 994 b 351 531 563 951 390 818 b 333 65 332 385 333 104 l 333 0 z "},"§":{"ha":669,"x_min":0,"x_max":0,"o":"m 601 406 b 476 557 603 489 542 528 b 360 606 439 574 399 589 b 258 699 321 622 258 647 b 513 850 258 763 353 822 l 483 956 b 140 693 294 907 142 803 l 140 690 b 181 594 140 646 153 622 b 68 447 93 553 68 492 b 235 279 67 350 150 319 b 410 144 324 236 410 215 b 124 10 410 65 285 17 l 147 -93 b 528 167 397 -64 526 32 l 528 168 b 486 258 528 196 518 231 b 601 406 578 304 601 354 z m 496 382 b 431 301 496 350 469 319 b 265 376 392 324 318 353 b 172 468 226 394 172 417 b 239 554 172 501 196 531 b 374 490 263 539 332 507 b 496 383 472 450 496 426 l 496 382 z "},"¤":{"ha":724,"x_min":0,"x_max":0,"o":"m 690 728 l 622 797 l 522 692 b 363 746 483 725 426 746 l 361 746 b 201 690 300 746 242 725 l 104 797 l 38 728 l 144 628 b 92 457 117 589 92 532 b 143 290 92 388 115 328 l 40 192 l 106 124 l 200 229 b 358 175 238 194 301 175 b 521 233 414 175 479 194 l 617 124 l 685 192 l 578 294 b 626 465 604 331 626 389 b 579 628 626 533 604 590 z m 517 464 b 358 272 517 326 433 272 b 201 460 289 272 201 329 b 358 649 201 565 263 649 l 360 649 b 517 464 460 649 517 560 z "},"'":{"ha":222,"x_min":0,"x_max":0,"o":"m 82 719 l 140 719 l 172 994 l 50 994 z "},"“":{"ha":424,"x_min":0,"x_max":0,"o":"m 118 994 l 19 928 l 179 738 l 231 769 z m 318 994 l 213 942 l 353 704 l 408 731 z "},"«":{"ha":681,"x_min":0,"x_max":0,"o":"m 257 708 b 60 465 219 663 107 525 b 272 222 100 419 242 261 l 343 290 b 172 472 293 335 210 429 b 326 644 204 517 296 617 z m 525 750 b 289 465 479 689 336 525 b 525 203 329 419 490 246 l 592 278 b 407 472 546 322 444 431 b 594 681 436 517 550 632 z "},"‹":{"ha":444,"x_min":0,"x_max":0,"o":"m 289 750 b 53 465 243 689 100 525 b 289 203 93 419 254 246 l 356 278 b 171 472 310 322 208 431 b 358 681 200 517 314 632 z "},"›":{"ha":444,"x_min":0,"x_max":0,"o":"m 156 203 b 392 488 201 264 344 428 b 156 750 351 533 190 707 l 89 675 b 274 481 135 631 236 522 b 86 272 244 436 131 321 z "},"ﬁ":{"ha":1175,"x_min":0,"x_max":0,"o":"m 308 0 b 304 258 303 17 304 240 l 304 367 l 585 363 l 581 461 b 304 450 507 457 328 450 l 304 739 l 604 744 l 599 844 b 178 826 526 839 210 826 b 183 500 181 804 183 519 l 183 343 b 172 0 183 315 183 63 z m 992 485 b 999 826 992 626 996 806 l 864 826 b 871 486 867 799 871 507 l 871 358 b 867 0 871 328 869 51 l 997 0 b 992 357 996 28 992 239 z "},"ﬂ":{"ha":1371,"x_min":0,"x_max":0,"o":"m 308 0 b 304 258 303 17 304 240 l 304 367 l 585 363 l 581 461 b 304 450 507 457 328 450 l 304 739 l 604 744 l 599 844 b 178 826 526 839 210 826 b 183 500 181 804 183 519 l 183 343 b 172 0 183 315 183 63 z m 865 826 b 871 500 868 804 871 519 l 871 343 b 860 0 871 315 871 63 b 1307 -12 892 0 1267 -12 l 1307 99 b 992 93 1172 93 1022 93 l 992 419 b 1003 826 992 568 997 800 z "},"–":{"ha":694,"x_min":0,"x_max":0,"o":"m 0 424 b 265 426 65 428 243 426 l 432 426 b 694 424 476 426 672 426 l 694 521 b 432 518 669 521 463 518 l 265 518 b 0 521 226 518 76 519 z "},"†":{"ha":701,"x_min":0,"x_max":0,"o":"m 643 546 l 643 657 l 401 646 l 414 936 l 286 936 l 299 646 l 57 657 l 57 546 l 299 557 l 286 -68 l 414 -68 l 401 557 z "},"‡":{"ha":701,"x_min":0,"x_max":0,"o":"m 643 201 l 643 313 l 404 301 l 404 572 l 643 561 l 643 672 l 404 661 l 414 936 l 288 936 l 297 661 l 58 672 l 58 561 l 297 572 l 297 301 l 58 313 l 58 201 l 296 213 l 288 -69 l 414 -69 l 404 213 z "},"·":{"ha":375,"x_min":0,"x_max":0,"o":"m 110 389 l 265 389 l 265 543 l 110 543 z "},"¶":{"ha":794,"x_min":0,"x_max":0,"o":"m 653 940 b 56 611 336 942 56 847 b 357 358 56 457 211 381 l 357 306 b 354 -67 357 243 356 -35 l 456 -67 b 453 354 454 -35 453 292 l 453 510 b 456 842 453 521 456 842 l 550 849 b 551 510 550 849 551 521 l 551 354 b 549 -67 551 292 550 -35 l 650 -67 b 647 353 649 -35 647 290 l 647 508 b 653 940 647 533 650 915 z "},"•":{"ha":417,"x_min":0,"x_max":0,"o":"m 86 521 b 164 347 114 468 136 413 b 331 460 215 385 261 417 b 229 608 294 500 267 550 b 86 521 194 583 143 550 z "},"‚":{"ha":222,"x_min":0,"x_max":0,"o":"m 14 -104 l 68 -129 l 203 111 l 92 161 z "},"„":{"ha":424,"x_min":0,"x_max":0,"o":"m 193 -64 l 244 -96 l 404 94 l 306 161 z m 15 -103 l 69 -131 l 211 108 l 106 161 z "},"”":{"ha":424,"x_min":0,"x_max":0,"o":"m 193 769 l 244 738 l 404 928 l 306 994 z m 15 731 l 69 703 l 211 942 l 106 994 z "},"»":{"ha":681,"x_min":0,"x_max":0,"o":"m 156 203 b 392 488 201 264 344 428 b 156 750 351 533 190 707 l 89 675 b 274 481 135 631 236 522 b 86 272 244 436 131 321 z m 424 244 b 621 488 461 290 574 428 b 408 731 581 533 439 692 l 338 663 b 508 481 388 618 471 524 b 354 308 476 436 385 336 z "},"…":{"ha":1389,"x_min":0,"x_max":0,"o":"m 160 0 l 303 0 l 303 142 l 160 142 z m 622 0 l 765 0 l 765 142 l 622 142 z m 1085 0 l 1228 0 l 1228 142 l 1085 142 z "},"‰":{"ha":1921,"x_min":0,"x_max":0,"o":"m 321 446 b 601 711 531 446 601 624 b 344 972 601 886 497 972 b 56 699 157 972 56 819 b 321 446 56 565 143 446 z m 324 524 b 160 703 224 524 160 611 b 336 894 160 782 211 894 b 496 708 422 894 496 836 b 324 524 496 593 418 524 z m 974 0 b 1254 265 1183 0 1254 178 b 997 526 1254 440 1150 526 b 708 253 810 526 708 374 b 974 0 708 119 796 0 z m 976 72 b 813 251 876 72 813 160 b 989 443 813 331 864 443 b 1149 256 1075 443 1149 385 b 976 72 1149 140 1071 72 z m 1585 0 b 1865 265 1794 0 1865 178 b 1608 526 1865 440 1761 526 b 1319 253 1421 526 1319 374 b 1585 0 1319 119 1407 0 z m 1588 72 b 1424 251 1488 72 1424 160 b 1600 443 1424 331 1475 443 b 1760 256 1686 443 1760 385 b 1588 72 1760 140 1682 72 z m 403 -29 b 704 483 444 44 571 267 b 1006 953 831 689 964 890 l 918 1001 b 636 542 878 928 758 738 b 318 29 500 324 367 99 z "},"¿":{"ha":597,"x_min":0,"x_max":0,"o":"m 551 79 b 208 318 403 96 208 158 b 450 572 208 453 360 542 l 410 661 b 74 288 308 617 74 490 b 519 -28 74 125 294 14 z m 449 972 l 310 972 l 310 836 l 449 836 z "},"`":{"ha":1181,"x_min":0,"x_max":0,"o":"m 489 1257 l 424 1158 l 644 1044 l 678 1093 z "},"´":{"ha":1181,"x_min":0,"x_max":0,"o":"m 529 1093 l 565 1043 l 786 1160 l 719 1257 z "},"ˆ":{"ha":1181,"x_min":0,"x_max":0,"o":"m 390 1115 l 440 1049 l 593 1165 l 735 1049 l 792 1115 l 597 1254 z "},"˜":{"ha":1181,"x_min":0,"x_max":0,"o":"m 424 1058 b 504 1118 444 1089 471 1118 b 586 1094 533 1118 558 1108 b 688 1063 617 1079 647 1061 b 815 1165 733 1063 779 1111 l 758 1211 b 678 1151 738 1181 710 1153 b 604 1174 649 1151 628 1161 b 494 1207 574 1189 542 1207 b 367 1099 449 1207 403 1158 z "},"¯":{"ha":1181,"x_min":0,"x_max":0,"o":"m 399 1069 l 776 1063 l 782 1151 l 410 1147 z "},"˘":{"ha":1181,"x_min":0,"x_max":0,"o":"m 750 1219 b 600 1143 714 1178 665 1143 b 435 1219 524 1143 469 1182 l 382 1157 b 589 1056 419 1110 518 1056 b 799 1160 664 1056 753 1107 z "},"˙":{"ha":1181,"x_min":0,"x_max":0,"o":"m 590 1063 l 689 1161 l 590 1258 l 492 1161 z "},"¨":{"ha":1181,"x_min":0,"x_max":0,"o":"m 438 1063 l 526 1151 l 438 1239 l 349 1151 z m 743 1063 l 832 1151 l 743 1239 l 654 1151 z "},"˚":{"ha":1181,"x_min":0,"x_max":0,"o":"m 582 1049 b 733 1174 661 1049 733 1096 b 593 1278 733 1229 686 1278 b 447 1156 518 1278 450 1229 b 582 1049 447 1090 511 1049 z m 589 1101 b 525 1161 554 1101 525 1125 b 592 1224 525 1203 561 1224 b 657 1167 631 1224 657 1199 b 589 1101 657 1122 624 1101 z "},"¸":{"ha":1181,"x_min":0,"x_max":0,"o":"m 572 0 l 511 -92 b 601 -182 556 -107 601 -144 b 467 -264 599 -233 532 -261 l 481 -324 b 707 -178 599 -311 707 -249 b 604 -74 707 -129 653 -87 l 657 0 z "},"˝":{"ha":1181,"x_min":0,"x_max":0,"o":"m 563 1083 l 608 1044 l 796 1203 l 719 1278 z m 382 1083 l 429 1046 l 588 1204 l 506 1272 z "},"˛":{"ha":1181,"x_min":0,"x_max":0,"o":"m 625 0 b 467 -161 543 -40 467 -99 b 676 -307 467 -233 574 -289 l 694 -249 b 571 -144 608 -232 571 -182 b 699 -3 571 -108 618 -50 z "},"ˇ":{"ha":1181,"x_min":0,"x_max":0,"o":"m 597 1049 l 792 1185 l 738 1251 l 599 1138 l 446 1251 l 390 1185 z "},"—":{"ha":1389,"x_min":0,"x_max":0,"o":"m 0 424 b 404 426 65 428 243 426 l 988 426 b 1389 424 1171 426 1367 426 l 1389 521 b 988 518 1364 521 1157 518 l 404 518 b 0 521 226 518 76 519 z "},"Æ":{"ha":1299,"x_min":0,"x_max":0,"o":"m 1168 106 b 793 101 1054 97 826 101 l 793 397 b 1110 393 821 397 1079 393 l 1106 503 b 793 486 1038 494 818 486 l 793 882 b 1151 889 815 882 1107 889 l 1146 999 b 642 972 1101 993 672 972 b -35 58 539 839 42 144 l 71 -22 b 335 381 94 21 304 339 l 671 388 l 671 278 b 664 0 671 186 665 32 b 1174 -14 692 0 1124 -14 z m 394 468 b 664 856 418 501 561 703 l 671 856 l 671 476 z "},"ª":{"ha":678,"x_min":0,"x_max":0,"o":"m 142 478 b 211 613 153 501 203 600 l 447 624 b 535 479 454 613 521 506 l 626 535 b 333 1003 585 590 401 897 l 331 1003 b 53 526 308 974 89 581 z m 247 688 b 328 839 254 699 313 815 b 414 696 339 821 404 711 z "},"Ł":{"ha":740,"x_min":0,"x_max":0,"o":"m 664 106 b 333 100 531 100 367 100 l 333 465 b 563 546 425 499 511 528 l 536 636 b 335 558 497 618 417 588 b 344 972 335 725 339 944 l 203 972 b 208 589 206 946 208 611 l 208 514 b 36 453 131 486 72 465 l 61 364 b 208 422 99 381 150 401 l 208 404 b 197 0 208 371 208 74 b 664 -14 232 0 644 -14 z "},"Ø":{"ha":1181,"x_min":0,"x_max":0,"o":"m 1097 521 b 996 829 1097 650 1061 753 b 1118 953 1038 874 1078 913 l 1044 1019 b 926 899 1007 981 968 942 b 636 994 849 963 747 994 b 83 436 301 994 83 744 b 186 143 83 326 119 219 b 69 28 146 106 108 67 l 133 -44 b 253 75 172 -3 213 38 b 561 -22 328 14 426 -22 b 1097 521 957 -22 1097 311 z m 568 81 b 338 163 476 81 399 104 b 908 740 525 356 713 546 b 963 514 953 678 963 597 b 568 81 963 235 769 81 z m 217 457 b 617 892 217 693 368 892 b 843 814 700 892 779 871 b 275 235 654 621 467 431 b 217 457 235 293 217 376 z "},"Œ":{"ha":1593,"x_min":0,"x_max":0,"o":"m 1400 544 b 1082 529 1332 536 1113 529 l 1082 882 l 1446 889 l 1440 999 b 958 972 1396 993 992 972 l 963 853 l 960 853 b 632 994 878 953 753 994 b 83 439 282 994 83 724 b 538 -22 83 210 253 -22 b 958 175 724 -22 868 43 l 963 175 b 958 0 961 88 960 28 b 1468 -14 986 0 1418 -14 l 1463 106 b 1082 101 1349 97 1121 101 l 1082 440 l 1404 435 z m 568 79 b 217 460 336 79 217 271 b 615 890 217 638 325 890 b 968 529 800 890 968 763 l 968 486 b 568 79 968 243 771 79 z "},"º":{"ha":657,"x_min":0,"x_max":0,"o":"m 299 486 b 597 758 524 486 597 653 b 351 994 597 908 492 994 b 60 721 160 994 60 849 b 299 486 60 597 151 486 z m 310 563 b 169 729 233 563 169 638 b 335 918 169 824 228 918 b 486 754 413 918 486 860 b 310 563 486 632 411 563 z "},"æ":{"ha":1154,"x_min":0,"x_max":0,"o":"m 1042 92 b 706 88 939 85 731 88 l 706 335 b 989 332 726 335 961 332 l 985 431 b 706 417 924 424 724 417 l 706 744 b 1026 750 721 744 986 750 l 1022 849 b 563 826 982 844 590 826 b -28 47 469 710 38 125 l 71 -24 b 299 318 110 38 275 283 l 590 325 l 590 236 b 583 0 590 158 585 28 b 1047 -12 608 0 1001 -12 z m 358 401 b 585 722 381 433 494 597 l 590 722 l 590 410 z "},"ı":{"ha":489,"x_min":0,"x_max":0,"o":"m 304 485 b 311 826 304 626 308 806 l 176 826 b 183 486 179 799 183 507 l 183 358 b 179 0 183 328 182 51 l 310 0 b 304 357 308 28 304 239 z "},"ł":{"ha":690,"x_min":0,"x_max":0,"o":"m 311 503 l 311 529 b 322 826 311 608 317 800 l 185 826 b 190 497 188 804 190 517 l 190 458 b 36 399 119 429 69 411 l 63 322 b 190 374 97 338 138 354 l 190 340 b 179 0 190 313 190 63 b 626 -12 211 0 586 -12 l 626 99 b 311 93 492 93 342 93 l 311 419 b 513 494 394 451 472 479 l 485 574 b 311 503 456 560 385 532 z "},"ø":{"ha":1075,"x_min":0,"x_max":0,"o":"m 511 -19 b 996 443 871 -19 996 264 b 907 706 996 553 964 643 b 1019 810 947 746 981 775 l 954 878 b 843 764 922 844 881 801 b 579 846 772 818 681 846 b 78 371 274 846 78 633 b 167 122 78 278 108 186 b 56 32 131 90 92 60 l 119 -39 b 228 61 157 -4 190 29 b 511 -19 296 10 388 -19 z m 517 69 b 308 138 433 69 364 89 b 829 628 486 303 650 461 b 872 438 868 574 872 508 b 517 69 872 200 694 69 z m 201 389 b 561 757 201 589 340 757 b 768 693 640 757 710 740 b 249 201 596 528 431 368 b 201 389 213 250 201 319 z "},"œ":{"ha":1443,"x_min":0,"x_max":0,"o":"m 1274 465 b 988 453 1213 458 1013 453 l 988 744 l 1315 750 l 1311 849 b 868 826 1271 844 903 826 l 872 719 l 869 719 b 575 846 799 810 685 846 b 76 374 257 846 76 615 b 489 -19 76 175 228 -19 b 868 153 658 -19 790 36 l 872 153 b 868 0 871 75 869 24 b 1336 -12 897 0 1290 -12 l 1331 93 b 988 89 1228 86 1019 89 l 988 371 l 1278 367 z m 517 72 b 203 390 313 72 203 231 b 560 754 203 542 297 754 b 875 471 728 754 875 640 l 875 388 b 517 72 875 214 701 72 z "},"ß":{"ha":1333,"x_min":0,"x_max":0,"o":"m 178 -22 b 565 274 425 28 565 151 b 386 463 565 372 482 410 b 242 589 332 493 242 525 b 513 751 242 692 431 739 l 486 849 b 114 569 307 817 114 701 b 301 381 114 483 193 433 b 436 246 393 336 436 307 b 146 75 436 151 274 100 z m 843 -22 b 1231 274 1090 28 1231 151 b 1051 463 1231 372 1147 410 b 907 589 997 493 907 525 b 1178 751 907 692 1096 739 l 1151 849 b 779 569 972 817 779 701 b 967 381 779 483 858 433 b 1101 246 1058 336 1101 307 b 811 75 1101 151 939 100 z "},"¹":{"ha":486,"x_min":0,"x_max":0,"o":"m 321 381 b 318 604 318 407 318 483 l 318 733 b 325 994 318 853 325 967 l 322 994 b 60 775 290 960 75 789 l 103 715 b 222 825 121 733 196 797 l 222 628 b 217 381 222 510 217 403 z "},"¬":{"ha":828,"x_min":0,"x_max":0,"o":"m 56 560 l 56 468 l 675 468 l 675 164 l 772 164 l 772 560 z "},"µ":{"ha":828,"x_min":0,"x_max":0,"o":"m 113 697 l 113 -267 l 246 -267 l 246 -47 b 240 47 246 -28 243 31 l 246 53 b 393 -17 282 3 332 -17 b 585 106 476 -17 543 28 l 590 106 l 590 0 l 715 0 l 715 697 l 590 697 l 590 297 b 407 86 590 192 521 86 b 246 264 304 86 246 158 l 246 697 l 113 697 z "},"™":{"ha":933,"x_min":0,"x_max":0,"o":"m 249 508 b 242 826 249 521 242 689 l 242 901 b 400 893 276 901 389 897 l 400 979 b 228 972 369 974 240 972 l 175 972 b 96 974 172 972 135 972 b 0 979 56 975 14 976 l 0 893 b 158 901 18 897 103 901 l 158 828 b 156 508 158 731 157 526 z m 417 490 b 499 781 431 544 479 706 l 501 781 b 604 525 522 721 557 632 l 613 525 b 729 781 647 600 710 731 l 732 781 b 825 490 747 738 806 542 l 900 525 b 744 990 875 589 763 946 l 739 990 b 618 706 717 947 636 758 b 499 1003 579 800 518 965 l 493 1003 b 338 515 481 960 349 546 z "},"Ð":{"ha":1147,"x_min":0,"x_max":0,"o":"m 68 431 b 208 439 96 433 142 436 b 200 -7 208 401 206 57 b 1064 603 517 -7 1064 172 b 556 958 1064 699 1008 901 b 201 972 435 974 281 972 b 208 611 207 933 208 640 l 208 532 b 64 526 138 529 92 526 z m 550 553 b 333 539 494 549 411 542 l 333 868 b 928 567 692 872 928 771 b 333 115 928 386 713 147 l 333 446 b 553 454 410 450 492 453 z "},"½":{"ha":1200,"x_min":0,"x_max":0,"o":"m 1110 -7 l 1110 88 l 856 71 l 854 75 b 1078 371 924 122 1078 231 b 746 608 1078 482 957 588 l 731 515 b 968 365 839 519 968 469 b 654 7 968 231 778 86 l 657 0 l 761 0 b 1110 -7 896 0 1086 -4 z m 897 953 l 810 1001 b 528 542 769 928 650 738 b 210 29 392 324 258 99 l 294 -29 b 596 483 336 44 463 267 b 897 953 722 689 856 890 z m 306 994 l 303 994 b 40 775 271 960 56 789 l 83 715 b 203 825 101 733 176 797 l 203 628 b 197 381 203 510 197 403 l 301 381 b 299 604 299 407 299 483 l 299 733 b 306 994 299 853 306 967 z "},"±":{"ha":828,"x_min":0,"x_max":0,"o":"m 365 796 l 365 532 l 56 532 l 56 440 l 365 440 l 365 168 l 463 168 l 463 440 l 772 440 l 772 532 l 463 532 l 463 796 z m 56 92 l 56 0 l 772 0 l 772 92 z "},"Þ":{"ha":867,"x_min":0,"x_max":0,"o":"m 333 0 b 331 139 331 29 331 111 l 331 179 b 769 542 594 218 769 372 b 467 794 769 683 653 765 b 331 806 424 801 374 806 l 331 846 b 335 972 331 886 332 932 l 206 972 b 210 646 206 951 210 678 l 210 493 b 203 0 210 394 206 60 z m 331 710 b 635 521 611 711 635 558 b 331 276 635 389 506 299 z "},"¼":{"ha":1133,"x_min":0,"x_max":0,"o":"m 1071 210 l 976 207 l 976 614 l 968 614 l 574 140 l 578 132 l 885 132 l 885 113 b 881 0 885 68 882 32 l 976 0 b 975 104 975 33 975 72 l 975 132 l 1064 129 z m 886 208 l 722 208 b 886 413 761 256 846 361 z m 906 953 l 818 1001 b 536 542 778 928 658 738 b 218 29 400 324 267 99 l 303 -29 b 604 483 344 44 471 267 b 906 953 731 689 864 890 z m 319 994 l 317 994 b 54 775 285 960 69 789 l 97 715 b 217 825 115 733 190 797 l 217 628 b 211 381 217 510 211 403 l 315 381 b 313 604 313 407 313 483 l 313 733 b 319 994 313 853 319 967 z "},"÷":{"ha":828,"x_min":0,"x_max":0,"o":"m 414 532 b 493 614 463 532 493 567 b 415 696 493 663 463 696 b 336 614 368 696 336 663 b 413 532 336 567 368 532 z m 772 325 l 772 417 l 57 417 l 57 325 z m 414 46 b 493 128 463 46 493 81 b 415 210 493 176 463 210 b 336 128 368 210 336 176 b 413 46 336 81 368 46 z "},"¦":{"ha":343,"x_min":0,"x_max":0,"o":"m 224 450 l 224 936 l 121 936 l 121 450 z m 224 -244 l 224 242 l 121 242 l 121 -244 z "},"°":{"ha":451,"x_min":0,"x_max":0,"o":"m 418 768 b 231 951 418 865 346 951 l 229 951 b 39 761 122 951 39 868 b 226 579 39 663 115 579 b 418 768 326 579 418 656 z m 336 765 b 228 650 336 700 290 650 b 121 763 167 650 121 700 b 226 881 121 819 158 881 l 228 881 b 336 765 304 881 336 818 z "},"þ":{"ha":783,"x_min":0,"x_max":0,"o":"m 303 629 b 574 461 542 628 574 517 b 303 244 574 344 465 257 z m 304 718 b 308 865 304 765 306 814 l 181 865 b 183 558 181 818 183 586 l 183 419 b 178 -39 183 335 181 42 l 304 -39 b 303 135 303 15 303 111 l 303 156 b 704 476 554 176 704 317 b 399 714 704 607 563 696 b 304 718 365 718 336 718 z "},"¾":{"ha":1153,"x_min":0,"x_max":0,"o":"m 1090 210 l 996 207 l 996 614 l 988 614 l 593 140 l 597 132 l 904 132 l 904 113 b 900 0 904 68 901 32 l 996 0 b 994 104 994 33 994 72 l 994 132 l 1083 129 z m 906 208 l 742 208 b 906 413 781 256 865 361 z m 939 953 l 851 1001 b 569 542 811 928 692 738 b 251 29 433 324 300 99 l 336 -29 b 638 483 378 44 504 267 b 939 953 764 689 897 890 z m 449 572 b 301 693 449 642 381 678 l 301 696 b 425 833 353 717 425 774 b 124 992 425 936 242 989 l 113 914 b 317 819 208 918 317 885 b 136 696 317 749 201 699 l 136 678 b 331 568 225 669 331 639 b 67 447 331 479 179 440 l 69 364 b 449 572 254 368 449 457 z "},"²":{"ha":542,"x_min":0,"x_max":0,"o":"m 478 468 l 224 451 l 222 456 b 446 751 292 503 446 611 b 114 989 446 863 325 968 l 99 896 b 336 746 207 900 336 850 b 22 388 336 611 146 467 l 25 381 l 129 381 b 478 374 264 379 454 376 z "},"®":{"ha":1183,"x_min":0,"x_max":0,"o":"m 585 -22 b 1100 493 876 -22 1100 201 b 599 994 1100 785 890 994 b 83 479 307 994 83 771 b 585 -22 83 194 300 -22 z m 586 53 b 185 488 364 53 185 251 b 600 919 185 731 357 919 b 999 488 822 919 999 724 b 586 53 999 244 829 53 z m 511 679 b 669 607 647 683 669 639 b 565 490 669 551 600 508 b 750 246 586 461 743 256 l 826 303 b 665 489 807 324 682 465 b 763 629 724 525 763 569 b 635 735 763 689 707 724 b 422 746 568 746 492 746 b 425 568 424 732 425 589 l 425 511 b 424 260 425 496 426 276 l 515 258 b 511 471 514 269 511 444 z "},"−":{"ha":828,"x_min":0,"x_max":0,"o":"m 56 417 l 56 325 l 772 325 l 772 417 z "},"ð":{"ha":1010,"x_min":0,"x_max":0,"o":"m 190 374 l 190 339 b 182 -6 190 307 188 49 b 943 504 532 -6 943 143 b 496 819 943 592 913 782 b 183 826 386 829 256 826 b 190 519 189 793 190 544 l 190 456 b 60 450 126 453 85 450 l 64 367 b 190 374 89 368 131 371 z m 310 381 b 518 386 379 383 456 385 l 515 472 b 310 461 458 469 381 464 l 310 733 b 815 479 628 738 815 668 b 310 97 815 299 649 125 z "},"×":{"ha":828,"x_min":0,"x_max":0,"o":"m 56 665 l 347 367 l 56 67 l 122 0 l 414 299 l 706 0 l 772 67 l 481 367 l 772 665 l 706 732 l 414 433 l 122 732 z "},"³":{"ha":521,"x_min":0,"x_max":0,"o":"m 113 914 b 317 819 208 918 317 885 b 136 696 317 749 201 699 l 136 678 b 331 568 225 669 331 639 b 67 447 331 479 179 440 l 69 364 b 449 572 254 368 449 457 b 301 693 449 642 381 678 l 301 696 b 425 833 353 717 425 774 b 124 992 425 936 242 989 z "},"©":{"ha":1183,"x_min":0,"x_max":0,"o":"m 585 -22 b 1100 493 876 -22 1100 201 b 599 994 1100 785 890 994 b 83 479 307 994 83 771 b 585 -22 83 194 300 -22 z m 586 53 b 185 488 364 53 185 251 b 600 919 185 731 357 919 b 999 488 822 919 999 724 b 586 53 999 244 829 53 z m 743 339 b 663 328 719 333 690 328 b 458 467 506 328 458 414 b 719 674 458 564 568 663 l 710 763 b 360 456 464 719 360 574 b 656 246 360 431 379 246 b 750 253 697 246 729 249 z "},"Á":{"ha":1111,"x_min":0,"x_max":0,"o":"m 142 -26 b 296 315 165 21 279 289 l 778 335 b 968 -25 793 313 940 28 l 1086 53 b 540 1021 992 197 663 824 l 538 1021 b 28 46 504 968 104 179 z m 343 407 b 536 800 356 429 515 769 b 736 424 550 778 721 454 z m 411 1110 l 447 1060 l 668 1176 l 601 1274 z "},"Â":{"ha":1111,"x_min":0,"x_max":0,"o":"m 142 -26 b 296 315 165 21 279 289 l 778 335 b 968 -25 793 313 940 28 l 1086 53 b 540 1021 992 197 663 824 l 538 1021 b 28 46 504 968 104 179 z m 343 407 b 536 800 356 429 515 769 b 736 424 550 778 721 454 z m 335 1115 l 385 1049 l 538 1165 l 679 1049 l 736 1115 l 542 1254 z "},"Ä":{"ha":1111,"x_min":0,"x_max":0,"o":"m 142 -26 b 296 315 165 21 279 289 l 778 335 b 968 -25 793 313 940 28 l 1086 53 b 540 1021 992 197 663 824 l 538 1021 b 28 46 504 968 104 179 z m 343 407 b 536 800 356 429 515 769 b 736 424 550 778 721 454 z m 389 1063 l 478 1151 l 389 1239 l 300 1151 z m 694 1063 l 783 1151 l 694 1239 l 606 1151 z "},"À":{"ha":1111,"x_min":0,"x_max":0,"o":"m 142 -26 b 296 315 165 21 279 289 l 778 335 b 968 -25 793 313 940 28 l 1086 53 b 540 1021 992 197 663 824 l 538 1021 b 28 46 504 968 104 179 z m 343 407 b 536 800 356 429 515 769 b 736 424 550 778 721 454 z m 454 1274 l 389 1175 l 610 1061 l 643 1110 z "},"Å":{"ha":1111,"x_min":0,"x_max":0,"o":"m 343 407 b 536 800 356 429 515 769 b 736 424 550 778 721 454 z m 550 1140 b 615 1083 589 1140 615 1115 b 547 1018 615 1039 582 1018 b 483 1078 513 1018 483 1042 b 550 1140 483 1119 519 1140 z m 142 -26 b 296 315 165 21 279 289 l 778 335 b 968 -25 793 313 940 28 l 1086 53 b 571 968 997 189 703 749 b 692 1090 636 978 692 1022 b 551 1194 692 1146 644 1194 b 406 1072 476 1194 408 1146 b 510 969 406 1017 451 979 b 28 46 439 839 97 168 z "},"Ã":{"ha":1111,"x_min":0,"x_max":0,"o":"m 142 -26 b 296 315 165 21 279 289 l 778 335 b 968 -25 793 313 940 28 l 1086 53 b 540 1021 992 197 663 824 l 538 1021 b 28 46 504 968 104 179 z m 343 407 b 536 800 356 429 515 769 b 736 424 550 778 721 454 z m 375 1058 b 456 1118 396 1089 422 1118 b 538 1094 485 1118 510 1108 b 639 1063 568 1079 599 1061 b 767 1165 685 1063 731 1111 l 710 1211 b 629 1151 689 1181 661 1153 b 556 1174 600 1151 579 1161 b 446 1207 525 1189 493 1207 b 318 1099 400 1207 354 1158 z "},"Ç":{"ha":917,"x_min":0,"x_max":0,"o":"m 850 103 b 689 83 803 92 744 83 b 224 413 357 83 224 243 b 804 878 224 651 486 842 l 783 994 b 83 389 293 907 83 617 b 444 6 83 285 161 79 l 379 -92 b 469 -182 424 -107 469 -144 b 335 -264 467 -233 400 -261 l 349 -324 b 575 -178 467 -311 575 -249 b 472 -74 575 -129 521 -87 l 518 -8 b 675 -22 564 -18 617 -22 b 864 -8 758 -22 822 -17 z "},"É":{"ha":797,"x_min":0,"x_max":0,"o":"m 667 106 b 333 101 553 97 367 101 l 333 440 b 608 435 361 440 578 435 l 604 544 b 333 529 536 536 358 529 l 333 882 b 650 889 356 882 606 889 l 644 999 b 204 972 600 993 238 972 b 208 589 206 946 208 611 l 208 403 b 204 0 208 371 208 74 b 672 -14 232 0 650 -14 z m 338 1107 l 374 1057 l 594 1174 l 528 1271 z "},"Ê":{"ha":797,"x_min":0,"x_max":0,"o":"m 667 106 b 333 101 553 97 367 101 l 333 440 b 608 435 361 440 578 435 l 604 544 b 333 529 536 536 358 529 l 333 882 b 650 889 356 882 606 889 l 644 999 b 204 972 600 993 238 972 b 208 589 206 946 208 611 l 208 403 b 204 0 208 371 208 74 b 672 -14 232 0 650 -14 z m 226 1115 l 276 1049 l 429 1165 l 571 1049 l 628 1115 l 433 1254 z "},"Ë":{"ha":797,"x_min":0,"x_max":0,"o":"m 667 106 b 333 101 553 97 367 101 l 333 440 b 608 435 361 440 578 435 l 604 544 b 333 529 536 536 358 529 l 333 882 b 650 889 356 882 606 889 l 644 999 b 204 972 600 993 238 972 b 208 589 206 946 208 611 l 208 403 b 204 0 208 371 208 74 b 672 -14 232 0 650 -14 z m 274 1076 l 363 1165 l 274 1253 l 185 1165 z m 579 1076 l 668 1165 l 579 1253 l 490 1165 z "},"È":{"ha":797,"x_min":0,"x_max":0,"o":"m 667 106 b 333 101 553 97 367 101 l 333 440 b 608 435 361 440 578 435 l 604 544 b 333 529 536 536 358 529 l 333 882 b 650 889 356 882 606 889 l 644 999 b 204 972 600 993 238 972 b 208 589 206 946 208 611 l 208 403 b 204 0 208 371 208 74 b 672 -14 232 0 650 -14 z m 325 1271 l 260 1172 l 481 1058 l 514 1107 z "},"Í":{"ha":542,"x_min":0,"x_max":0,"o":"m 333 569 b 340 972 333 736 338 947 l 201 972 b 208 572 204 939 208 596 l 208 422 b 204 0 208 386 207 61 l 339 0 b 333 419 338 32 333 281 z m 196 1093 l 232 1043 l 453 1160 l 386 1257 z "},"Î":{"ha":542,"x_min":0,"x_max":0,"o":"m 333 569 b 340 972 333 736 338 947 l 201 972 b 208 572 204 939 208 596 l 208 422 b 204 0 208 386 207 61 l 339 0 b 333 419 338 32 333 281 z m 71 1115 l 121 1049 l 274 1165 l 415 1049 l 472 1115 l 278 1254 z "},"Ï":{"ha":542,"x_min":0,"x_max":0,"o":"m 333 569 b 340 972 333 736 338 947 l 201 972 b 208 572 204 939 208 596 l 208 422 b 204 0 208 386 207 61 l 339 0 b 333 419 338 32 333 281 z m 118 1063 l 207 1151 l 118 1239 l 29 1151 z m 424 1063 l 513 1151 l 424 1239 l 335 1151 z "},"Ì":{"ha":542,"x_min":0,"x_max":0,"o":"m 333 569 b 340 972 333 736 338 947 l 201 972 b 208 572 204 939 208 596 l 208 422 b 204 0 208 386 207 61 l 339 0 b 333 419 338 32 333 281 z m 169 1257 l 104 1158 l 325 1044 l 358 1093 z "},"Ñ":{"ha":1271,"x_min":0,"x_max":0,"o":"m 293 -10 b 303 764 292 36 303 715 l 306 764 b 1071 -29 331 729 1033 8 l 1074 -29 b 1111 972 1079 321 1106 889 l 982 979 b 972 240 981 933 972 279 b 217 1028 928 285 256 983 l 214 1028 b 163 0 207 885 169 104 z m 504 1044 b 585 1104 525 1075 551 1104 b 667 1081 614 1104 639 1094 b 768 1049 697 1065 728 1047 b 896 1151 814 1049 860 1097 l 839 1197 b 758 1138 818 1167 790 1139 b 685 1160 729 1138 708 1147 b 575 1193 654 1175 622 1193 b 447 1085 529 1193 483 1144 z "},"Ó":{"ha":1181,"x_min":0,"x_max":0,"o":"m 558 -22 b 1097 521 953 -22 1097 304 b 636 994 1097 821 899 994 b 83 436 301 994 83 744 b 558 -22 83 192 256 -22 z m 571 81 b 217 457 353 81 217 250 b 617 892 217 694 368 892 b 963 514 799 892 963 763 b 571 81 963 240 779 81 z m 529 1093 l 565 1043 l 786 1160 l 719 1257 z "},"Ô":{"ha":1181,"x_min":0,"x_max":0,"o":"m 558 -22 b 1097 521 953 -22 1097 304 b 636 994 1097 821 899 994 b 83 436 301 994 83 744 b 558 -22 83 192 256 -22 z m 571 81 b 217 457 353 81 217 250 b 617 892 217 694 368 892 b 963 514 799 892 963 763 b 571 81 963 240 779 81 z m 390 1115 l 440 1049 l 593 1165 l 735 1049 l 792 1115 l 597 1254 z "},"Ö":{"ha":1181,"x_min":0,"x_max":0,"o":"m 558 -22 b 1097 521 953 -22 1097 304 b 636 994 1097 821 899 994 b 83 436 301 994 83 744 b 558 -22 83 192 256 -22 z m 571 81 b 217 457 353 81 217 250 b 617 892 217 694 368 892 b 963 514 799 892 963 763 b 571 81 963 240 779 81 z m 438 1063 l 526 1151 l 438 1239 l 349 1151 z m 743 1063 l 832 1151 l 743 1239 l 654 1151 z "},"Ò":{"ha":1181,"x_min":0,"x_max":0,"o":"m 558 -22 b 1097 521 953 -22 1097 304 b 636 994 1097 821 899 994 b 83 436 301 994 83 744 b 558 -22 83 192 256 -22 z m 571 81 b 217 457 353 81 217 250 b 617 892 217 694 368 892 b 963 514 799 892 963 763 b 571 81 963 240 779 81 z m 489 1257 l 424 1158 l 644 1044 l 678 1093 z "},"Õ":{"ha":1181,"x_min":0,"x_max":0,"o":"m 558 -22 b 1097 521 953 -22 1097 304 b 636 994 1097 821 899 994 b 83 436 301 994 83 744 b 558 -22 83 192 256 -22 z m 571 81 b 217 457 353 81 217 250 b 617 892 217 694 368 892 b 963 514 799 892 963 763 b 571 81 963 240 779 81 z m 424 1079 b 504 1139 444 1110 471 1139 b 586 1115 533 1139 558 1129 b 688 1083 617 1100 647 1082 b 815 1186 733 1083 779 1132 l 758 1232 b 678 1172 738 1201 710 1174 b 604 1194 649 1172 628 1182 b 494 1228 574 1210 542 1228 b 367 1119 449 1228 403 1179 z "},"Š":{"ha":732,"x_min":0,"x_max":0,"o":"m 203 -25 b 614 322 469 38 614 186 b 424 542 614 435 529 479 b 267 693 365 576 267 621 b 557 890 267 810 472 876 l 528 997 b 132 669 338 954 132 817 b 332 449 132 571 214 513 b 476 289 432 394 476 358 b 167 79 476 176 303 107 z m 374 1049 l 568 1185 l 514 1251 l 375 1138 l 222 1251 l 167 1185 z "},"Ú":{"ha":1157,"x_min":0,"x_max":0,"o":"m 279 738 b 286 965 279 864 283 929 l 154 965 b 153 768 154 933 153 832 l 153 693 b 242 143 153 356 176 247 b 565 -22 339 -11 490 -22 b 899 125 713 -22 817 25 b 1018 690 1003 254 1018 424 l 1018 754 b 1017 986 1018 864 1017 956 l 885 986 b 893 757 888 935 893 853 l 893 708 b 825 217 893 490 892 321 b 583 85 779 144 703 85 b 343 219 483 85 397 125 b 279 643 289 315 279 418 z m 518 1093 l 554 1043 l 775 1160 l 708 1257 z "},"Û":{"ha":1157,"x_min":0,"x_max":0,"o":"m 279 738 b 286 965 279 864 283 929 l 154 965 b 153 768 154 933 153 832 l 153 693 b 242 143 153 356 176 247 b 565 -22 339 -11 490 -22 b 899 125 713 -22 817 25 b 1018 690 1003 254 1018 424 l 1018 754 b 1017 986 1018 864 1017 956 l 885 986 b 893 757 888 935 893 853 l 893 708 b 825 217 893 490 892 321 b 583 85 779 144 703 85 b 343 219 483 85 397 125 b 279 643 289 315 279 418 z m 400 1115 l 450 1049 l 603 1165 l 744 1049 l 801 1115 l 607 1254 z "},"Ü":{"ha":1157,"x_min":0,"x_max":0,"o":"m 279 738 b 286 965 279 864 283 929 l 154 965 b 153 768 154 933 153 832 l 153 693 b 242 143 153 356 176 247 b 565 -22 339 -11 490 -22 b 899 125 713 -22 817 25 b 1018 690 1003 254 1018 424 l 1018 754 b 1017 986 1018 864 1017 956 l 885 986 b 893 757 888 935 893 853 l 893 708 b 825 217 893 490 892 321 b 583 85 779 144 703 85 b 343 219 483 85 397 125 b 279 643 289 315 279 418 z m 440 1063 l 529 1151 l 440 1239 l 351 1151 z m 746 1063 l 835 1151 l 746 1239 l 657 1151 z "},"Ù":{"ha":1157,"x_min":0,"x_max":0,"o":"m 279 738 b 286 965 279 864 283 929 l 154 965 b 153 768 154 933 153 832 l 153 693 b 242 143 153 356 176 247 b 565 -22 339 -11 490 -22 b 899 125 713 -22 817 25 b 1018 690 1003 254 1018 424 l 1018 754 b 1017 986 1018 864 1017 956 l 885 986 b 893 757 888 935 893 853 l 893 708 b 825 217 893 490 892 321 b 583 85 779 144 703 85 b 343 219 483 85 397 125 b 279 643 289 315 279 418 z m 478 1257 l 413 1158 l 633 1044 l 667 1093 z "},"Ý":{"ha":950,"x_min":0,"x_max":0,"o":"m 547 0 b 540 171 544 28 540 151 l 540 301 b 700 706 540 449 606 597 b 965 886 778 796 876 860 l 924 994 b 657 814 838 967 718 882 b 489 533 582 729 529 649 l 486 533 b 306 832 456 649 371 757 b 89 994 269 872 178 949 l 32 886 b 236 732 107 854 181 794 b 415 301 331 628 415 482 l 415 197 b 408 0 415 179 410 32 z m 442 1093 l 478 1043 l 699 1160 l 632 1257 z "},"Ÿ":{"ha":950,"x_min":0,"x_max":0,"o":"m 547 0 b 540 171 544 28 540 151 l 540 301 b 700 706 540 449 606 597 b 965 886 778 796 876 860 l 924 994 b 657 814 838 967 718 882 b 489 533 582 729 529 649 l 486 533 b 306 832 456 649 371 757 b 89 994 269 872 178 949 l 32 886 b 236 732 107 854 181 794 b 415 301 331 628 415 482 l 415 197 b 408 0 415 179 410 32 z m 343 1063 l 432 1151 l 343 1239 l 254 1151 z m 649 1063 l 738 1151 l 649 1239 l 560 1151 z "},"Ž":{"ha":956,"x_min":0,"x_max":0,"o":"m 128 893 b 692 881 168 893 638 881 b 63 3 658 835 125 64 l 63 0 b 856 -14 135 0 821 -14 l 861 101 b 285 92 822 96 360 92 b 904 963 299 111 840 893 l 904 965 b 133 999 868 965 224 990 z m 513 1049 l 707 1185 l 653 1251 l 514 1138 l 361 1251 l 306 1185 z "},"á":{"ha":986,"x_min":0,"x_max":0,"o":"m 126 -25 b 260 258 146 15 243 221 l 689 275 b 854 -24 701 254 832 21 l 967 44 b 478 868 885 168 585 700 l 475 868 b 19 36 447 822 86 154 z m 307 346 b 474 672 318 365 456 644 b 646 360 486 653 632 386 z m 390 985 l 424 938 l 633 1049 l 571 1140 z "},"â":{"ha":986,"x_min":0,"x_max":0,"o":"m 126 -25 b 260 258 146 15 243 221 l 689 275 b 854 -24 701 254 832 21 l 967 44 b 478 868 885 168 585 700 l 475 868 b 19 36 447 822 86 154 z m 307 346 b 474 672 318 365 456 644 b 646 360 486 653 632 386 z m 292 1006 l 339 943 l 485 1054 l 619 943 l 674 1006 l 489 1138 z "},"ä":{"ha":986,"x_min":0,"x_max":0,"o":"m 126 -25 b 260 258 146 15 243 221 l 689 275 b 854 -24 701 254 832 21 l 967 44 b 478 868 885 168 585 700 l 475 868 b 19 36 447 822 86 154 z m 307 346 b 474 672 318 365 456 644 b 646 360 486 653 632 386 z m 339 956 l 424 1040 l 339 1124 l 256 1040 z m 631 956 l 714 1040 l 631 1124 l 546 1040 z "},"à":{"ha":986,"x_min":0,"x_max":0,"o":"m 126 -25 b 260 258 146 15 243 221 l 689 275 b 854 -24 701 254 832 21 l 967 44 b 478 868 885 168 585 700 l 475 868 b 19 36 447 822 86 154 z m 307 346 b 474 672 318 365 456 644 b 646 360 486 653 632 386 z m 390 1140 l 329 1047 l 539 939 l 569 985 z "},"å":{"ha":986,"x_min":0,"x_max":0,"o":"m 126 -25 b 260 258 146 15 243 221 l 689 275 b 854 -24 701 254 832 21 l 967 44 b 478 868 885 168 585 700 l 475 868 b 19 36 447 822 86 154 z m 307 346 b 474 672 318 365 456 644 b 646 360 486 653 632 386 z m 472 943 b 617 1063 547 943 617 988 b 483 1161 617 1115 572 1161 b 344 1044 413 1161 347 1115 b 472 943 344 983 406 943 z m 479 993 b 418 1050 446 993 418 1015 b 482 1110 418 1090 453 1110 b 544 1056 519 1110 544 1086 b 479 993 544 1013 513 993 z "},"ã":{"ha":986,"x_min":0,"x_max":0,"o":"m 126 -25 b 260 258 146 15 243 221 l 689 275 b 854 -24 701 254 832 21 l 967 44 b 478 868 885 168 585 700 l 475 868 b 19 36 447 822 86 154 z m 307 346 b 474 672 318 365 456 644 b 646 360 486 653 632 386 z m 325 951 b 401 1008 344 981 369 1008 b 479 985 429 1008 453 999 b 576 956 508 971 538 954 b 697 1053 619 956 663 1001 l 643 1096 b 567 1039 624 1067 597 1040 b 497 1061 539 1039 519 1049 b 392 1092 468 1075 438 1092 b 271 989 349 1092 306 1046 z "},"ç":{"ha":815,"x_min":0,"x_max":0,"o":"m 493 -14 b 614 -19 531 -17 578 -19 b 772 -10 690 -19 749 -14 l 760 94 b 626 81 731 88 678 81 b 207 350 325 81 207 211 b 718 742 207 556 443 708 l 699 847 b 78 331 267 771 78 531 b 425 -1 78 217 171 51 l 358 -100 b 444 -186 400 -115 444 -151 b 315 -264 444 -235 378 -261 l 329 -321 b 544 -182 442 -310 544 -250 b 446 -83 544 -136 493 -97 z "},"é":{"ha":733,"x_min":0,"x_max":0,"o":"m 622 93 b 304 89 504 86 335 89 l 304 369 b 431 368 318 369 374 368 b 569 365 489 367 549 365 l 565 467 b 304 454 489 460 328 454 l 304 743 b 607 749 325 743 553 749 l 601 849 b 179 826 539 844 210 826 b 183 500 181 804 183 519 l 183 343 b 179 0 183 315 183 63 b 626 -12 204 0 585 -12 z m 292 985 l 325 938 l 535 1049 l 472 1140 z "},"ê":{"ha":733,"x_min":0,"x_max":0,"o":"m 622 93 b 304 89 504 86 335 89 l 304 369 b 431 368 318 369 374 368 b 569 365 489 367 549 365 l 565 467 b 304 454 489 460 328 454 l 304 743 b 607 749 325 743 553 749 l 601 849 b 179 826 539 844 210 826 b 183 500 181 804 183 519 l 183 343 b 179 0 183 315 183 63 b 626 -12 204 0 585 -12 z m 193 1006 l 240 943 l 386 1054 l 521 943 l 575 1006 l 390 1138 z "},"ë":{"ha":733,"x_min":0,"x_max":0,"o":"m 622 93 b 304 89 504 86 335 89 l 304 369 b 431 368 318 369 374 368 b 569 365 489 367 549 365 l 565 467 b 304 454 489 460 328 454 l 304 743 b 607 749 325 743 553 749 l 601 849 b 179 826 539 844 210 826 b 183 500 181 804 183 519 l 183 343 b 179 0 183 315 183 63 b 626 -12 204 0 585 -12 z m 226 956 l 311 1040 l 226 1124 l 143 1040 z m 518 956 l 601 1040 l 518 1124 l 433 1040 z "},"è":{"ha":733,"x_min":0,"x_max":0,"o":"m 622 93 b 304 89 504 86 335 89 l 304 369 b 431 368 318 369 374 368 b 569 365 489 367 549 365 l 565 467 b 304 454 489 460 328 454 l 304 743 b 607 749 325 743 553 749 l 601 849 b 179 826 539 844 210 826 b 183 500 181 804 183 519 l 183 343 b 179 0 183 315 183 63 b 626 -12 204 0 585 -12 z m 299 1140 l 238 1047 l 447 939 l 478 985 z "},"í":{"ha":489,"x_min":0,"x_max":0,"o":"m 304 485 b 311 826 304 626 308 806 l 176 826 b 183 486 179 799 183 507 l 183 358 b 179 0 183 328 182 51 l 310 0 b 304 357 308 28 304 239 z m 156 985 l 189 938 l 399 1049 l 336 1140 z "},"î":{"ha":489,"x_min":0,"x_max":0,"o":"m 304 485 b 311 826 304 626 308 806 l 176 826 b 183 486 179 799 183 507 l 183 358 b 179 0 183 328 182 51 l 310 0 b 304 357 308 28 304 239 z m 57 1006 l 104 943 l 250 1054 l 385 943 l 439 1006 l 254 1138 z "},"ï":{"ha":489,"x_min":0,"x_max":0,"o":"m 304 485 b 311 826 304 626 308 806 l 176 826 b 183 486 179 799 183 507 l 183 358 b 179 0 183 328 182 51 l 310 0 b 304 357 308 28 304 239 z m 90 956 l 175 1040 l 90 1124 l 7 1040 z m 382 956 l 465 1040 l 382 1124 l 297 1040 z "},"ì":{"ha":489,"x_min":0,"x_max":0,"o":"m 304 485 b 311 826 304 626 308 806 l 176 826 b 183 486 179 799 183 507 l 183 358 b 179 0 183 328 182 51 l 310 0 b 304 357 308 28 304 239 z m 149 1140 l 88 1047 l 297 939 l 328 985 z "},"ñ":{"ha":1115,"x_min":0,"x_max":0,"o":"m 268 -8 b 274 631 267 31 276 608 l 276 631 b 936 -25 292 614 900 7 l 942 -25 b 976 826 947 272 971 756 l 853 832 b 849 214 851 793 849 247 b 194 874 810 251 231 835 l 188 874 b 140 0 182 751 147 89 z m 411 951 b 488 1008 431 981 456 1008 b 565 985 515 1008 539 999 b 663 956 594 971 624 954 b 783 1053 706 956 749 1001 l 729 1096 b 653 1039 710 1067 683 1040 b 583 1061 625 1039 606 1049 b 478 1092 554 1075 524 1092 b 357 989 435 1092 392 1046 z "},"ó":{"ha":1075,"x_min":0,"x_max":0,"o":"m 504 -19 b 999 443 868 -19 999 258 b 575 846 999 697 819 846 b 76 371 269 846 76 633 b 504 -19 76 163 228 -19 z m 515 72 b 204 389 322 72 204 213 b 557 754 204 590 336 754 b 869 438 722 754 869 649 b 515 72 869 204 706 72 z m 463 985 l 496 938 l 706 1049 l 643 1140 z "},"ô":{"ha":1075,"x_min":0,"x_max":0,"o":"m 504 -19 b 999 443 868 -19 999 258 b 575 846 999 697 819 846 b 76 371 269 846 76 633 b 504 -19 76 163 228 -19 z m 515 72 b 204 389 322 72 204 213 b 557 754 204 590 336 754 b 869 438 722 754 869 649 b 515 72 869 204 706 72 z m 350 1006 l 397 943 l 543 1054 l 678 943 l 732 1006 l 547 1138 z "},"ö":{"ha":1075,"x_min":0,"x_max":0,"o":"m 504 -19 b 999 443 868 -19 999 258 b 575 846 999 697 819 846 b 76 371 269 846 76 633 b 504 -19 76 163 228 -19 z m 515 72 b 204 389 322 72 204 213 b 557 754 204 590 336 754 b 869 438 722 754 869 649 b 515 72 869 204 706 72 z m 397 956 l 482 1040 l 397 1124 l 314 1040 z m 689 956 l 772 1040 l 689 1124 l 604 1040 z "},"ò":{"ha":1075,"x_min":0,"x_max":0,"o":"m 504 -19 b 999 443 868 -19 999 258 b 575 846 999 697 819 846 b 76 371 269 846 76 633 b 504 -19 76 163 228 -19 z m 515 72 b 204 389 322 72 204 213 b 557 754 204 590 336 754 b 869 438 722 754 869 649 b 515 72 869 204 706 72 z m 435 1140 l 374 1047 l 583 939 l 614 985 z "},"õ":{"ha":1075,"x_min":0,"x_max":0,"o":"m 504 -19 b 999 443 868 -19 999 258 b 575 846 999 697 819 846 b 76 371 269 846 76 633 b 504 -19 76 163 228 -19 z m 515 72 b 204 389 322 72 204 213 b 557 754 204 590 336 754 b 869 438 722 754 869 649 b 515 72 869 204 706 72 z m 390 951 b 467 1008 410 981 435 1008 b 544 985 494 1008 518 999 b 642 956 574 971 603 954 b 763 1053 685 956 728 1001 l 708 1096 b 632 1039 689 1067 663 1040 b 563 1061 604 1039 585 1049 b 457 1092 533 1075 503 1092 b 336 989 414 1092 371 1046 z "},"š":{"ha":667,"x_min":0,"x_max":0,"o":"m 178 -22 b 565 274 425 28 565 151 b 386 463 565 372 482 410 b 242 589 332 493 242 525 b 513 751 242 692 431 739 l 486 849 b 114 569 307 817 114 701 b 301 381 114 483 193 433 b 436 246 393 336 436 307 b 146 75 436 151 274 100 z m 351 943 l 536 1072 l 485 1135 l 353 1026 l 207 1135 l 154 1072 z "},"ú":{"ha":1028,"x_min":0,"x_max":0,"o":"m 250 626 b 256 821 250 735 254 790 l 131 821 b 129 653 131 793 129 707 l 129 589 b 213 122 129 303 154 210 b 501 -19 301 -10 433 -19 b 800 107 636 -19 725 21 b 911 586 894 217 911 360 l 911 642 b 910 839 911 735 910 813 l 783 839 b 790 643 785 794 790 725 l 790 603 b 731 189 790 417 789 275 b 518 76 689 126 626 76 b 308 190 428 76 357 111 b 250 547 261 268 250 356 z m 439 985 l 472 938 l 682 1049 l 619 1140 z "},"û":{"ha":1028,"x_min":0,"x_max":0,"o":"m 250 626 b 256 821 250 735 254 790 l 131 821 b 129 653 131 793 129 707 l 129 589 b 213 122 129 303 154 210 b 501 -19 301 -10 433 -19 b 800 107 636 -19 725 21 b 911 586 894 217 911 360 l 911 642 b 910 839 911 735 910 813 l 783 839 b 790 643 785 794 790 725 l 790 603 b 731 189 790 417 789 275 b 518 76 689 126 626 76 b 308 190 428 76 357 111 b 250 547 261 268 250 356 z m 326 1006 l 374 943 l 519 1054 l 654 943 l 708 1006 l 524 1138 z "},"ü":{"ha":1028,"x_min":0,"x_max":0,"o":"m 250 626 b 256 821 250 735 254 790 l 131 821 b 129 653 131 793 129 707 l 129 589 b 213 122 129 303 154 210 b 501 -19 301 -10 433 -19 b 800 107 636 -19 725 21 b 911 586 894 217 911 360 l 911 642 b 910 839 911 735 910 813 l 783 839 b 790 643 785 794 790 725 l 790 603 b 731 189 790 417 789 275 b 518 76 689 126 626 76 b 308 190 428 76 357 111 b 250 547 261 268 250 356 z m 374 956 l 458 1040 l 374 1124 l 290 1040 z m 665 956 l 749 1040 l 665 1124 l 581 1040 z "},"ù":{"ha":1028,"x_min":0,"x_max":0,"o":"m 250 626 b 256 821 250 735 254 790 l 131 821 b 129 653 131 793 129 707 l 129 589 b 213 122 129 303 154 210 b 501 -19 301 -10 433 -19 b 800 107 636 -19 725 21 b 911 586 894 217 911 360 l 911 642 b 910 839 911 735 910 813 l 783 839 b 790 643 785 794 790 725 l 790 603 b 731 189 790 417 789 275 b 518 76 689 126 626 76 b 308 190 428 76 357 111 b 250 547 261 268 250 356 z m 425 1140 l 364 1047 l 574 939 l 604 985 z "},"ý":{"ha":813,"x_min":0,"x_max":0,"o":"m 474 0 b 467 146 471 24 467 129 l 467 251 b 610 593 467 378 524 501 b 833 740 681 669 767 719 l 797 842 b 569 693 732 821 625 751 b 417 454 501 621 454 553 l 415 454 b 250 708 386 553 310 644 b 68 839 218 743 135 806 l 17 738 b 188 615 69 717 136 668 b 346 251 274 526 346 406 l 346 168 b 340 0 346 153 340 28 z m 332 985 l 365 938 l 575 1049 l 513 1140 z "},"ÿ":{"ha":813,"x_min":0,"x_max":0,"o":"m 474 0 b 467 146 471 24 467 129 l 467 251 b 610 593 467 378 524 501 b 833 740 681 669 767 719 l 797 842 b 569 693 732 821 625 751 b 417 454 501 621 454 553 l 415 454 b 250 708 386 553 310 644 b 68 839 218 743 135 806 l 17 738 b 188 615 69 717 136 668 b 346 251 274 526 346 406 l 346 168 b 340 0 346 153 340 28 z m 267 956 l 351 1040 l 267 1124 l 183 1040 z m 558 956 l 642 1040 l 558 1124 l 474 1040 z "},"ž":{"ha":835,"x_min":0,"x_max":0,"o":"m 107 747 b 597 742 131 747 549 742 b 42 3 569 704 94 58 l 42 0 b 753 -12 101 0 726 -12 l 757 92 b 243 83 728 88 311 83 b 789 818 254 99 743 758 l 789 821 b 113 849 769 821 183 842 z m 429 943 l 614 1072 l 563 1135 l 431 1026 l 285 1135 l 232 1072 z "},"":{"ha":379,"x_min":0,"x_max":0,"o":"m 107 0 l 239 0 l 239 122 l 107 122 z m 211 264 b 274 840 226 425 261 728 l 129 846 b 135 256 135 704 135 421 z "},"":{"ha":619,"x_min":0,"x_max":0,"o":"m 244 929 l 249 757 b 94 576 190 726 94 660 b 279 394 94 497 183 443 b 399 272 371 347 399 325 b 111 124 399 213 289 138 l 129 28 b 249 56 151 29 221 46 l 244 -100 l 342 -100 l 338 85 b 524 299 399 107 524 201 b 360 471 524 389 444 432 b 221 597 265 514 221 542 b 476 728 221 672 378 729 l 464 828 b 338 796 444 826 357 806 l 342 929 z "},"":{"ha":847,"x_min":0,"x_max":0,"o":"m 307 75 b 160 190 219 75 160 125 b 271 371 160 272 207 326 b 532 165 318 324 426 240 b 307 75 460 103 399 75 z m 811 79 b 678 181 783 100 740 132 b 793 313 726 225 760 272 l 713 383 b 606 236 696 357 657 294 b 397 396 518 297 442 358 b 250 589 318 464 250 515 b 503 750 250 689 393 736 l 476 847 b 132 569 303 817 132 704 b 206 432 132 518 158 474 b 36 174 139 385 36 299 b 283 -19 36 57 156 -19 b 600 110 424 -19 518 29 b 747 -7 661 63 713 18 z "},"":{"ha":944,"x_min":0,"x_max":0,"o":"m 457 18 b 871 421 708 18 871 215 b 482 808 871 651 704 808 b 74 413 269 808 74 651 b 457 18 74 149 269 18 z m 475 115 b 192 406 285 115 192 268 b 469 713 192 586 310 713 b 751 426 629 713 751 581 b 475 115 751 213 599 115 z "},"":{"ha":556,"x_min":0,"x_max":0,"o":"m 385 0 b 382 313 381 36 382 143 l 382 494 b 390 850 382 654 390 811 l 382 850 b 43 546 339 811 67 565 l 101 475 b 268 636 138 510 232 596 l 268 339 b 260 0 268 179 260 31 z "},"":{"ha":725,"x_min":0,"x_max":0,"o":"m 614 96 l 246 83 l 244 88 b 567 515 350 168 567 324 b 118 846 567 672 401 815 l 94 746 b 439 504 243 739 439 669 b 0 15 439 314 168 122 l 3 0 l 144 0 b 614 -10 325 -1 582 -6 z "},"":{"ha":618,"x_min":0,"x_max":0,"o":"m 110 758 b 382 615 239 758 382 713 b 139 453 382 524 240 460 l 139 406 b 401 257 232 403 401 364 b 51 69 401 121 194 65 l 58 -32 b 533 263 288 -26 533 103 b 351 440 533 357 444 415 l 351 442 b 506 635 411 468 506 551 b 125 856 506 775 269 851 z "},"":{"ha":738,"x_min":0,"x_max":0,"o":"m 558 863 l 543 863 l 0 201 l 4 188 l 449 188 l 449 146 b 443 0 449 79 444 33 l 560 0 b 557 132 558 35 557 85 l 557 188 l 686 185 l 694 281 l 558 276 z m 451 278 l 181 278 b 449 621 226 335 407 564 l 451 621 z "},"":{"ha":625,"x_min":0,"x_max":0,"o":"m 222 738 l 542 736 l 543 844 b 142 829 478 839 179 831 l 90 524 b 408 338 289 507 408 447 b 61 68 408 186 197 92 l 89 -29 b 532 356 296 14 532 179 b 200 608 532 453 469 567 z "},"":{"ha":703,"x_min":0,"x_max":0,"o":"m 444 864 b 69 257 271 747 69 490 b 149 44 69 163 99 94 b 328 -19 196 -3 257 -19 b 631 271 475 -19 631 100 b 261 519 631 419 471 528 b 514 778 322 640 447 739 z m 190 264 b 224 435 190 338 201 385 b 506 247 371 443 506 376 b 336 71 506 153 440 71 b 190 264 250 71 190 147 z "},"":{"ha":607,"x_min":0,"x_max":0,"o":"m 26 738 l 454 736 b 131 28 440 706 157 68 l 246 -24 b 596 825 272 46 574 790 l 593 831 b 21 842 474 831 114 838 z "},"":{"ha":761,"x_min":0,"x_max":0,"o":"m 382 769 b 532 625 465 769 532 724 b 375 469 532 529 464 469 b 226 622 283 469 226 546 b 382 769 226 694 271 769 z m 393 851 b 104 621 208 851 104 726 b 240 426 104 538 158 460 b 92 204 157 382 92 293 b 371 -22 92 82 183 -22 b 667 221 578 -22 667 121 b 511 438 667 318 611 397 b 653 640 611 481 653 572 b 393 851 653 767 544 851 z m 378 60 b 217 207 279 60 217 129 b 376 383 217 300 272 383 b 543 214 468 383 543 318 b 378 60 543 118 474 60 z "},"":{"ha":710,"x_min":0,"x_max":0,"o":"m 268 -35 b 636 581 440 82 636 332 b 369 850 636 735 536 850 b 72 565 217 850 72 724 b 450 318 72 417 232 307 b 197 49 382 188 263 88 z m 361 760 b 515 564 454 760 515 696 b 489 400 515 497 503 436 b 196 588 331 388 196 450 b 361 760 196 679 261 760 z "},"":{"ha":528,"x_min":0,"x_max":0,"o":"m 35 764 b 340 564 169 746 340 703 b 126 343 340 450 210 369 l 164 260 b 469 590 256 296 469 415 b 64 864 469 732 269 831 z m 125 0 l 257 0 l 257 122 l 125 122 z "},"":{"ha":986,"x_min":0,"x_max":0,"o":"m 126 -25 b 260 258 146 15 243 221 l 689 275 b 854 -24 701 254 832 21 l 967 44 b 478 868 885 168 585 700 l 475 868 b 19 36 447 822 86 154 z m 307 346 b 474 672 318 365 456 644 b 646 360 486 653 632 386 z "},"":{"ha":806,"x_min":0,"x_max":0,"o":"m 183 438 b 176 -7 183 414 183 58 l 201 -7 b 710 271 521 -7 710 113 b 503 451 710 376 596 439 l 503 454 b 671 642 639 507 671 596 b 376 822 671 707 631 803 b 176 826 326 826 243 826 b 183 568 181 801 183 603 z m 300 393 b 581 264 457 400 581 356 b 300 83 581 144 440 93 z m 300 744 b 549 626 389 746 549 732 b 300 468 549 547 438 469 z "},"":{"ha":815,"x_min":0,"x_max":0,"o":"m 760 94 b 626 81 731 88 678 81 b 207 350 325 81 207 211 b 718 742 207 556 443 708 l 699 847 b 78 331 267 771 78 531 b 614 -19 78 217 183 -19 b 772 -10 690 -19 749 -14 z "},"":{"ha":1003,"x_min":0,"x_max":0,"o":"m 183 374 b 175 -6 183 342 181 49 b 936 510 507 -6 936 132 b 488 819 936 592 900 788 b 176 826 378 828 249 826 b 183 519 182 793 183 544 z m 303 733 b 808 482 621 739 808 664 b 303 97 808 310 642 119 z "},"":{"ha":733,"x_min":0,"x_max":0,"o":"m 622 93 b 304 89 504 86 335 89 l 304 369 b 431 368 318 369 374 368 b 569 365 489 367 549 365 l 565 467 b 304 454 489 460 328 454 l 304 743 b 607 749 325 743 553 749 l 601 849 b 179 826 539 844 210 826 b 183 500 181 804 183 519 l 183 343 b 179 0 183 315 183 63 b 626 -12 204 0 585 -12 z "},"":{"ha":688,"x_min":0,"x_max":0,"o":"m 308 0 b 304 258 303 17 304 240 l 304 367 l 585 363 l 581 461 b 304 450 507 457 328 450 l 304 739 l 604 744 l 599 844 b 178 826 526 839 210 826 b 183 500 181 804 183 519 l 183 343 b 172 0 183 315 183 63 z "},"":{"ha":914,"x_min":0,"x_max":0,"o":"m 808 271 l 808 361 l 685 361 b 689 279 686 354 689 314 l 689 88 b 558 71 664 78 611 71 b 206 325 308 71 206 201 b 713 740 206 513 439 689 l 688 849 b 76 326 224 728 76 465 b 532 -19 76 131 246 -19 b 811 18 638 -19 754 -3 b 808 185 811 33 808 139 z "},"":{"ha":1143,"x_min":0,"x_max":0,"o":"m 310 0 b 304 297 308 28 304 244 l 304 369 l 839 392 l 839 272 b 832 0 839 250 836 40 l 965 0 b 960 333 963 22 960 318 l 960 451 b 969 826 960 479 967 799 l 835 826 b 839 568 836 800 839 588 l 839 479 l 304 457 l 304 543 b 311 826 304 564 308 806 l 176 826 b 183 486 179 799 183 507 l 183 358 b 179 0 183 328 182 51 z "},"":{"ha":489,"x_min":0,"x_max":0,"o":"m 304 485 b 311 826 304 626 308 806 l 176 826 b 183 486 179 799 183 507 l 183 358 b 179 0 183 328 182 51 l 310 0 b 304 357 308 28 304 239 z "},"":{"ha":507,"x_min":0,"x_max":0,"o":"m 350 543 b 357 826 350 685 354 806 l 224 826 b 229 546 225 799 229 565 l 229 361 b 35 10 229 154 154 60 l 96 -83 b 350 358 225 -29 350 101 z "},"":{"ha":914,"x_min":0,"x_max":0,"o":"m 310 -12 b 303 367 307 11 303 275 l 303 493 b 310 839 303 596 308 819 l 176 839 b 183 482 176 811 183 585 l 183 357 b 176 -12 183 222 179 22 z m 843 83 b 457 443 793 128 496 397 b 797 732 525 506 747 693 l 724 822 b 313 435 694 792 333 454 b 757 -11 367 376 742 6 z "},"":{"ha":683,"x_min":0,"x_max":0,"o":"m 178 826 b 183 500 181 804 183 519 l 183 343 b 172 0 183 315 183 63 b 619 -12 204 0 579 -12 l 619 99 b 304 93 485 93 335 93 l 304 419 b 315 826 304 568 310 800 z "},"":{"ha":1306,"x_min":0,"x_max":0,"o":"m 156 -31 b 344 590 168 15 322 517 b 618 75 400 483 547 207 l 621 75 b 935 588 675 161 894 522 b 1153 -31 951 542 1124 58 l 1268 13 b 961 810 1217 138 999 714 l 957 810 b 635 272 935 774 675 339 b 332 846 597 340 369 771 l 326 846 b 42 6 319 817 63 56 z "},"":{"ha":1115,"x_min":0,"x_max":0,"o":"m 268 -8 b 274 631 267 31 276 608 l 276 631 b 936 -25 292 614 900 7 l 942 -25 b 976 826 947 272 971 756 l 853 832 b 849 214 851 793 849 247 b 194 874 810 251 231 835 l 188 874 b 140 0 182 751 147 89 z "},"":{"ha":1075,"x_min":0,"x_max":0,"o":"m 504 -19 b 999 443 868 -19 999 258 b 575 846 999 697 819 846 b 76 371 269 846 76 633 b 504 -19 76 163 228 -19 z m 515 72 b 204 389 322 72 204 213 b 557 754 204 590 336 754 b 869 438 722 754 869 649 b 515 72 869 204 706 72 z "},"":{"ha":778,"x_min":0,"x_max":0,"o":"m 304 0 b 303 178 303 25 303 154 l 303 244 b 704 585 539 286 704 415 b 431 813 704 710 600 786 b 181 826 351 825 233 826 b 183 549 181 808 183 576 l 183 419 b 178 0 183 335 181 51 z m 303 733 b 576 571 549 731 576 614 b 303 336 576 435 453 365 z "},"":{"ha":1074,"x_min":0,"x_max":0,"o":"m 1021 -1 b 700 28 933 4 811 17 l 700 32 b 997 457 917 110 997 304 b 572 846 997 699 817 846 b 76 382 282 846 76 636 b 197 94 76 256 126 163 b 500 -18 304 -7 469 -18 b 563 -29 515 -18 532 -22 b 999 -114 701 -61 857 -89 z m 204 392 b 565 754 204 540 292 754 b 869 446 708 754 869 657 b 515 74 869 225 719 74 b 204 392 328 74 204 211 z "},"":{"ha":856,"x_min":0,"x_max":0,"o":"m 304 736 b 583 608 540 735 583 664 b 394 394 583 490 457 426 b 732 -22 432 344 718 -6 l 828 63 b 536 385 792 97 568 342 b 715 626 640 446 715 529 b 451 817 715 729 618 797 b 176 826 346 829 236 826 b 183 524 181 804 183 560 l 183 428 b 181 0 183 403 185 28 l 311 0 b 304 361 308 18 304 317 z "},"":{"ha":667,"x_min":0,"x_max":0,"o":"m 178 -22 b 565 274 425 28 565 151 b 386 463 565 372 482 410 b 242 589 332 493 242 525 b 513 751 242 692 431 739 l 486 849 b 114 569 307 817 114 701 b 301 381 114 483 193 433 b 436 246 393 336 436 307 b 146 75 436 151 274 100 z "},"":{"ha":785,"x_min":0,"x_max":0,"o":"m 469 0 b 454 544 467 24 454 304 l 454 728 b 792 717 556 728 789 722 l 792 829 b 453 815 751 819 476 815 l 342 815 b -7 829 328 815 29 819 l -7 717 b 333 728 11 722 190 728 l 333 563 b 325 0 333 375 332 31 z "},"":{"ha":1028,"x_min":0,"x_max":0,"o":"m 250 626 b 256 821 250 735 254 790 l 131 821 b 129 653 131 793 129 707 l 129 589 b 213 122 129 303 154 210 b 501 -19 301 -10 433 -19 b 800 107 636 -19 725 21 b 911 586 894 217 911 360 l 911 642 b 910 839 911 735 910 813 l 783 839 b 790 643 785 794 790 725 l 790 603 b 731 189 790 417 789 275 b 518 76 689 126 626 76 b 308 190 428 76 357 111 b 250 547 261 268 250 356 z "},"":{"ha":910,"x_min":0,"x_max":0,"o":"m 800 847 b 453 181 785 808 474 210 b 128 847 428 218 147 793 l 13 789 b 440 -39 46 735 417 0 l 443 -39 b 911 789 488 43 871 728 z "},"":{"ha":1313,"x_min":0,"x_max":0,"o":"m 1192 832 b 954 213 1171 765 975 271 b 667 685 889 325 744 551 l 664 685 b 381 188 575 526 415 251 b 161 842 360 250 201 706 l 42 794 b 351 -42 90 660 313 53 l 357 -42 b 660 478 410 46 610 389 b 956 -1 693 419 908 82 l 961 -1 b 1308 785 996 67 1297 754 z "},"":{"ha":915,"x_min":0,"x_max":0,"o":"m 136 -25 b 450 353 158 -3 436 332 b 768 -24 481 318 735 15 l 864 61 b 526 426 815 111 564 385 b 844 749 557 465 804 710 l 760 832 b 463 499 724 790 506 544 b 186 833 371 604 219 790 l 94 746 b 388 424 143 692 336 481 b 49 57 349 379 82 83 z "},"":{"ha":813,"x_min":0,"x_max":0,"o":"m 474 0 b 467 146 471 24 467 129 l 467 251 b 610 593 467 378 524 501 b 833 740 681 669 767 719 l 797 842 b 569 693 732 821 625 751 b 417 454 501 621 454 553 l 415 454 b 250 708 386 553 310 644 b 68 839 218 743 135 806 l 17 738 b 188 615 69 717 136 668 b 346 251 274 526 346 406 l 346 168 b 340 0 346 153 340 28 z "},"":{"ha":835,"x_min":0,"x_max":0,"o":"m 107 747 b 597 742 131 747 549 742 b 42 3 569 704 94 58 l 42 0 b 753 -12 101 0 726 -12 l 757 92 b 243 83 728 88 311 83 b 789 818 254 99 743 758 l 789 821 b 113 849 769 821 183 842 z "},"":{"ha":379,"x_min":0,"x_max":0,"o":"m 268 826 l 136 826 l 136 704 l 268 704 z m 164 563 b 101 -14 149 401 114 99 l 246 -19 b 240 571 240 122 240 406 z "},"":{"ha":621,"x_min":0,"x_max":0,"o":"m 288 -19 l 385 -19 l 381 154 b 460 150 401 153 429 150 b 561 158 490 150 529 153 l 553 254 b 458 244 525 249 494 244 b 210 408 329 244 210 299 b 535 651 210 518 308 631 l 521 754 b 381 717 469 744 418 733 l 385 889 l 288 889 l 290 679 b 85 393 171 619 85 514 b 290 174 85 340 136 207 z "},"":{"ha":690,"x_min":0,"x_max":0,"o":"m 311 503 l 311 529 b 322 826 311 608 317 800 l 185 826 b 190 497 188 804 190 517 l 190 458 b 36 399 119 429 69 411 l 63 322 b 190 374 97 338 138 354 l 190 340 b 179 0 190 313 190 63 b 626 -12 211 0 586 -12 l 626 99 b 311 93 492 93 342 93 l 311 419 b 513 494 394 451 472 479 l 485 574 b 311 503 456 560 385 532 z "},"":{"ha":667,"x_min":0,"x_max":0,"o":"m 178 -22 b 565 274 425 28 565 151 b 386 463 565 372 482 410 b 242 589 332 493 242 525 b 513 751 242 692 431 739 l 486 849 b 114 569 307 817 114 701 b 301 381 114 483 193 433 b 436 246 393 336 436 307 b 146 75 436 151 274 100 z m 351 943 l 536 1072 l 485 1135 l 353 1026 l 207 1135 l 154 1072 z "},"":{"ha":835,"x_min":0,"x_max":0,"o":"m 107 747 b 597 742 131 747 549 742 b 42 3 569 704 94 58 l 42 0 b 753 -12 101 0 726 -12 l 757 92 b 243 83 728 88 311 83 b 789 818 254 99 743 758 l 789 821 b 113 849 769 821 183 842 z m 429 943 l 614 1072 l 563 1135 l 431 1026 l 285 1135 l 232 1072 z "},"":{"ha":528,"x_min":0,"x_max":0,"o":"m 493 63 b 188 263 358 81 188 124 b 401 483 188 376 318 457 l 364 567 b 58 236 272 531 58 411 b 464 -37 58 94 258 -4 z m 403 826 l 271 826 l 271 704 l 403 704 z "},"⁴":{"ha":569,"x_min":0,"x_max":0,"o":"m 510 590 l 415 588 l 415 994 l 407 994 l 19 522 l 21 513 l 335 513 l 335 493 b 331 381 335 449 332 413 l 415 381 b 414 485 414 414 414 453 l 414 513 l 503 510 z m 336 586 l 153 586 b 336 817 190 626 297 756 z "},"":{"ha":986,"x_min":0,"x_max":0,"o":"m 126 -25 b 260 258 146 15 243 221 l 689 275 b 854 -24 701 254 832 21 l 967 44 b 478 868 885 168 585 700 l 475 868 b 19 36 447 822 86 154 z m 307 346 b 474 672 318 365 456 644 b 646 360 486 653 632 386 z m 390 1140 l 329 1047 l 539 939 l 569 985 z "},"":{"ha":986,"x_min":0,"x_max":0,"o":"m 126 -25 b 260 258 146 15 243 221 l 689 275 b 854 -24 701 254 832 21 l 967 44 b 478 868 885 168 585 700 l 475 868 b 19 36 447 822 86 154 z m 307 346 b 474 672 318 365 456 644 b 646 360 486 653 632 386 z m 390 985 l 424 938 l 633 1049 l 571 1140 z "},"":{"ha":986,"x_min":0,"x_max":0,"o":"m 126 -25 b 260 258 146 15 243 221 l 689 275 b 854 -24 701 254 832 21 l 967 44 b 478 868 885 168 585 700 l 475 868 b 19 36 447 822 86 154 z m 307 346 b 474 672 318 365 456 644 b 646 360 486 653 632 386 z m 292 1006 l 339 943 l 485 1054 l 619 943 l 674 1006 l 489 1138 z "},"":{"ha":986,"x_min":0,"x_max":0,"o":"m 126 -25 b 260 258 146 15 243 221 l 689 275 b 854 -24 701 254 832 21 l 967 44 b 478 868 885 168 585 700 l 475 868 b 19 36 447 822 86 154 z m 307 346 b 474 672 318 365 456 644 b 646 360 486 653 632 386 z m 325 951 b 401 1008 344 981 369 1008 b 479 985 429 1008 453 999 b 576 956 508 971 538 954 b 697 1053 619 956 663 1001 l 643 1096 b 567 1039 624 1067 597 1040 b 497 1061 539 1039 519 1049 b 392 1092 468 1075 438 1092 b 271 989 349 1092 306 1046 z "},"":{"ha":986,"x_min":0,"x_max":0,"o":"m 126 -25 b 260 258 146 15 243 221 l 689 275 b 854 -24 701 254 832 21 l 967 44 b 478 868 885 168 585 700 l 475 868 b 19 36 447 822 86 154 z m 307 346 b 474 672 318 365 456 644 b 646 360 486 653 632 386 z m 339 956 l 424 1040 l 339 1124 l 256 1040 z m 631 956 l 714 1040 l 631 1124 l 546 1040 z "},"":{"ha":986,"x_min":0,"x_max":0,"o":"m 126 -25 b 260 258 146 15 243 221 l 689 275 b 854 -24 701 254 832 21 l 967 44 b 478 868 885 168 585 700 l 475 868 b 19 36 447 822 86 154 z m 307 346 b 474 672 318 365 456 644 b 646 360 486 653 632 386 z m 472 943 b 617 1063 547 943 617 988 b 483 1161 617 1115 572 1161 b 344 1044 413 1161 347 1115 b 472 943 344 983 406 943 z m 479 993 b 418 1050 446 993 418 1015 b 482 1110 418 1090 453 1110 b 544 1056 519 1110 544 1086 b 479 993 544 1013 513 993 z "},"":{"ha":1154,"x_min":0,"x_max":0,"o":"m 1042 92 b 706 88 939 85 731 88 l 706 335 b 989 332 726 335 961 332 l 985 431 b 706 417 924 424 724 417 l 706 744 b 1026 750 721 744 986 750 l 1022 849 b 563 826 982 844 590 826 b -28 47 469 710 38 125 l 71 -24 b 299 318 110 38 275 283 l 590 325 l 590 236 b 583 0 590 158 585 28 b 1047 -12 608 0 1001 -12 z m 358 401 b 585 722 381 433 494 597 l 590 722 l 590 410 z "},"":{"ha":815,"x_min":0,"x_max":0,"o":"m 493 -14 b 614 -19 531 -17 578 -19 b 772 -10 690 -19 749 -14 l 760 94 b 626 81 731 88 678 81 b 207 350 325 81 207 211 b 718 742 207 556 443 708 l 699 847 b 78 331 267 771 78 531 b 425 -1 78 217 171 51 l 358 -100 b 444 -186 400 -115 444 -151 b 315 -264 444 -235 378 -261 l 329 -321 b 544 -182 442 -310 544 -250 b 446 -83 544 -136 493 -97 z "},"":{"ha":733,"x_min":0,"x_max":0,"o":"m 622 93 b 304 89 504 86 335 89 l 304 369 b 431 368 318 369 374 368 b 569 365 489 367 549 365 l 565 467 b 304 454 489 460 328 454 l 304 743 b 607 749 325 743 553 749 l 601 849 b 179 826 539 844 210 826 b 183 500 181 804 183 519 l 183 343 b 179 0 183 315 183 63 b 626 -12 204 0 585 -12 z m 299 1140 l 238 1047 l 447 939 l 478 985 z "},"":{"ha":733,"x_min":0,"x_max":0,"o":"m 622 93 b 304 89 504 86 335 89 l 304 369 b 431 368 318 369 374 368 b 569 365 489 367 549 365 l 565 467 b 304 454 489 460 328 454 l 304 743 b 607 749 325 743 553 749 l 601 849 b 179 826 539 844 210 826 b 183 500 181 804 183 519 l 183 343 b 179 0 183 315 183 63 b 626 -12 204 0 585 -12 z m 292 985 l 325 938 l 535 1049 l 472 1140 z "},"":{"ha":733,"x_min":0,"x_max":0,"o":"m 622 93 b 304 89 504 86 335 89 l 304 369 b 431 368 318 369 374 368 b 569 365 489 367 549 365 l 565 467 b 304 454 489 460 328 454 l 304 743 b 607 749 325 743 553 749 l 601 849 b 179 826 539 844 210 826 b 183 500 181 804 183 519 l 183 343 b 179 0 183 315 183 63 b 626 -12 204 0 585 -12 z m 193 1006 l 240 943 l 386 1054 l 521 943 l 575 1006 l 390 1138 z "},"":{"ha":733,"x_min":0,"x_max":0,"o":"m 622 93 b 304 89 504 86 335 89 l 304 369 b 431 368 318 369 374 368 b 569 365 489 367 549 365 l 565 467 b 304 454 489 460 328 454 l 304 743 b 607 749 325 743 553 749 l 601 849 b 179 826 539 844 210 826 b 183 500 181 804 183 519 l 183 343 b 179 0 183 315 183 63 b 626 -12 204 0 585 -12 z m 226 956 l 311 1040 l 226 1124 l 143 1040 z m 518 956 l 601 1040 l 518 1124 l 433 1040 z "},"":{"ha":489,"x_min":0,"x_max":0,"o":"m 304 485 b 311 826 304 626 308 806 l 176 826 b 183 486 179 799 183 507 l 183 358 b 179 0 183 328 182 51 l 310 0 b 304 357 308 28 304 239 z m 149 1140 l 88 1047 l 297 939 l 328 985 z "},"":{"ha":489,"x_min":0,"x_max":0,"o":"m 304 485 b 311 826 304 626 308 806 l 176 826 b 183 486 179 799 183 507 l 183 358 b 179 0 183 328 182 51 l 310 0 b 304 357 308 28 304 239 z m 156 985 l 189 938 l 399 1049 l 336 1140 z "},"":{"ha":489,"x_min":0,"x_max":0,"o":"m 304 485 b 311 826 304 626 308 806 l 176 826 b 183 486 179 799 183 507 l 183 358 b 179 0 183 328 182 51 l 310 0 b 304 357 308 28 304 239 z m 57 1006 l 104 943 l 250 1054 l 385 943 l 439 1006 l 254 1138 z "},"":{"ha":489,"x_min":0,"x_max":0,"o":"m 304 485 b 311 826 304 626 308 806 l 176 826 b 183 486 179 799 183 507 l 183 358 b 179 0 183 328 182 51 l 310 0 b 304 357 308 28 304 239 z m 90 956 l 175 1040 l 90 1124 l 7 1040 z m 382 956 l 465 1040 l 382 1124 l 297 1040 z "},"":{"ha":1010,"x_min":0,"x_max":0,"o":"m 190 374 l 190 339 b 182 -6 190 307 188 49 b 943 504 532 -6 943 143 b 496 819 943 592 913 782 b 183 826 386 829 256 826 b 190 519 189 793 190 544 l 190 456 b 60 450 126 453 85 450 l 64 367 b 190 374 89 368 131 371 z m 310 381 b 518 386 379 383 456 385 l 515 472 b 310 461 458 469 381 464 l 310 733 b 815 479 628 738 815 668 b 310 97 815 299 649 125 z "},"":{"ha":1115,"x_min":0,"x_max":0,"o":"m 268 -8 b 274 631 267 31 276 608 l 276 631 b 936 -25 292 614 900 7 l 942 -25 b 976 826 947 272 971 756 l 853 832 b 849 214 851 793 849 247 b 194 874 810 251 231 835 l 188 874 b 140 0 182 751 147 89 z m 411 951 b 488 1008 431 981 456 1008 b 565 985 515 1008 539 999 b 663 956 594 971 624 954 b 783 1053 706 956 749 1001 l 729 1096 b 653 1039 710 1067 683 1040 b 583 1061 625 1039 606 1049 b 478 1092 554 1075 524 1092 b 357 989 435 1092 392 1046 z "},"":{"ha":1075,"x_min":0,"x_max":0,"o":"m 504 -19 b 999 443 868 -19 999 258 b 575 846 999 697 819 846 b 76 371 269 846 76 633 b 504 -19 76 163 228 -19 z m 515 72 b 204 389 322 72 204 213 b 557 754 204 590 336 754 b 869 438 722 754 869 649 b 515 72 869 204 706 72 z m 435 1140 l 374 1047 l 583 939 l 614 985 z "},"":{"ha":1075,"x_min":0,"x_max":0,"o":"m 504 -19 b 999 443 868 -19 999 258 b 575 846 999 697 819 846 b 76 371 269 846 76 633 b 504 -19 76 163 228 -19 z m 515 72 b 204 389 322 72 204 213 b 557 754 204 590 336 754 b 869 438 722 754 869 649 b 515 72 869 204 706 72 z m 463 985 l 496 938 l 706 1049 l 643 1140 z "},"":{"ha":1075,"x_min":0,"x_max":0,"o":"m 504 -19 b 999 443 868 -19 999 258 b 575 846 999 697 819 846 b 76 371 269 846 76 633 b 504 -19 76 163 228 -19 z m 515 72 b 204 389 322 72 204 213 b 557 754 204 590 336 754 b 869 438 722 754 869 649 b 515 72 869 204 706 72 z m 350 1006 l 397 943 l 543 1054 l 678 943 l 732 1006 l 547 1138 z "},"":{"ha":1075,"x_min":0,"x_max":0,"o":"m 504 -19 b 999 443 868 -19 999 258 b 575 846 999 697 819 846 b 76 371 269 846 76 633 b 504 -19 76 163 228 -19 z m 515 72 b 204 389 322 72 204 213 b 557 754 204 590 336 754 b 869 438 722 754 869 649 b 515 72 869 204 706 72 z m 390 951 b 467 1008 410 981 435 1008 b 544 985 494 1008 518 999 b 642 956 574 971 603 954 b 763 1053 685 956 728 1001 l 708 1096 b 632 1039 689 1067 663 1040 b 563 1061 604 1039 585 1049 b 457 1092 533 1075 503 1092 b 336 989 414 1092 371 1046 z "},"":{"ha":1075,"x_min":0,"x_max":0,"o":"m 504 -19 b 999 443 868 -19 999 258 b 575 846 999 697 819 846 b 76 371 269 846 76 633 b 504 -19 76 163 228 -19 z m 515 72 b 204 389 322 72 204 213 b 557 754 204 590 336 754 b 869 438 722 754 869 649 b 515 72 869 204 706 72 z m 397 956 l 482 1040 l 397 1124 l 314 1040 z m 689 956 l 772 1040 l 689 1124 l 604 1040 z "},"":{"ha":1443,"x_min":0,"x_max":0,"o":"m 1274 465 b 988 453 1213 458 1013 453 l 988 744 l 1315 750 l 1311 849 b 868 826 1271 844 903 826 l 872 719 l 869 719 b 575 846 799 810 685 846 b 76 374 257 846 76 615 b 489 -19 76 175 228 -19 b 868 153 658 -19 790 36 l 872 153 b 868 0 871 75 869 24 b 1336 -12 897 0 1290 -12 l 1331 93 b 988 89 1228 86 1019 89 l 988 371 l 1278 367 z m 517 72 b 203 390 313 72 203 231 b 560 754 203 542 297 754 b 875 471 728 754 875 640 l 875 388 b 517 72 875 214 701 72 z "},"":{"ha":1075,"x_min":0,"x_max":0,"o":"m 511 -19 b 996 443 871 -19 996 264 b 907 706 996 553 964 643 b 1019 810 947 746 981 775 l 954 878 b 843 764 922 844 881 801 b 579 846 772 818 681 846 b 78 371 274 846 78 633 b 167 122 78 278 108 186 b 56 32 131 90 92 60 l 119 -39 b 228 61 157 -4 190 29 b 511 -19 296 10 388 -19 z m 517 69 b 308 138 433 69 364 89 b 829 628 486 303 650 461 b 872 438 868 574 872 508 b 517 69 872 200 694 69 z m 201 389 b 561 757 201 589 340 757 b 768 693 640 757 710 740 b 249 201 596 528 431 368 b 201 389 213 250 201 319 z "},"":{"ha":1028,"x_min":0,"x_max":0,"o":"m 250 626 b 256 821 250 735 254 790 l 131 821 b 129 653 131 793 129 707 l 129 589 b 213 122 129 303 154 210 b 501 -19 301 -10 433 -19 b 800 107 636 -19 725 21 b 911 586 894 217 911 360 l 911 642 b 910 839 911 735 910 813 l 783 839 b 790 643 785 794 790 725 l 790 603 b 731 189 790 417 789 275 b 518 76 689 126 626 76 b 308 190 428 76 357 111 b 250 547 261 268 250 356 z m 425 1140 l 364 1047 l 574 939 l 604 985 z "},"":{"ha":1028,"x_min":0,"x_max":0,"o":"m 250 626 b 256 821 250 735 254 790 l 131 821 b 129 653 131 793 129 707 l 129 589 b 213 122 129 303 154 210 b 501 -19 301 -10 433 -19 b 800 107 636 -19 725 21 b 911 586 894 217 911 360 l 911 642 b 910 839 911 735 910 813 l 783 839 b 790 643 785 794 790 725 l 790 603 b 731 189 790 417 789 275 b 518 76 689 126 626 76 b 308 190 428 76 357 111 b 250 547 261 268 250 356 z m 439 985 l 472 938 l 682 1049 l 619 1140 z "},"":{"ha":1028,"x_min":0,"x_max":0,"o":"m 250 626 b 256 821 250 735 254 790 l 131 821 b 129 653 131 793 129 707 l 129 589 b 213 122 129 303 154 210 b 501 -19 301 -10 433 -19 b 800 107 636 -19 725 21 b 911 586 894 217 911 360 l 911 642 b 910 839 911 735 910 813 l 783 839 b 790 643 785 794 790 725 l 790 603 b 731 189 790 417 789 275 b 518 76 689 126 626 76 b 308 190 428 76 357 111 b 250 547 261 268 250 356 z m 326 1006 l 374 943 l 519 1054 l 654 943 l 708 1006 l 524 1138 z "},"":{"ha":1028,"x_min":0,"x_max":0,"o":"m 250 626 b 256 821 250 735 254 790 l 131 821 b 129 653 131 793 129 707 l 129 589 b 213 122 129 303 154 210 b 501 -19 301 -10 433 -19 b 800 107 636 -19 725 21 b 911 586 894 217 911 360 l 911 642 b 910 839 911 735 910 813 l 783 839 b 790 643 785 794 790 725 l 790 603 b 731 189 790 417 789 275 b 518 76 689 126 626 76 b 308 190 428 76 357 111 b 250 547 261 268 250 356 z m 374 956 l 458 1040 l 374 1124 l 290 1040 z m 665 956 l 749 1040 l 665 1124 l 581 1040 z "},"":{"ha":813,"x_min":0,"x_max":0,"o":"m 474 0 b 467 146 471 24 467 129 l 467 251 b 610 593 467 378 524 501 b 833 740 681 669 767 719 l 797 842 b 569 693 732 821 625 751 b 417 454 501 621 454 553 l 415 454 b 250 708 386 553 310 644 b 68 839 218 743 135 806 l 17 738 b 188 615 69 717 136 668 b 346 251 274 526 346 406 l 346 168 b 340 0 346 153 340 28 z m 332 985 l 365 938 l 575 1049 l 513 1140 z "},"":{"ha":783,"x_min":0,"x_max":0,"o":"m 303 629 b 574 461 542 628 574 517 b 303 244 574 344 465 257 z m 304 718 b 308 865 304 765 306 814 l 181 865 b 183 558 181 818 183 586 l 183 419 b 178 -39 183 335 181 42 l 304 -39 b 303 135 303 15 303 111 l 303 156 b 704 476 554 176 704 317 b 399 714 704 607 563 696 b 304 718 365 718 336 718 z "},"":{"ha":813,"x_min":0,"x_max":0,"o":"m 474 0 b 467 146 471 24 467 129 l 467 251 b 610 593 467 378 524 501 b 833 740 681 669 767 719 l 797 842 b 569 693 732 821 625 751 b 417 454 501 621 454 553 l 415 454 b 250 708 386 553 310 644 b 68 839 218 743 135 806 l 17 738 b 188 615 69 717 136 668 b 346 251 274 526 346 406 l 346 168 b 340 0 346 153 340 28 z m 267 956 l 351 1040 l 267 1124 l 183 1040 z m 558 956 l 642 1040 l 558 1124 l 474 1040 z "},"":{"ha":1181,"x_min":0,"x_max":0,"o":"m 504 -314 l 546 -333 l 675 -119 l 572 -74 z "},"Ă":{"ha":1111,"x_min":0,"x_max":0,"o":"m 142 -26 b 296 315 165 21 279 289 l 778 335 b 968 -25 793 313 940 28 l 1086 53 b 540 1021 992 197 663 824 l 538 1021 b 28 46 504 968 104 179 z m 343 407 b 536 800 356 429 515 769 b 736 424 550 778 721 454 z m 715 1219 b 565 1143 679 1178 631 1143 b 400 1219 489 1143 435 1182 l 347 1157 b 554 1056 385 1110 483 1056 b 764 1160 629 1056 718 1107 z "},"Ā":{"ha":1111,"x_min":0,"x_max":0,"o":"m 142 -26 b 296 315 165 21 279 289 l 778 335 b 968 -25 793 313 940 28 l 1086 53 b 540 1021 992 197 663 824 l 538 1021 b 28 46 504 968 104 179 z m 343 407 b 536 800 356 429 515 769 b 736 424 550 778 721 454 z m 364 1069 l 742 1063 l 747 1151 l 375 1147 z "},"Ą":{"ha":1111,"x_min":0,"x_max":0,"o":"m 343 407 b 536 800 356 429 515 769 b 736 424 550 778 721 454 z m 142 -26 b 296 315 165 21 279 289 l 778 335 b 950 10 792 315 913 82 b 769 -161 829 -54 769 -106 b 979 -307 769 -233 876 -289 l 997 -249 b 874 -144 911 -232 874 -182 b 992 -10 874 -110 919 -58 l 1086 53 b 540 1021 992 197 663 824 l 538 1021 b 28 46 504 968 104 179 z "},"Ć":{"ha":917,"x_min":0,"x_max":0,"o":"m 850 103 b 689 83 803 92 744 83 b 224 413 357 83 224 243 b 804 878 224 651 486 842 l 783 994 b 83 389 293 907 83 617 b 675 -22 83 261 201 -22 b 864 -8 758 -22 822 -17 z m 536 1093 l 572 1043 l 793 1160 l 726 1257 z "},"Č":{"ha":917,"x_min":0,"x_max":0,"o":"m 850 103 b 689 83 803 92 744 83 b 224 413 357 83 224 243 b 804 878 224 651 486 842 l 783 994 b 83 389 293 907 83 617 b 675 -22 83 261 201 -22 b 864 -8 758 -22 822 -17 z m 632 1049 l 826 1185 l 772 1251 l 633 1138 l 481 1251 l 425 1185 z "},"Ď":{"ha":1147,"x_min":0,"x_max":0,"o":"m 208 439 b 200 -7 208 401 206 57 b 1064 603 517 -7 1064 172 b 556 958 1064 700 1008 901 b 201 972 435 974 281 972 b 208 611 207 933 208 640 z m 333 868 b 928 567 693 872 928 778 b 333 115 928 372 713 149 z m 525 1049 l 719 1185 l 665 1251 l 526 1138 l 374 1251 l 318 1185 z "},"Đ":{"ha":1147,"x_min":0,"x_max":0,"o":"m 68 431 b 208 439 96 433 142 436 b 200 -7 208 401 206 57 b 1064 603 517 -7 1064 172 b 556 958 1064 699 1008 901 b 201 972 435 974 281 972 b 208 611 207 933 208 640 l 208 532 b 64 526 138 529 92 526 z m 550 553 b 333 539 494 549 411 542 l 333 868 b 928 567 692 872 928 771 b 333 115 928 386 713 147 l 333 446 b 553 454 410 450 492 453 z "},"Ě":{"ha":797,"x_min":0,"x_max":0,"o":"m 667 106 b 333 101 553 97 367 101 l 333 440 b 608 435 361 440 578 435 l 604 544 b 333 529 536 536 358 529 l 333 882 b 650 889 356 882 606 889 l 644 999 b 204 972 600 993 238 972 b 208 589 206 946 208 611 l 208 403 b 204 0 208 371 208 74 b 672 -14 232 0 650 -14 z m 447 1049 l 642 1185 l 588 1251 l 449 1138 l 296 1251 l 240 1185 z "},"Ė":{"ha":797,"x_min":0,"x_max":0,"o":"m 667 106 b 333 101 553 97 367 101 l 333 440 b 608 435 361 440 578 435 l 604 544 b 333 529 536 536 358 529 l 333 882 b 650 889 356 882 606 889 l 644 999 b 204 972 600 993 238 972 b 208 589 206 946 208 611 l 208 403 b 204 0 208 371 208 74 b 672 -14 232 0 650 -14 z m 440 1063 l 539 1161 l 440 1258 l 342 1161 z "},"Ē":{"ha":797,"x_min":0,"x_max":0,"o":"m 667 106 b 333 101 553 97 367 101 l 333 440 b 608 435 361 440 578 435 l 604 544 b 333 529 536 536 358 529 l 333 882 b 650 889 356 882 606 889 l 644 999 b 204 972 600 993 238 972 b 208 589 206 946 208 611 l 208 403 b 204 0 208 371 208 74 b 672 -14 232 0 650 -14 z m 235 1069 l 613 1063 l 618 1151 l 246 1147 z "},"Ę":{"ha":797,"x_min":0,"x_max":0,"o":"m 667 106 b 333 101 553 97 367 101 l 333 440 b 608 435 361 440 578 435 l 604 544 b 333 529 536 536 358 529 l 333 882 b 650 889 356 882 606 889 l 644 999 b 204 972 600 993 238 972 b 208 589 206 946 208 611 l 208 403 b 204 0 208 371 208 74 b 567 -11 226 0 482 -8 b 428 -161 493 -50 428 -104 b 638 -307 428 -233 535 -289 l 656 -249 b 532 -144 569 -232 532 -182 b 644 -12 532 -111 574 -57 b 672 -14 668 -14 671 -14 z "},"Ğ":{"ha":1028,"x_min":0,"x_max":0,"o":"m 903 318 b 904 425 903 360 903 392 l 774 425 b 778 329 775 417 778 369 l 778 97 b 629 76 744 86 688 76 b 221 382 354 76 221 238 b 799 878 221 603 482 817 l 771 999 b 83 383 246 857 83 540 b 600 -22 83 154 285 -22 b 907 22 715 -22 844 -1 b 903 217 907 40 903 164 z m 785 1219 b 635 1143 749 1178 700 1143 b 469 1219 558 1143 504 1182 l 417 1157 b 624 1056 454 1110 553 1056 b 833 1160 699 1056 788 1107 z "},"Ģ":{"ha":1028,"x_min":0,"x_max":0,"o":"m 903 318 b 904 425 903 360 903 392 l 774 425 b 778 329 775 417 778 369 l 778 97 b 629 76 744 86 688 76 b 221 382 354 76 221 238 b 799 878 221 603 482 817 l 771 999 b 83 383 246 857 83 540 b 600 -22 83 154 285 -22 b 907 22 715 -22 844 -1 b 903 217 907 40 903 164 z m 428 -314 l 469 -333 l 599 -119 l 496 -74 z "},"Ī":{"ha":542,"x_min":0,"x_max":0,"o":"m 333 569 b 340 972 333 736 338 947 l 201 972 b 208 572 204 939 208 596 l 208 422 b 204 0 208 386 207 61 l 339 0 b 333 419 338 32 333 281 z m 79 1069 l 457 1063 l 463 1151 l 90 1147 z "},"Į":{"ha":542,"x_min":0,"x_max":0,"o":"m 311 -249 b 188 -144 225 -232 188 -182 b 317 0 188 -110 232 -54 l 339 0 b 333 419 338 32 333 281 l 333 569 b 340 972 333 736 338 947 l 201 972 b 208 572 204 939 208 596 l 208 422 b 204 0 208 386 207 61 l 238 0 b 83 -161 147 -50 83 -104 b 293 -307 83 -233 190 -289 z "},"Ķ":{"ha":1003,"x_min":0,"x_max":0,"o":"m 340 -14 b 333 431 338 13 333 324 l 333 581 b 340 986 333 701 339 964 l 201 986 b 208 567 201 954 208 688 l 208 419 b 201 -14 208 261 204 26 z m 926 92 b 499 521 874 143 542 468 b 876 869 572 594 824 819 l 796 961 b 343 511 764 925 367 533 b 835 -6 403 444 821 14 z m 415 -286 l 457 -306 l 586 -92 l 483 -46 z "},"Ĺ":{"ha":740,"x_min":0,"x_max":0,"o":"m 203 972 b 208 589 206 946 208 611 l 208 404 b 197 0 208 371 208 74 b 664 -14 232 0 644 -14 l 664 106 b 333 100 531 100 367 100 l 333 493 b 344 972 333 668 339 942 z m 194 1093 l 231 1043 l 451 1160 l 385 1257 z "},"Ľ":{"ha":740,"x_min":0,"x_max":0,"o":"m 203 972 b 208 589 206 946 208 611 l 208 404 b 197 0 208 371 208 74 b 664 -14 232 0 644 -14 l 664 106 b 333 100 531 100 367 100 l 333 493 b 344 972 333 668 339 942 z m 478 732 l 519 713 l 649 926 l 546 972 z "},"Ļ":{"ha":740,"x_min":0,"x_max":0,"o":"m 203 972 b 208 589 206 946 208 611 l 208 404 b 197 0 208 371 208 74 b 664 -14 232 0 644 -14 l 664 106 b 333 100 531 100 367 100 l 333 493 b 344 972 333 668 339 942 z m 311 -314 l 353 -333 l 482 -119 l 379 -74 z "},"Ń":{"ha":1271,"x_min":0,"x_max":0,"o":"m 293 -10 b 303 764 292 36 303 715 l 306 764 b 1071 -29 331 729 1033 8 l 1074 -29 b 1111 972 1079 321 1106 889 l 982 979 b 972 240 981 933 972 279 b 217 1028 928 285 256 983 l 214 1028 b 163 0 207 885 169 104 z m 575 1065 l 611 1015 l 832 1132 l 765 1229 z "},"Ň":{"ha":1271,"x_min":0,"x_max":0,"o":"m 293 -10 b 303 764 292 36 303 715 l 306 764 b 1071 -29 331 729 1033 8 l 1074 -29 b 1111 972 1079 321 1106 889 l 982 979 b 972 240 981 933 972 279 b 217 1028 928 285 256 983 l 214 1028 b 163 0 207 885 169 104 z m 643 1021 l 838 1157 l 783 1224 l 644 1110 l 492 1224 l 436 1157 z "},"Ņ":{"ha":1271,"x_min":0,"x_max":0,"o":"m 293 -10 b 303 764 292 36 303 715 l 306 764 b 1071 -29 331 729 1033 8 l 1074 -29 b 1111 972 1079 321 1106 889 l 982 979 b 972 240 981 933 972 279 b 217 1028 928 285 256 983 l 214 1028 b 163 0 207 885 169 104 z m 550 -286 l 592 -306 l 721 -92 l 618 -46 z "},"Ő":{"ha":1181,"x_min":0,"x_max":0,"o":"m 558 -22 b 1097 521 953 -22 1097 304 b 636 994 1097 821 899 994 b 83 436 301 994 83 744 b 558 -22 83 192 256 -22 z m 571 81 b 217 457 353 81 217 250 b 617 892 217 694 368 892 b 963 514 799 892 963 763 b 571 81 963 240 779 81 z m 618 1083 l 664 1044 l 851 1203 l 775 1278 z m 438 1083 l 485 1046 l 643 1204 l 561 1272 z "},"Ō":{"ha":1181,"x_min":0,"x_max":0,"o":"m 558 -22 b 1097 521 953 -22 1097 304 b 636 994 1097 821 899 994 b 83 436 301 994 83 744 b 558 -22 83 192 256 -22 z m 571 81 b 217 457 353 81 217 250 b 617 892 217 694 368 892 b 963 514 799 892 963 763 b 571 81 963 240 779 81 z m 426 1069 l 804 1063 l 810 1151 l 438 1147 z "},"Ŕ":{"ha":961,"x_min":0,"x_max":0,"o":"m 333 879 b 642 721 596 876 642 783 b 433 463 642 585 503 500 b 803 -25 475 404 788 -6 l 908 60 b 585 458 869 101 619 411 b 778 740 699 531 778 622 b 490 958 778 858 674 936 b 201 972 383 971 267 972 b 208 617 206 946 208 658 l 208 503 b 206 0 208 474 211 33 l 340 0 b 333 425 338 21 333 372 z m 419 1093 l 456 1043 l 676 1160 l 610 1257 z "},"Ř":{"ha":961,"x_min":0,"x_max":0,"o":"m 333 879 b 642 721 596 876 642 783 b 433 463 642 585 503 500 b 803 -25 475 404 788 -6 l 908 60 b 585 458 869 101 619 411 b 778 740 699 531 778 622 b 490 958 778 858 674 936 b 201 972 383 971 267 972 b 208 617 206 946 208 658 l 208 503 b 206 0 208 474 211 33 l 340 0 b 333 425 338 21 333 372 z m 488 1049 l 682 1185 l 628 1251 l 489 1138 l 336 1251 l 281 1185 z "},"Ŗ":{"ha":961,"x_min":0,"x_max":0,"o":"m 333 879 b 642 721 596 876 642 783 b 433 463 642 585 503 500 b 803 -25 475 404 788 -6 l 908 60 b 585 458 869 101 619 411 b 778 740 699 531 778 622 b 490 958 778 858 674 936 b 201 972 383 971 267 972 b 208 617 206 946 208 658 l 208 503 b 206 0 208 474 211 33 l 340 0 b 333 425 338 21 333 372 z m 394 -314 l 436 -333 l 565 -119 l 463 -74 z "},"Ś":{"ha":732,"x_min":0,"x_max":0,"o":"m 203 -25 b 614 322 469 38 614 186 b 424 542 614 435 529 479 b 267 693 365 576 267 621 b 557 890 267 810 472 876 l 528 997 b 132 669 338 954 132 817 b 332 449 132 571 214 513 b 476 289 432 394 476 358 b 167 79 476 176 303 107 z m 318 1093 l 354 1043 l 575 1160 l 508 1257 z "},"Ş":{"ha":732,"x_min":0,"x_max":0,"o":"m 203 -25 b 315 10 243 -15 281 -4 l 264 -92 b 354 -182 308 -107 354 -144 b 219 -264 351 -233 285 -261 l 233 -324 b 460 -178 351 -311 460 -249 b 357 -74 460 -129 406 -87 l 426 61 b 614 322 556 144 614 236 b 424 542 614 435 529 479 b 267 693 365 576 267 621 b 557 890 267 810 472 876 l 528 997 b 132 669 338 954 132 817 b 332 449 132 571 214 513 b 476 289 432 394 476 358 b 167 79 476 176 303 107 z "},"Ș":{"ha":732,"x_min":0,"x_max":0,"o":"m 203 -25 b 614 322 469 38 614 186 b 424 542 614 435 529 479 b 267 693 365 576 267 621 b 557 890 267 810 472 876 l 528 997 b 132 669 338 954 132 817 b 332 449 132 571 214 513 b 476 289 432 394 476 358 b 167 79 476 176 303 107 z m 281 -314 l 322 -333 l 451 -119 l 349 -74 z "},"Ť":{"ha":903,"x_min":0,"x_max":0,"o":"m 531 0 b 514 640 528 28 514 358 l 514 869 b 907 857 631 869 888 863 l 907 975 b 517 958 846 964 543 958 l 396 958 b -4 975 381 958 51 964 l -4 857 b 389 869 32 863 229 869 l 389 663 b 381 0 389 442 388 36 z m 458 1049 l 653 1185 l 599 1251 l 460 1138 l 307 1251 l 251 1185 z "},"Ţ":{"ha":903,"x_min":0,"x_max":0,"o":"m 531 0 b 514 640 528 28 514 358 l 514 869 b 907 857 631 869 888 863 l 907 975 b 517 958 846 964 543 958 l 396 958 b -4 975 381 958 51 964 l -4 857 b 389 869 32 863 229 869 l 389 663 b 381 0 389 442 388 36 z m 365 -314 l 407 -333 l 536 -119 l 433 -74 z "},"Ű":{"ha":1157,"x_min":0,"x_max":0,"o":"m 279 738 b 286 965 279 864 283 929 l 154 965 b 153 768 154 933 153 832 l 153 693 b 242 143 153 356 176 247 b 565 -22 339 -11 490 -22 b 899 125 713 -22 817 25 b 1018 690 1003 254 1018 424 l 1018 754 b 1017 986 1018 864 1017 956 l 885 986 b 893 757 888 935 893 853 l 893 708 b 825 217 893 490 892 321 b 583 85 779 144 703 85 b 343 219 483 85 397 125 b 279 643 289 315 279 418 z m 579 1083 l 625 1044 l 813 1203 l 736 1278 z m 399 1083 l 446 1046 l 604 1204 l 522 1272 z "},"Ū":{"ha":1157,"x_min":0,"x_max":0,"o":"m 279 738 b 286 965 279 864 283 929 l 154 965 b 153 768 154 933 153 832 l 153 693 b 242 143 153 356 176 247 b 565 -22 339 -11 490 -22 b 899 125 713 -22 817 25 b 1018 690 1003 254 1018 424 l 1018 754 b 1017 986 1018 864 1017 956 l 885 986 b 893 757 888 935 893 853 l 893 708 b 825 217 893 490 892 321 b 583 85 779 144 703 85 b 343 219 483 85 397 125 b 279 643 289 315 279 418 z m 388 1069 l 765 1063 l 771 1151 l 399 1147 z "},"Ų":{"ha":1157,"x_min":0,"x_max":0,"o":"m 694 -249 b 571 -144 608 -232 571 -182 b 693 -6 571 -110 615 -53 b 899 125 776 14 843 57 b 1018 690 1003 254 1018 424 l 1018 754 b 1017 986 1018 864 1017 956 l 885 986 b 893 757 888 935 893 853 l 893 708 b 825 217 893 490 892 321 b 583 85 779 144 703 85 b 343 219 483 85 397 125 b 279 643 289 315 279 418 l 279 738 b 286 965 279 864 283 929 l 154 965 b 153 768 154 933 153 832 l 153 693 b 242 143 153 356 176 247 b 565 -22 339 -11 490 -22 b 588 -21 574 -22 581 -22 b 467 -161 521 -58 467 -108 b 676 -307 467 -233 574 -289 z "},"Ů":{"ha":1157,"x_min":0,"x_max":0,"o":"m 279 738 b 286 965 279 864 283 929 l 154 965 b 153 768 154 933 153 832 l 153 693 b 242 143 153 356 176 247 b 565 -22 339 -11 490 -22 b 899 125 713 -22 817 25 b 1018 690 1003 254 1018 424 l 1018 754 b 1017 986 1018 864 1017 956 l 885 986 b 893 757 888 935 893 853 l 893 708 b 825 217 893 490 892 321 b 583 85 779 144 703 85 b 343 219 483 85 397 125 b 279 643 289 315 279 418 z m 585 1021 b 736 1146 664 1021 736 1068 b 596 1250 736 1201 689 1250 b 450 1128 521 1250 453 1201 b 585 1021 450 1063 514 1021 z m 592 1074 b 528 1133 557 1074 528 1097 b 594 1196 528 1175 564 1196 b 660 1139 633 1196 660 1171 b 592 1074 660 1094 626 1074 z "},"Ź":{"ha":956,"x_min":0,"x_max":0,"o":"m 128 893 b 692 881 168 893 638 881 b 63 3 658 835 125 64 l 63 0 b 856 -14 135 0 821 -14 l 861 101 b 285 92 822 96 360 92 b 904 963 299 111 840 893 l 904 965 b 133 999 868 965 224 990 z m 417 1093 l 453 1043 l 674 1160 l 607 1257 z "},"Ż":{"ha":956,"x_min":0,"x_max":0,"o":"m 128 893 b 692 881 168 893 638 881 b 63 3 658 835 125 64 l 63 0 b 856 -14 135 0 821 -14 l 861 101 b 285 92 822 96 360 92 b 904 963 299 111 840 893 l 904 965 b 133 999 868 965 224 990 z m 506 1063 l 604 1161 l 506 1258 l 407 1161 z "},"İ":{"ha":542,"x_min":0,"x_max":0,"o":"m 333 569 b 340 972 333 736 338 947 l 201 972 b 208 572 204 939 208 596 l 208 422 b 204 0 208 386 207 61 l 339 0 b 333 419 338 32 333 281 z m 271 1063 l 369 1161 l 271 1258 l 172 1161 z "},"ă":{"ha":986,"x_min":0,"x_max":0,"o":"m 126 -25 b 260 258 146 15 243 221 l 689 275 b 854 -24 701 254 832 21 l 967 44 b 478 868 885 168 585 700 l 475 868 b 19 36 447 822 86 154 z m 307 346 b 474 672 318 365 456 644 b 646 360 486 653 632 386 z m 625 1104 b 483 1032 592 1065 544 1032 b 326 1104 410 1032 358 1068 l 275 1044 b 472 949 311 1000 406 949 b 672 1047 543 949 628 997 z "},"ā":{"ha":986,"x_min":0,"x_max":0,"o":"m 126 -25 b 260 258 146 15 243 221 l 689 275 b 854 -24 701 254 832 21 l 967 44 b 478 868 885 168 585 700 l 475 868 b 19 36 447 822 86 154 z m 307 346 b 474 672 318 365 456 644 b 646 360 486 653 632 386 z m 293 960 l 651 954 l 657 1038 l 303 1035 z "},"ą":{"ha":986,"x_min":0,"x_max":0,"o":"m 307 346 b 474 672 318 365 456 644 b 646 360 486 653 632 386 z m 126 -25 b 260 258 146 15 243 221 l 689 275 b 833 14 700 257 801 75 b 664 -154 722 -50 664 -100 b 864 -292 664 -222 765 -275 l 881 -237 b 763 -137 799 -221 763 -174 b 858 -21 763 -108 794 -58 l 967 44 b 478 868 885 168 585 700 l 475 868 b 19 36 447 822 86 154 z "},"ć":{"ha":815,"x_min":0,"x_max":0,"o":"m 760 94 b 626 81 731 88 678 81 b 207 350 325 81 207 211 b 718 742 207 556 443 708 l 699 847 b 78 331 267 771 78 531 b 614 -19 78 217 183 -19 b 772 -10 690 -19 749 -14 z m 472 985 l 506 938 l 715 1049 l 653 1140 z "},"č":{"ha":815,"x_min":0,"x_max":0,"o":"m 760 94 b 626 81 731 88 678 81 b 207 350 325 81 207 211 b 718 742 207 556 443 708 l 699 847 b 78 331 267 771 78 531 b 614 -19 78 217 183 -19 b 772 -10 690 -19 749 -14 z m 558 943 l 743 1072 l 692 1135 l 560 1026 l 414 1135 l 361 1072 z "},"ď":{"ha":1003,"x_min":0,"x_max":0,"o":"m 183 374 b 175 -6 183 342 181 49 b 936 510 507 -6 936 132 b 488 819 936 592 900 788 b 176 826 378 828 249 826 b 183 519 182 793 183 544 z m 303 733 b 808 482 621 739 808 664 b 303 97 808 310 642 119 z m 457 943 l 642 1072 l 590 1135 l 458 1026 l 313 1135 l 260 1072 z "},"đ":{"ha":1010,"x_min":0,"x_max":0,"o":"m 190 374 l 190 339 b 182 -6 190 307 188 49 b 943 504 532 -6 943 143 b 496 819 943 592 913 782 b 183 826 386 829 256 826 b 190 519 189 793 190 544 l 190 456 b 60 450 126 453 85 450 l 64 367 b 190 374 89 368 131 371 z m 310 381 b 518 386 379 383 456 385 l 515 472 b 310 461 458 469 381 464 l 310 733 b 815 479 628 738 815 668 b 310 97 815 299 649 125 z "},"ě":{"ha":733,"x_min":0,"x_max":0,"o":"m 622 93 b 304 89 504 86 335 89 l 304 369 b 431 368 318 369 374 368 b 569 365 489 367 549 365 l 565 467 b 304 454 489 460 328 454 l 304 743 b 607 749 325 743 553 749 l 601 849 b 179 826 539 844 210 826 b 183 500 181 804 183 519 l 183 343 b 179 0 183 315 183 63 b 626 -12 204 0 585 -12 z m 406 943 l 590 1072 l 539 1135 l 407 1026 l 261 1135 l 208 1072 z "},"ė":{"ha":733,"x_min":0,"x_max":0,"o":"m 622 93 b 304 89 504 86 335 89 l 304 369 b 431 368 318 369 374 368 b 569 365 489 367 549 365 l 565 467 b 304 454 489 460 328 454 l 304 743 b 607 749 325 743 553 749 l 601 849 b 179 826 539 844 210 826 b 183 500 181 804 183 519 l 183 343 b 179 0 183 315 183 63 b 626 -12 204 0 585 -12 z m 407 957 l 500 1050 l 407 1143 l 314 1050 z "},"ē":{"ha":733,"x_min":0,"x_max":0,"o":"m 622 93 b 304 89 504 86 335 89 l 304 369 b 431 368 318 369 374 368 b 569 365 489 367 549 365 l 565 467 b 304 454 489 460 328 454 l 304 743 b 607 749 325 743 553 749 l 601 849 b 179 826 539 844 210 826 b 183 500 181 804 183 519 l 183 343 b 179 0 183 315 183 63 b 626 -12 204 0 585 -12 z m 208 960 l 567 954 l 572 1038 l 218 1035 z "},"ę":{"ha":733,"x_min":0,"x_max":0,"o":"m 622 93 b 304 89 504 86 335 89 l 304 369 b 431 368 318 369 374 368 b 569 365 489 367 549 365 l 565 467 b 304 454 489 460 328 454 l 304 743 b 607 749 325 743 553 749 l 601 849 b 179 826 539 844 210 826 b 183 500 181 804 183 519 l 183 343 b 179 0 183 315 183 63 b 521 -10 199 0 425 -7 b 386 -154 447 -47 386 -99 b 586 -292 386 -222 488 -275 l 603 -237 b 485 -137 521 -221 485 -174 b 594 -11 485 -106 525 -54 b 626 -12 619 -12 624 -12 z "},"ğ":{"ha":914,"x_min":0,"x_max":0,"o":"m 808 271 l 808 361 l 685 361 b 689 279 686 354 689 314 l 689 88 b 558 71 664 78 611 71 b 206 325 308 71 206 201 b 713 740 206 513 439 689 l 688 849 b 76 326 224 728 76 465 b 532 -19 76 131 246 -19 b 811 18 638 -19 754 -3 b 808 185 811 33 808 139 z m 714 1104 b 572 1032 681 1065 633 1032 b 415 1104 499 1032 447 1068 l 364 1044 b 561 949 400 1000 494 949 b 761 1047 632 949 717 997 z "},"ģ":{"ha":914,"x_min":0,"x_max":0,"o":"m 808 271 l 808 361 l 685 361 b 689 279 686 354 689 314 l 689 88 b 558 71 664 78 611 71 b 206 325 308 71 206 201 b 713 740 206 513 439 689 l 688 849 b 76 326 224 728 76 465 b 532 -19 76 131 246 -19 b 811 18 638 -19 754 -3 b 808 185 811 33 808 139 z m 375 -286 l 415 -306 l 539 -104 l 440 -60 z "},"ī":{"ha":489,"x_min":0,"x_max":0,"o":"m 304 485 b 311 826 304 626 308 806 l 176 826 b 183 486 179 799 183 507 l 183 358 b 179 0 183 328 182 51 l 310 0 b 304 357 308 28 304 239 z m 58 960 l 417 954 l 422 1038 l 68 1035 z "},"į":{"ha":489,"x_min":0,"x_max":0,"o":"m 281 -237 b 163 -137 199 -221 163 -174 b 286 0 163 -106 204 -54 l 310 0 b 304 357 308 28 304 239 l 304 485 b 311 826 304 626 308 806 l 176 826 b 183 486 179 799 183 507 l 183 358 b 179 0 183 328 182 51 l 217 0 b 64 -154 121 -51 64 -101 b 264 -292 64 -222 165 -275 z "},"ķ":{"ha":914,"x_min":0,"x_max":0,"o":"m 310 -12 b 303 367 307 11 303 275 l 303 493 b 310 839 303 596 308 819 l 176 839 b 183 482 176 811 183 585 l 183 357 b 176 -12 183 222 179 22 z m 843 83 b 457 443 793 128 496 397 b 797 732 525 506 747 693 l 724 822 b 313 435 694 792 333 454 b 757 -11 367 376 742 6 z m 375 -258 l 415 -278 l 539 -76 l 440 -32 z "},"ĺ":{"ha":683,"x_min":0,"x_max":0,"o":"m 178 826 b 183 500 181 804 183 519 l 183 343 b 172 0 183 315 183 63 b 619 -12 204 0 579 -12 l 619 99 b 304 93 485 93 335 93 l 304 419 b 315 826 304 568 310 800 z m 156 985 l 189 938 l 399 1049 l 336 1140 z "},"ľ":{"ha":683,"x_min":0,"x_max":0,"o":"m 178 826 b 183 500 181 804 183 519 l 183 343 b 172 0 183 315 183 63 b 619 -12 204 0 579 -12 l 619 99 b 304 93 485 93 335 93 l 304 419 b 315 826 304 568 310 800 z m 454 600 l 494 581 l 618 782 l 519 826 z "},"ļ":{"ha":683,"x_min":0,"x_max":0,"o":"m 178 826 b 183 500 181 804 183 519 l 183 343 b 172 0 183 315 183 63 b 619 -12 204 0 579 -12 l 619 99 b 304 93 485 93 335 93 l 304 419 b 315 826 304 568 310 800 z m 288 -286 l 328 -306 l 451 -104 l 353 -60 z "},"ń":{"ha":1115,"x_min":0,"x_max":0,"o":"m 268 -8 b 274 631 267 31 276 608 l 276 631 b 936 -25 292 614 900 7 l 942 -25 b 976 826 947 272 971 756 l 853 832 b 849 214 851 793 849 247 b 194 874 810 251 231 835 l 188 874 b 140 0 182 751 147 89 z m 469 957 l 503 910 l 713 1021 l 650 1113 z "},"ň":{"ha":1115,"x_min":0,"x_max":0,"o":"m 268 -8 b 274 631 267 31 276 608 l 276 631 b 936 -25 292 614 900 7 l 942 -25 b 976 826 947 272 971 756 l 853 832 b 849 214 851 793 849 247 b 194 874 810 251 231 835 l 188 874 b 140 0 182 751 147 89 z m 569 915 l 754 1044 l 703 1107 l 571 999 l 425 1107 l 372 1044 z "},"ņ":{"ha":1115,"x_min":0,"x_max":0,"o":"m 268 -8 b 274 631 267 31 276 608 l 276 631 b 936 -25 292 614 900 7 l 942 -25 b 976 826 947 272 971 756 l 853 832 b 849 214 851 793 849 247 b 194 874 810 251 231 835 l 188 874 b 140 0 182 751 147 89 z m 476 -258 l 517 -278 l 640 -76 l 542 -32 z "},"ő":{"ha":1075,"x_min":0,"x_max":0,"o":"m 504 -19 b 999 443 868 -19 999 258 b 575 846 999 697 819 846 b 76 371 269 846 76 633 b 504 -19 76 163 228 -19 z m 515 72 b 204 389 322 72 204 213 b 557 754 204 590 336 754 b 869 438 722 754 869 649 b 515 72 869 204 706 72 z m 582 976 l 625 939 l 804 1090 l 731 1161 z m 410 976 l 456 940 l 606 1090 l 528 1156 z "},"ō":{"ha":1075,"x_min":0,"x_max":0,"o":"m 504 -19 b 999 443 868 -19 999 258 b 575 846 999 697 819 846 b 76 371 269 846 76 633 b 504 -19 76 163 228 -19 z m 515 72 b 204 389 322 72 204 213 b 557 754 204 590 336 754 b 869 438 722 754 869 649 b 515 72 869 204 706 72 z m 365 960 l 724 954 l 729 1038 l 375 1035 z "},"ŕ":{"ha":856,"x_min":0,"x_max":0,"o":"m 304 736 b 583 608 540 735 583 664 b 394 394 583 490 457 426 b 732 -22 432 344 718 -6 l 828 63 b 536 385 792 97 568 342 b 715 626 640 446 715 529 b 451 817 715 729 618 797 b 176 826 346 829 236 826 b 183 524 181 804 183 560 l 183 428 b 181 0 183 403 185 28 l 311 0 b 304 361 308 18 304 317 z m 353 985 l 386 938 l 596 1049 l 533 1140 z "},"ř":{"ha":856,"x_min":0,"x_max":0,"o":"m 304 736 b 583 608 540 735 583 664 b 394 394 583 490 457 426 b 732 -22 432 344 718 -6 l 828 63 b 536 385 792 97 568 342 b 715 626 640 446 715 529 b 451 817 715 729 618 797 b 176 826 346 829 236 826 b 183 524 181 804 183 560 l 183 428 b 181 0 183 403 185 28 l 311 0 b 304 361 308 18 304 317 z m 439 943 l 624 1072 l 572 1135 l 440 1026 l 294 1135 l 242 1072 z "},"ŗ":{"ha":856,"x_min":0,"x_max":0,"o":"m 304 736 b 583 608 540 735 583 664 b 394 394 583 490 457 426 b 732 -22 432 344 718 -6 l 828 63 b 536 385 792 97 568 342 b 715 626 640 446 715 529 b 451 817 715 729 618 797 b 176 826 346 829 236 826 b 183 524 181 804 183 560 l 183 428 b 181 0 183 403 185 28 l 311 0 b 304 361 308 18 304 317 z m 346 -286 l 386 -306 l 510 -104 l 411 -60 z "},"ś":{"ha":667,"x_min":0,"x_max":0,"o":"m 178 -22 b 565 274 425 28 565 151 b 386 463 565 372 482 410 b 242 589 332 493 242 525 b 513 751 242 692 431 739 l 486 849 b 114 569 307 817 114 701 b 301 381 114 483 193 433 b 436 246 393 336 436 307 b 146 75 436 151 274 100 z m 286 985 l 319 938 l 529 1049 l 467 1140 z "},"ş":{"ha":667,"x_min":0,"x_max":0,"o":"m 178 -22 b 271 1 210 -15 240 -8 l 206 -100 b 292 -186 247 -115 292 -151 b 163 -264 292 -235 225 -261 l 176 -321 b 392 -182 289 -310 392 -250 b 293 -83 392 -136 340 -97 l 381 47 b 565 274 500 107 565 190 b 386 463 565 372 482 410 b 242 589 332 493 242 525 b 513 751 242 692 431 739 l 486 849 b 114 569 307 817 114 701 b 301 381 114 483 193 433 b 436 246 393 336 436 307 b 146 75 436 151 274 100 z "},"ș":{"ha":667,"x_min":0,"x_max":0,"o":"m 178 -22 b 565 274 425 28 565 151 b 386 463 565 372 482 410 b 242 589 332 493 242 525 b 513 751 242 692 431 739 l 486 849 b 114 569 307 817 114 701 b 301 381 114 483 193 433 b 436 246 393 336 436 307 b 146 75 436 151 274 100 z m 251 -286 l 292 -306 l 415 -104 l 317 -60 z "},"ť":{"ha":785,"x_min":0,"x_max":0,"o":"m 469 0 b 454 544 467 24 454 304 l 454 728 b 792 717 556 728 789 722 l 792 829 b 453 815 751 819 476 815 l 342 815 b -7 829 328 815 29 819 l -7 717 b 333 728 11 722 190 728 l 333 563 b 325 0 333 375 332 31 z m 404 943 l 589 1072 l 538 1135 l 406 1026 l 260 1135 l 207 1072 z "},"ţ":{"ha":785,"x_min":0,"x_max":0,"o":"m 469 0 b 454 544 467 24 454 304 l 454 728 b 792 717 556 728 789 722 l 792 829 b 453 815 751 819 476 815 l 342 815 b -7 829 328 815 29 819 l -7 717 b 333 728 11 722 190 728 l 333 563 b 325 0 333 375 332 31 z m 311 -286 l 351 -306 l 475 -104 l 376 -60 z "},"ű":{"ha":1028,"x_min":0,"x_max":0,"o":"m 250 626 b 256 821 250 735 254 790 l 131 821 b 129 653 131 793 129 707 l 129 589 b 213 122 129 303 154 210 b 501 -19 301 -10 433 -19 b 800 107 636 -19 725 21 b 911 586 894 217 911 360 l 911 642 b 910 839 911 735 910 813 l 783 839 b 790 643 785 794 790 725 l 790 603 b 731 189 790 417 789 275 b 518 76 689 126 626 76 b 308 190 428 76 357 111 b 250 547 261 268 250 356 z m 503 976 l 546 939 l 725 1090 l 651 1161 z m 331 976 l 376 940 l 526 1090 l 449 1156 z "},"ū":{"ha":1028,"x_min":0,"x_max":0,"o":"m 250 626 b 256 821 250 735 254 790 l 131 821 b 129 653 131 793 129 707 l 129 589 b 213 122 129 303 154 210 b 501 -19 301 -10 433 -19 b 800 107 636 -19 725 21 b 911 586 894 217 911 360 l 911 642 b 910 839 911 735 910 813 l 783 839 b 790 643 785 794 790 725 l 790 603 b 731 189 790 417 789 275 b 518 76 689 126 626 76 b 308 190 428 76 357 111 b 250 547 261 268 250 356 z m 342 960 l 700 954 l 706 1038 l 351 1035 z "},"ų":{"ha":1028,"x_min":0,"x_max":0,"o":"m 617 -237 b 499 -137 535 -221 499 -174 b 615 -7 499 -106 542 -51 b 800 107 690 11 749 49 b 911 586 894 217 911 360 l 911 642 b 910 839 911 735 910 813 l 783 839 b 790 643 785 794 790 725 l 790 603 b 731 189 790 417 789 275 b 518 76 689 126 626 76 b 308 190 428 76 357 111 b 250 547 261 268 250 356 l 250 626 b 256 821 250 735 254 790 l 131 821 b 129 653 131 793 129 707 l 129 589 b 213 122 129 303 154 210 b 501 -19 301 -10 433 -19 b 518 -18 507 -19 513 -19 b 400 -154 454 -54 400 -103 b 600 -292 400 -222 501 -275 z "},"ů":{"ha":1028,"x_min":0,"x_max":0,"o":"m 250 626 b 256 821 250 735 254 790 l 131 821 b 129 653 131 793 129 707 l 129 589 b 213 122 129 303 154 210 b 501 -19 301 -10 433 -19 b 800 107 636 -19 725 21 b 911 586 894 217 911 360 l 911 642 b 910 839 911 735 910 813 l 783 839 b 790 643 785 794 790 725 l 790 603 b 731 189 790 417 789 275 b 518 76 689 126 626 76 b 308 190 428 76 357 111 b 250 547 261 268 250 356 z m 507 915 b 651 1035 582 915 651 960 b 518 1133 651 1088 607 1133 b 379 1017 447 1133 382 1088 b 507 915 379 956 440 915 z m 514 965 b 453 1022 481 965 453 988 b 517 1082 453 1063 488 1082 b 579 1028 554 1082 579 1058 b 514 965 579 985 547 965 z "},"ź":{"ha":835,"x_min":0,"x_max":0,"o":"m 107 747 b 597 742 131 747 549 742 b 42 3 569 704 94 58 l 42 0 b 753 -12 101 0 726 -12 l 757 92 b 243 83 728 88 311 83 b 789 818 254 99 743 758 l 789 821 b 113 849 769 821 183 842 z m 315 985 l 349 938 l 558 1049 l 496 1140 z "},"ż":{"ha":835,"x_min":0,"x_max":0,"o":"m 107 747 b 597 742 131 747 549 742 b 42 3 569 704 94 58 l 42 0 b 753 -12 101 0 726 -12 l 757 92 b 243 83 728 88 311 83 b 789 818 254 99 743 758 l 789 821 b 113 849 769 821 183 842 z m 431 957 l 524 1050 l 431 1143 l 338 1050 z "},"΄":{"ha":1181,"x_min":0,"x_max":0,"o":"m 561 744 l 622 743 l 647 994 l 533 989 z "},"Α":{"ha":1111,"x_min":0,"x_max":0,"o":"m 142 -26 b 296 315 165 21 279 289 l 778 335 b 968 -25 793 313 940 28 l 1086 53 b 540 1021 992 197 663 824 l 538 1021 b 28 46 504 968 104 179 z m 343 407 b 536 800 356 429 515 769 b 736 424 550 778 721 454 z "},"Β":{"ha":889,"x_min":0,"x_max":0,"o":"m 208 514 b 201 -8 208 488 208 68 l 213 -8 b 756 318 546 -7 756 153 b 538 535 756 443 633 519 l 538 538 b 713 754 685 606 713 701 b 393 964 713 832 674 940 b 201 972 339 971 275 972 b 208 668 206 943 208 710 z m 328 467 b 617 310 503 475 617 407 b 328 92 617 179 479 107 z m 328 883 b 582 736 424 881 582 861 b 328 546 582 643 481 550 z "},"Γ":{"ha":678,"x_min":0,"x_max":0,"o":"m 343 0 b 333 529 335 82 333 371 l 333 882 b 650 889 356 882 606 889 l 644 999 b 204 972 600 993 238 972 b 208 589 206 946 208 611 l 208 403 b 204 0 208 371 208 74 z "},"∆":{"ha":1101,"x_min":0,"x_max":0,"o":"m 1110 -1 b 550 1006 1014 144 658 824 l 547 1006 b 3 1 442 826 74 122 l 4 -3 b 543 0 171 0 363 -1 b 1108 -6 776 0 992 0 z m 906 110 b 544 104 863 106 703 103 b 190 108 388 104 231 107 b 546 788 203 131 488 681 b 906 110 601 683 890 135 z "},"Ε":{"ha":797,"x_min":0,"x_max":0,"o":"m 667 106 b 333 101 553 97 367 101 l 333 440 b 608 435 361 440 578 435 l 604 544 b 333 529 536 536 358 529 l 333 882 b 650 889 356 882 606 889 l 644 999 b 204 972 600 993 238 972 b 208 589 206 946 208 611 l 208 403 b 204 0 208 371 208 74 b 672 -14 232 0 650 -14 z "},"Ζ":{"ha":956,"x_min":0,"x_max":0,"o":"m 128 893 b 692 881 168 893 638 881 b 63 3 658 835 125 64 l 63 0 b 856 -14 135 0 821 -14 l 861 101 b 285 92 822 96 360 92 b 904 963 299 111 840 893 l 904 965 b 133 999 868 965 224 990 z "},"Η":{"ha":1286,"x_min":0,"x_max":0,"o":"m 339 0 b 333 350 338 32 333 288 l 333 439 l 953 465 l 953 321 b 944 0 953 294 949 47 l 1083 0 b 1078 392 1081 26 1078 374 l 1078 531 b 1089 972 1078 564 1085 939 l 947 972 b 953 668 950 942 953 692 l 953 557 l 333 531 l 333 639 b 340 972 333 664 338 947 l 201 972 b 208 572 204 939 208 596 l 208 422 b 204 0 208 386 207 61 z "},"Θ":{"ha":1179,"x_min":0,"x_max":0,"o":"m 558 -22 b 1097 521 953 -22 1097 304 b 636 994 1097 821 899 994 b 83 436 301 994 83 744 b 558 -22 83 192 256 -22 z m 571 81 b 217 457 353 81 217 250 b 617 892 217 694 368 892 b 963 514 799 892 963 763 b 571 81 963 240 779 81 z m 364 415 b 826 439 461 424 693 435 l 818 542 b 360 518 743 533 465 517 z "},"Ι":{"ha":542,"x_min":0,"x_max":0,"o":"m 333 569 b 340 972 333 736 338 947 l 201 972 b 208 572 204 939 208 596 l 208 422 b 204 0 208 386 207 61 l 339 0 b 333 419 338 32 333 281 z "},"Κ":{"ha":1003,"x_min":0,"x_max":0,"o":"m 340 -14 b 333 431 338 13 333 324 l 333 581 b 340 986 333 701 339 964 l 201 986 b 208 567 201 954 208 688 l 208 419 b 201 -14 208 261 204 26 z m 926 92 b 499 521 874 143 542 468 b 876 869 572 594 824 819 l 796 961 b 343 511 764 925 367 533 b 835 -6 403 444 821 14 z "},"Λ":{"ha":1111,"x_min":0,"x_max":0,"o":"m 140 -25 b 540 789 168 33 521 753 b 969 -24 554 767 954 8 l 1088 50 b 544 1021 993 194 663 824 l 542 1021 b 25 40 506 968 101 174 z "},"Μ":{"ha":1518,"x_min":0,"x_max":0,"o":"m 172 -36 b 408 713 189 18 381 626 b 717 99 464 586 636 249 l 719 99 b 1072 701 776 189 1022 624 b 1342 -36 1094 650 1307 68 l 1461 15 b 1104 951 1401 161 1153 838 l 1101 951 b 738 324 1075 908 786 401 b 392 994 696 393 435 907 l 389 994 b 58 7 382 961 85 65 z "},"Ν":{"ha":1271,"x_min":0,"x_max":0,"o":"m 293 -10 b 303 764 292 36 303 715 l 306 764 b 1071 -29 331 729 1033 8 l 1074 -29 b 1111 972 1079 321 1106 889 l 982 979 b 972 240 981 933 972 279 b 217 1028 928 285 256 983 l 214 1028 b 163 0 207 885 169 104 z "},"Ξ":{"ha":1011,"x_min":0,"x_max":0,"o":"m 160 846 b 865 860 343 853 682 860 l 860 978 b 156 961 653 969 314 960 z m 124 6 b 889 0 301 4 704 -1 l 885 119 b 125 122 624 107 344 113 z m 199 425 b 811 435 375 429 714 439 l 806 553 b 194 539 685 549 346 535 z "},"Ο":{"ha":1181,"x_min":0,"x_max":0,"o":"m 583 -22 b 1122 521 978 -22 1122 304 b 661 994 1122 821 924 994 b 108 436 326 994 108 744 b 583 -22 108 192 281 -22 z m 596 81 b 242 457 378 81 242 250 b 642 892 242 694 393 892 b 988 514 824 892 988 763 b 596 81 988 240 804 81 z "},"Π":{"ha":1210,"x_min":0,"x_max":0,"o":"m 588 961 b 90 960 522 960 217 960 l 90 847 b 219 856 119 849 168 853 b 222 572 221 796 222 596 l 222 422 b 218 0 222 386 221 61 l 351 0 b 346 371 350 32 346 288 l 346 594 b 353 861 346 664 350 839 b 874 869 446 864 790 868 b 878 632 876 842 878 692 l 878 390 b 874 0 878 364 876 47 l 1010 0 b 1001 392 1006 26 1001 374 l 1001 531 b 1004 868 1001 564 1000 839 b 1133 861 1058 865 1108 863 l 1133 978 b 588 961 978 968 646 963 z "},"Ρ":{"ha":853,"x_min":0,"x_max":0,"o":"m 333 0 b 331 208 331 29 331 181 l 331 290 b 769 688 594 343 769 497 b 467 954 769 835 653 924 b 206 972 381 968 264 972 b 210 646 206 951 210 678 l 210 493 b 203 0 210 394 206 60 z m 331 869 b 635 667 611 865 635 708 b 331 388 635 514 506 425 z "},"Σ":{"ha":892,"x_min":0,"x_max":0,"o":"m 703 507 b 296 806 582 596 439 700 l 296 811 b 801 913 457 842 640 881 l 779 1022 b 67 854 582 975 246 900 l 67 844 b 524 500 210 735 446 561 l 524 493 b 44 119 431 415 196 238 l 44 110 b 817 -37 222 72 626 -1 l 836 74 b 279 163 753 85 438 133 l 279 169 b 703 500 408 264 596 413 z "},"Τ":{"ha":903,"x_min":0,"x_max":0,"o":"m 531 0 b 514 640 528 28 514 358 l 514 869 b 907 857 631 869 888 863 l 907 975 b 517 958 846 964 543 958 l 396 958 b -4 975 381 958 51 964 l -4 857 b 389 869 32 863 229 869 l 389 663 b 381 0 389 442 388 36 z "},"Υ":{"ha":950,"x_min":0,"x_max":0,"o":"m 547 0 b 540 171 544 28 540 151 l 540 301 b 700 706 540 449 606 597 b 965 886 778 796 876 860 l 924 994 b 657 814 838 967 718 882 b 489 533 582 729 529 649 l 486 533 b 306 832 456 649 371 757 b 89 994 269 872 178 949 l 32 886 b 236 732 107 854 181 794 b 415 301 331 628 415 482 l 415 197 b 408 0 415 179 410 32 z "},"Φ":{"ha":1176,"x_min":0,"x_max":0,"o":"m 649 33 b 1096 518 922 65 1096 254 b 649 961 1096 789 864 950 b 653 1061 649 978 651 1015 l 525 1061 b 529 957 526 1018 528 976 b 81 464 304 932 81 763 b 528 31 81 208 293 47 b 524 -86 528 -4 525 -39 l 651 -86 b 649 33 650 -42 649 10 z m 528 129 b 211 471 368 151 211 254 b 529 860 211 700 361 828 b 529 571 531 758 529 599 l 529 421 b 528 129 529 403 531 226 z m 649 131 b 647 418 647 201 647 365 l 647 568 b 647 861 647 635 646 789 b 965 510 797 846 965 751 b 649 131 965 253 803 157 z "},"Χ":{"ha":1051,"x_min":0,"x_max":0,"o":"m 167 -25 b 521 418 185 0 504 397 b 879 -22 556 379 847 22 l 979 72 b 604 501 929 135 646 456 b 963 883 636 547 914 838 l 868 978 b 535 583 829 928 582 636 b 225 975 433 706 261 925 l 124 882 b 451 499 179 818 396 563 b 76 67 408 447 110 99 z "},"Ψ":{"ha":1126,"x_min":0,"x_max":0,"o":"m 956 951 b 907 644 947 890 928 749 b 628 342 860 414 746 351 l 628 572 b 632 1003 628 739 629 947 l 504 1003 b 508 575 506 939 508 599 l 508 342 b 236 618 392 347 278 426 b 178 961 214 719 185 890 l 50 936 b 118 611 74 843 96 731 b 507 244 158 397 294 256 b 503 0 506 126 504 44 l 633 0 b 629 246 632 19 631 136 b 1021 628 839 263 972 394 b 1081 926 1046 749 1058 843 z "},"Ω":{"ha":1226,"x_min":0,"x_max":0,"o":"m 1179 104 b 904 93 1094 96 969 94 l 901 101 b 1100 536 1004 185 1100 342 b 647 994 1100 813 903 994 b 132 478 326 994 132 744 b 285 113 132 315 225 168 l 282 101 b 21 108 229 100 96 103 l 15 -4 b 481 0 78 -6 453 -1 l 485 21 b 267 479 383 110 267 282 b 635 892 267 697 396 892 b 967 521 813 892 967 761 b 686 24 967 296 804 96 l 689 0 b 1185 -11 717 -1 1139 -8 z "},"Ά":{"ha":1111,"x_min":0,"x_max":0,"o":"m 142 -26 b 296 315 165 21 279 289 l 778 335 b 968 -25 793 313 940 28 l 1086 53 b 540 1021 992 197 663 824 l 538 1021 b 28 46 504 968 104 179 z m 343 407 b 536 800 356 429 515 769 b 736 424 550 778 721 454 z m 150 744 l 211 743 l 236 994 l 122 989 z "},"Έ":{"ha":797,"x_min":0,"x_max":0,"o":"m 667 106 b 333 101 553 97 367 101 l 333 440 b 608 435 361 440 578 435 l 604 544 b 333 529 536 536 358 529 l 333 882 b 650 889 356 882 606 889 l 644 999 b 204 972 600 993 238 972 b 208 589 206 946 208 611 l 208 403 b 204 0 208 371 208 74 b 672 -14 232 0 650 -14 z m -1 744 l 60 743 l 85 994 l -29 989 z "},"Ή":{"ha":1286,"x_min":0,"x_max":0,"o":"m 339 0 b 333 350 338 32 333 288 l 333 439 l 953 465 l 953 321 b 944 0 953 294 949 47 l 1083 0 b 1078 392 1081 26 1078 374 l 1078 531 b 1089 972 1078 564 1085 939 l 947 972 b 953 668 950 942 953 692 l 953 557 l 333 531 l 333 639 b 340 972 333 664 338 947 l 201 972 b 208 572 204 939 208 596 l 208 422 b 204 0 208 386 207 61 z m -1 744 l 60 743 l 85 994 l -29 989 z "},"Ί":{"ha":542,"x_min":0,"x_max":0,"o":"m 333 569 b 340 972 333 736 338 947 l 201 972 b 208 572 204 939 208 596 l 208 422 b 204 0 208 386 207 61 l 339 0 b 333 419 338 32 333 281 z m -1 744 l 60 743 l 85 994 l -29 989 z "},"Ϊ":{"ha":542,"x_min":0,"x_max":0,"o":"m 333 569 b 340 972 333 736 338 947 l 201 972 b 208 572 204 939 208 596 l 208 422 b 204 0 208 386 207 61 l 339 0 b 333 419 338 32 333 281 z m 118 1063 l 207 1151 l 118 1239 l 29 1151 z m 424 1063 l 513 1151 l 424 1239 l 335 1151 z "},"Ό":{"ha":1207,"x_min":0,"x_max":0,"o":"m 583 -22 b 1122 521 978 -22 1122 304 b 661 994 1122 821 924 994 b 108 436 326 994 108 744 b 583 -22 108 192 281 -22 z m 596 81 b 242 457 378 81 242 250 b 642 892 242 694 393 892 b 988 514 824 892 988 763 b 596 81 988 240 804 81 z m 0 744 l 61 743 l 86 994 l -28 989 z "},"Ύ":{"ha":1074,"x_min":0,"x_max":0,"o":"m 675 0 b 668 171 672 28 668 151 l 668 301 b 828 706 668 449 733 597 b 1093 886 906 796 1004 860 l 1051 994 b 785 814 965 967 846 882 b 617 533 710 729 657 649 l 614 533 b 433 832 583 649 499 757 b 217 994 397 872 306 949 l 160 886 b 364 732 235 854 308 794 b 543 301 458 628 543 482 l 543 197 b 536 0 543 179 538 32 z m 0 744 l 61 743 l 86 994 l -28 989 z "},"Ϋ":{"ha":950,"x_min":0,"x_max":0,"o":"m 547 0 b 540 171 544 28 540 151 l 540 301 b 700 706 540 449 606 597 b 965 886 778 796 876 860 l 924 994 b 657 814 838 967 718 882 b 489 533 582 729 529 649 l 486 533 b 306 832 456 649 371 757 b 89 994 269 872 178 949 l 32 886 b 236 732 107 854 181 794 b 415 301 331 628 415 482 l 415 197 b 408 0 415 179 410 32 z m 343 1063 l 432 1151 l 343 1239 l 254 1151 z m 649 1063 l 738 1151 l 649 1239 l 560 1151 z "},"Ώ":{"ha":1261,"x_min":0,"x_max":0,"o":"m 26 744 l 88 743 l 113 994 l -1 989 z m 928 93 l 925 101 b 1117 536 1025 185 1117 347 b 664 994 1117 813 919 994 b 149 472 336 994 149 753 b 304 113 149 310 240 168 l 301 101 b 33 111 246 100 113 103 l 28 -4 b 497 0 15 -4 469 -1 l 501 21 b 282 474 400 110 282 276 b 650 892 282 703 406 892 b 982 521 828 892 982 761 b 703 21 982 296 824 89 l 706 0 b 1215 -11 733 -1 1208 -11 l 1210 104 b 928 93 1111 96 986 94 z "},"α":{"ha":986,"x_min":0,"x_max":0,"o":"m 126 -25 b 260 258 146 15 243 221 l 689 275 b 854 -24 701 254 832 21 l 967 44 b 478 868 885 168 585 700 l 475 868 b 19 36 447 822 86 154 z m 307 346 b 474 672 318 365 456 644 b 646 360 486 653 632 386 z "},"β":{"ha":806,"x_min":0,"x_max":0,"o":"m 183 438 b 176 -7 183 414 183 58 l 201 -7 b 710 271 521 -7 710 113 b 503 451 710 376 596 439 l 503 454 b 671 642 639 507 671 596 b 376 822 671 707 631 803 b 176 826 326 826 243 826 b 183 568 181 801 183 603 z m 300 393 b 581 264 457 400 581 356 b 300 83 581 144 440 93 z m 300 744 b 549 626 389 746 549 732 b 300 468 549 547 438 469 z "},"γ":{"ha":683,"x_min":0,"x_max":0,"o":"m 315 0 b 304 407 310 26 304 258 l 304 733 b 619 728 335 733 485 733 l 619 839 b 172 826 579 839 204 826 b 183 483 183 764 183 511 l 183 326 b 178 0 183 307 181 22 z "},"δ":{"ha":947,"x_min":0,"x_max":0,"o":"m 956 -1 b 474 864 872 124 567 708 l 471 864 b 3 1 381 710 64 104 l 4 -3 b 468 0 147 0 313 -1 b 954 -6 668 0 854 0 z m 472 646 b 760 111 565 468 661 289 b 469 106 732 107 606 106 b 189 110 333 106 221 108 z "},"ε":{"ha":733,"x_min":0,"x_max":0,"o":"m 622 93 b 304 89 504 86 335 89 l 304 369 b 431 368 318 369 374 368 b 569 365 489 367 549 365 l 565 467 b 304 454 489 460 328 454 l 304 743 b 607 749 325 743 553 749 l 601 849 b 179 826 539 844 210 826 b 183 500 181 804 183 519 l 183 343 b 179 0 183 315 183 63 b 626 -12 204 0 585 -12 z "},"ζ":{"ha":835,"x_min":0,"x_max":0,"o":"m 107 747 b 597 742 131 747 549 742 b 42 3 569 704 94 58 l 42 0 b 753 -12 101 0 726 -12 l 757 92 b 243 83 728 88 311 83 b 789 818 254 99 743 758 l 789 821 b 113 849 769 821 183 842 z "},"η":{"ha":1143,"x_min":0,"x_max":0,"o":"m 310 0 b 304 297 308 28 304 244 l 304 369 l 839 392 l 839 272 b 832 0 839 250 836 40 l 965 0 b 960 333 963 22 960 318 l 960 451 b 969 826 960 479 967 799 l 835 826 b 839 568 836 800 839 588 l 839 479 l 304 457 l 304 543 b 311 826 304 564 308 806 l 176 826 b 183 486 179 799 183 507 l 183 358 b 179 0 183 328 182 51 z "},"θ":{"ha":1086,"x_min":0,"x_max":0,"o":"m 514 -19 b 1010 443 878 -19 1010 258 b 585 846 1010 699 828 846 b 76 371 278 846 76 632 b 514 -19 76 163 235 -19 z m 526 72 b 204 389 325 72 204 211 b 568 754 204 590 339 754 b 882 436 735 754 882 647 b 526 72 882 203 717 72 z m 335 364 b 761 385 425 371 638 381 l 753 482 b 332 463 683 475 428 461 z "},"ι":{"ha":489,"x_min":0,"x_max":0,"o":"m 304 485 b 311 826 304 626 308 806 l 176 826 b 183 486 179 799 183 507 l 183 358 b 179 0 183 328 182 51 l 310 0 b 304 357 308 28 304 239 z "},"κ":{"ha":914,"x_min":0,"x_max":0,"o":"m 310 -12 b 303 367 307 11 303 275 l 303 493 b 310 839 303 596 308 819 l 176 839 b 183 482 176 811 183 585 l 183 357 b 176 -12 183 222 179 22 z m 843 83 b 457 443 793 128 496 397 b 797 732 525 506 747 693 l 724 822 b 313 435 694 792 333 454 b 757 -11 367 376 742 6 z "},"λ":{"ha":986,"x_min":0,"x_max":0,"o":"m 126 -25 b 478 660 265 261 374 465 b 854 -24 589 474 728 200 l 967 44 b 478 868 885 168 585 700 l 475 868 b 19 36 401 744 86 154 z "},"ν":{"ha":1115,"x_min":0,"x_max":0,"o":"m 268 -8 b 274 631 267 31 276 608 l 276 631 b 936 -25 292 614 900 7 l 942 -25 b 976 826 947 272 971 756 l 853 832 b 849 214 851 793 849 247 b 194 874 810 251 231 835 l 188 874 b 140 0 182 751 147 89 z "},"ξ":{"ha":943,"x_min":0,"x_max":0,"o":"m 158 715 b 815 726 329 721 643 726 l 808 832 b 154 818 617 825 301 817 z m 124 4 b 836 0 290 4 665 -1 l 832 107 b 126 108 590 96 331 100 z m 194 360 b 764 368 358 363 674 371 l 758 472 b 190 461 647 469 332 457 z "},"ο":{"ha":1075,"x_min":0,"x_max":0,"o":"m 504 -19 b 999 443 868 -19 999 258 b 575 846 999 697 819 846 b 76 371 269 846 76 633 b 504 -19 76 163 228 -19 z m 515 72 b 204 389 322 72 204 213 b 557 754 204 590 336 754 b 869 438 722 754 869 649 b 515 72 869 204 706 72 z "},"π":{"ha":1193,"x_min":0,"x_max":0,"o":"m 1086 849 b 565 835 939 840 621 836 b 90 833 503 833 211 833 l 90 735 b 214 743 118 736 165 740 b 217 497 215 690 217 517 l 217 367 b 213 0 217 335 215 53 l 342 0 b 338 322 340 28 338 250 l 338 517 b 343 747 338 576 340 728 b 839 754 429 750 760 754 b 842 549 840 731 842 600 l 842 339 b 839 0 842 315 840 42 l 969 0 b 961 340 964 22 961 325 l 961 461 b 963 754 961 489 960 728 b 1086 747 1015 751 1063 749 z "},"ρ":{"ha":778,"x_min":0,"x_max":0,"o":"m 304 0 b 303 178 303 25 303 154 l 303 244 b 704 585 539 286 704 415 b 431 813 704 710 600 786 b 181 826 351 825 233 826 b 183 549 181 808 183 576 l 183 419 b 178 0 183 335 181 51 z m 303 733 b 576 571 549 731 576 614 b 303 336 576 435 453 365 z "},"σ":{"ha":824,"x_min":0,"x_max":0,"o":"m 644 425 b 292 660 526 503 410 582 l 292 665 b 738 747 440 693 589 719 l 713 849 b 60 707 494 801 278 754 l 60 699 b 479 414 200 604 339 508 l 479 408 b 39 99 332 306 186 201 l 39 88 b 747 -35 275 47 511 6 l 769 69 b 276 140 606 93 440 117 l 276 146 b 644 408 399 233 522 321 z "},"τ":{"ha":785,"x_min":0,"x_max":0,"o":"m 469 0 b 454 544 467 24 454 304 l 454 728 b 792 717 556 728 789 722 l 792 829 b 453 815 751 819 476 815 l 342 815 b -7 829 328 815 29 819 l -7 717 b 333 728 11 722 190 728 l 333 563 b 325 0 333 375 332 31 z "},"υ":{"ha":813,"x_min":0,"x_max":0,"o":"m 474 0 b 467 146 471 24 467 129 l 467 251 b 610 593 467 378 524 501 b 833 740 681 669 767 719 l 797 842 b 569 693 732 821 625 751 b 417 454 501 621 454 553 l 415 454 b 250 708 386 553 310 644 b 68 839 218 743 135 806 l 17 738 b 188 615 69 717 136 668 b 346 251 274 526 346 406 l 346 168 b 340 0 346 153 340 28 z "},"φ":{"ha":1138,"x_min":0,"x_max":0,"o":"m 632 -107 b 629 1 631 -67 629 -21 b 1069 442 897 31 1069 203 b 629 846 1069 689 839 836 b 635 936 629 861 632 894 l 508 936 b 513 842 510 897 511 860 b 72 393 292 819 72 665 b 511 -1 72 161 279 14 b 507 -107 511 -33 508 -64 z m 514 354 b 511 89 514 338 515 176 b 201 400 354 108 201 203 b 513 753 201 608 347 724 b 514 490 515 661 513 515 z m 628 488 b 628 754 628 549 626 689 b 940 435 776 740 940 654 b 629 90 940 201 781 114 b 628 351 628 154 628 303 z "},"χ":{"ha":915,"x_min":0,"x_max":0,"o":"m 136 -25 b 450 353 158 -3 436 332 b 768 -24 481 318 735 15 l 864 61 b 526 426 815 111 564 385 b 844 749 557 465 804 710 l 760 832 b 463 499 724 790 506 544 b 186 833 371 604 219 790 l 94 746 b 388 424 143 692 336 481 b 49 57 349 379 82 83 z "},"ψ":{"ha":1054,"x_min":0,"x_max":0,"o":"m 892 803 b 847 543 883 751 865 631 b 586 292 801 349 696 296 l 586 483 b 592 846 586 624 588 800 l 471 846 b 475 486 472 792 475 504 l 475 292 b 224 522 368 292 263 360 b 169 811 203 607 176 751 l 50 789 b 114 515 72 711 92 617 b 474 206 150 335 278 215 b 469 0 472 107 471 38 l 593 0 b 588 207 592 17 589 115 b 951 529 782 221 907 332 b 1008 782 975 631 986 711 z "},"ω":{"ha":1151,"x_min":0,"x_max":0,"o":"m 1104 99 b 860 90 1025 92 910 90 l 856 97 b 1032 456 942 157 1032 290 b 607 846 1032 690 846 846 b 124 406 307 846 124 633 b 257 106 124 268 211 143 l 253 97 b 19 103 215 96 90 99 l 15 -4 b 451 0 32 -6 425 -1 l 456 17 b 253 407 360 93 253 239 b 594 754 253 593 371 754 b 903 443 761 754 903 647 b 643 19 903 251 753 81 l 646 0 b 1110 -10 672 -1 1078 -14 z "},"ά":{"ha":986,"x_min":0,"x_max":0,"o":"m 126 -25 b 260 258 146 15 243 221 l 689 275 b 854 -24 701 254 832 21 l 967 44 b 478 868 885 168 585 700 l 475 868 b 19 36 447 822 86 154 z m 307 346 b 474 672 318 365 456 644 b 646 360 486 653 632 386 z m 131 599 l 192 597 l 217 849 l 103 843 z "},"έ":{"ha":733,"x_min":0,"x_max":0,"o":"m 622 93 b 304 89 504 86 335 89 l 304 369 b 431 368 318 369 374 368 b 569 365 489 367 549 365 l 565 467 b 304 454 489 460 328 454 l 304 743 b 607 749 325 743 553 749 l 601 849 b 179 826 539 844 210 826 b 183 500 181 804 183 519 l 183 343 b 179 0 183 315 183 63 b 626 -12 204 0 585 -12 z m 4 599 l 65 597 l 90 849 l -24 843 z "},"ή":{"ha":1143,"x_min":0,"x_max":0,"o":"m 310 0 b 304 297 308 28 304 244 l 304 369 l 839 392 l 839 272 b 832 0 839 250 836 40 l 965 0 b 960 333 963 22 960 318 l 960 451 b 969 826 960 479 967 799 l 835 826 b 839 568 836 800 839 588 l 839 479 l 304 457 l 304 543 b 311 826 304 564 308 806 l 176 826 b 183 486 179 799 183 507 l 183 358 b 179 0 183 328 182 51 z m 0 599 l 61 597 l 86 849 l -28 843 z "},"ί":{"ha":489,"x_min":0,"x_max":0,"o":"m 304 485 b 311 826 304 626 308 806 l 176 826 b 183 486 179 799 183 507 l 183 358 b 179 0 183 328 182 51 l 310 0 b 304 357 308 28 304 239 z m -7 599 l 54 597 l 79 849 l -35 843 z "},"ϊ":{"ha":489,"x_min":0,"x_max":0,"o":"m 304 485 b 311 826 304 626 308 806 l 176 826 b 183 486 179 799 183 507 l 183 358 b 179 0 183 328 182 51 l 310 0 b 304 357 308 28 304 239 z m 90 956 l 175 1040 l 90 1124 l 7 1040 z m 382 956 l 465 1040 l 382 1124 l 297 1040 z "},"ό":{"ha":1167,"x_min":0,"x_max":0,"o":"m 568 -19 b 1063 443 932 -19 1063 258 b 639 846 1063 697 883 846 b 140 371 333 846 140 633 b 568 -19 140 163 292 -19 z m 579 72 b 268 389 386 72 268 213 b 621 754 268 590 400 754 b 933 438 786 754 933 649 b 579 72 933 204 769 72 z m 28 599 l 89 597 l 114 849 l 0 843 z "},"ύ":{"ha":961,"x_min":0,"x_max":0,"o":"m 622 0 b 615 146 619 24 615 129 l 615 251 b 758 593 615 378 672 501 b 982 740 829 669 915 719 l 946 842 b 718 693 881 821 774 751 b 565 454 650 621 603 553 l 564 454 b 399 708 535 553 458 644 b 217 839 367 743 283 806 l 165 738 b 336 615 218 717 285 668 b 494 251 422 526 494 406 l 494 168 b 489 0 494 153 489 28 z m 0 599 l 61 597 l 86 849 l -28 843 z "},"ϋ":{"ha":813,"x_min":0,"x_max":0,"o":"m 474 0 b 467 146 471 24 467 129 l 467 251 b 610 593 467 378 524 501 b 833 740 681 669 767 719 l 797 842 b 569 693 732 821 625 751 b 417 454 501 621 454 553 l 415 454 b 250 708 386 553 310 644 b 68 839 218 743 135 806 l 17 738 b 188 615 69 717 136 668 b 346 251 274 526 346 406 l 346 168 b 340 0 346 153 340 28 z m 267 956 l 351 1040 l 267 1124 l 183 1040 z m 558 956 l 642 1040 l 558 1124 l 474 1040 z "},"ώ":{"ha":1151,"x_min":0,"x_max":0,"o":"m 1139 99 b 894 90 1060 92 944 90 l 890 97 b 1067 456 976 157 1067 290 b 642 846 1067 690 881 846 b 158 406 342 846 158 633 b 292 106 158 268 246 143 l 288 97 b 54 103 250 96 125 99 l 50 -4 b 486 0 67 -6 460 -1 l 490 17 b 288 407 394 93 288 239 b 629 754 288 593 406 754 b 938 443 796 754 938 647 b 678 19 938 251 788 81 l 681 0 b 1144 -10 707 -1 1113 -14 z m 26 599 l 88 597 l 113 849 l -1 843 z "},"ΐ":{"ha":489,"x_min":0,"x_max":0,"o":"m 304 485 b 311 826 304 626 308 806 l 176 826 b 183 486 179 799 183 507 l 183 358 b 179 0 183 328 182 51 l 310 0 b 304 357 308 28 304 239 z m 90 956 l 175 1040 l 90 1124 l 7 1040 z m 382 956 l 465 1040 l 382 1124 l 297 1040 z "},"ΰ":{"ha":813,"x_min":0,"x_max":0,"o":"m 474 0 b 467 146 471 24 467 129 l 467 251 b 610 593 467 378 524 501 b 833 740 681 669 767 719 l 797 842 b 569 693 732 821 625 751 b 417 454 501 621 454 553 l 415 454 b 250 708 386 553 310 644 b 68 839 218 743 135 806 l 17 738 b 188 615 69 717 136 668 b 346 251 274 526 346 406 l 346 168 b 340 0 346 153 340 28 z m 267 956 l 351 1040 l 267 1124 l 183 1040 z m 558 956 l 642 1040 l 558 1124 l 474 1040 z "},"ς":{"ha":824,"x_min":0,"x_max":0,"o":"m 644 425 b 292 660 526 503 410 582 l 292 665 b 738 747 440 693 589 719 l 713 849 b 60 707 494 801 278 754 l 60 699 b 479 414 200 604 339 508 l 479 408 b 39 99 332 306 186 201 l 39 88 b 747 -35 275 47 511 6 l 769 69 b 276 140 606 93 440 117 l 276 146 b 644 408 399 233 522 321 z "},";":{"ha":375,"x_min":0,"x_max":0,"o":"m 108 -96 l 164 -104 l 264 181 l 131 207 z m 113 539 l 263 539 l 263 688 l 113 688 z "},"ϰ":{"ha":914,"x_min":0,"x_max":0,"o":"m 310 -12 b 303 367 307 11 303 275 l 303 493 b 310 839 303 596 308 819 l 176 839 b 183 482 176 811 183 585 l 183 357 b 176 -12 183 222 179 22 z m 724 822 b 313 435 694 792 333 454 b 710 40 369 378 651 104 b 778 -94 754 -10 778 -49 b 704 -232 778 -139 768 -186 l 776 -299 b 889 -89 856 -236 889 -172 b 808 103 889 -21 867 31 b 457 443 746 182 500 399 b 797 732 525 506 747 693 z "},"·":{"ha":375,"x_min":0,"x_max":0,"o":"m 108 451 l 267 451 l 267 608 l 108 608 z "},"€":{"ha":982,"x_min":0,"x_max":0,"o":"m 346 482 b 751 497 457 486 557 489 l 756 588 b 369 567 558 574 478 569 b 803 864 436 731 622 828 l 779 968 b 244 558 496 904 313 743 b 133 556 219 556 158 556 l 131 467 b 222 472 167 471 193 471 b 217 408 218 453 217 429 b 218 376 217 392 217 382 b 125 374 189 375 142 374 l 126 285 b 233 292 154 288 207 292 b 735 13 281 157 418 13 b 846 18 781 13 825 15 l 836 121 b 747 111 818 117 772 111 b 358 296 533 111 408 183 b 738 300 471 297 560 299 l 740 389 b 340 379 560 385 447 381 b 339 422 340 392 339 410 b 346 482 339 443 343 465 z "},"ℓ":{"ha":714,"x_min":0,"x_max":0,"o":"m 285 704 b 375 894 285 840 328 894 b 456 771 421 894 456 858 b 285 426 456 656 392 536 z m 606 221 b 421 101 569 171 508 101 b 285 276 342 101 286 147 l 285 296 b 567 774 468 458 567 606 b 381 990 567 904 494 990 b 153 681 251 990 153 900 l 153 325 b 40 243 118 296 79 269 l 81 167 b 156 217 106 183 131 199 l 156 206 b 388 -14 172 76 244 -14 b 672 158 506 -14 604 39 z "},"℮":{"ha":1183,"x_min":0,"x_max":0,"o":"m 1389 583 l 1389 600 b 694 1225 1389 946 1078 1225 b 0 600 311 1225 0 946 b 694 -25 0 254 311 -25 b 1244 218 918 -25 1118 71 l 1143 218 b 697 13 1035 92 876 13 b 271 196 529 13 378 83 b 254 236 261 207 254 221 l 254 575 b 264 583 254 581 258 583 z m 1135 628 b 1126 618 1135 622 1132 618 l 264 618 b 254 628 258 618 254 622 l 254 963 b 272 1006 254 979 261 994 b 697 1188 379 1117 531 1188 b 1117 1011 861 1188 1010 1119 b 1135 969 1128 1000 1135 986 z "},"∂":{"ha":747,"x_min":0,"x_max":0,"o":"m 119 842 b 310 896 156 867 218 896 b 565 543 442 896 565 772 b 564 501 565 531 565 514 l 563 501 b 339 619 533 554 454 619 b 35 281 165 619 35 468 b 317 -15 35 133 124 -15 b 699 517 518 -15 699 165 b 324 1010 699 833 524 1010 b 76 935 201 1010 122 967 z m 329 97 b 174 282 238 97 174 167 b 364 510 174 411 258 510 b 549 382 457 510 526 447 b 331 97 531 233 447 97 z "},"∏":{"ha":867,"x_min":0,"x_max":0,"o":"m 853 789 l 853 903 l 13 903 l 13 789 l 142 789 l 142 -125 l 272 -125 l 272 789 l 593 789 l 593 -125 l 724 -125 l 724 789 z "},"∑":{"ha":714,"x_min":0,"x_max":0,"o":"m 721 -125 l 721 -11 l 192 -11 l 192 -6 l 506 390 l 208 785 l 208 789 l 678 789 l 678 903 l 32 903 l 32 811 l 354 386 l 14 -43 l 14 -125 z "},"∙":{"ha":375,"x_min":0,"x_max":0,"o":"m 110 389 l 265 389 l 265 543 l 110 543 z "},"√":{"ha":788,"x_min":0,"x_max":0,"o":"m 813 1151 l 711 1151 l 460 106 b 439 11 451 72 444 36 l 438 11 b 410 104 431 38 421 74 l 243 572 l 42 489 l 69 418 l 174 461 l 396 -128 l 493 -128 z "},"∞":{"ha":1017,"x_min":0,"x_max":0,"o":"m 756 157 b 971 368 881 157 971 254 b 767 576 971 489 886 576 b 508 431 651 576 581 500 b 261 576 442 496 365 576 b 46 368 136 576 46 479 b 250 157 46 244 131 157 b 508 304 365 157 436 233 b 754 157 575 238 651 157 z m 756 247 b 569 368 678 247 621 319 b 760 486 621 421 683 486 b 874 368 825 486 874 436 b 757 247 874 303 824 247 z m 257 247 b 143 368 192 247 143 299 b 261 486 143 432 193 486 b 447 367 339 486 396 415 b 258 247 396 314 333 247 z "},"∫":{"ha":450,"x_min":0,"x_max":0,"o":"m 436 1099 b 371 1108 422 1104 397 1108 b 240 1054 321 1108 275 1092 b 167 778 189 1000 167 919 b 183 121 167 571 183 336 b 142 -89 183 -8 165 -60 b 81 -118 125 -108 103 -118 b 31 -110 61 -118 43 -114 l 13 -199 b 92 -212 28 -206 60 -212 b 235 -139 150 -212 201 -189 b 290 122 267 -93 290 -11 b 274 769 290 336 274 565 b 313 985 274 890 286 950 b 376 1017 328 1007 351 1017 b 419 1011 392 1017 407 1014 z "},"≈":{"ha":828,"x_min":0,"x_max":0,"o":"m 738 583 b 579 500 704 547 643 500 b 422 547 511 500 464 531 b 247 597 378 567 328 597 b 32 486 157 597 76 542 l 85 422 b 246 506 121 463 182 506 b 403 458 315 506 361 475 b 579 408 449 439 500 408 b 793 521 668 408 749 461 z m 744 304 b 583 221 710 264 649 221 b 428 268 515 221 469 251 b 251 318 382 288 332 318 b 38 208 164 318 82 265 l 89 143 b 250 226 126 183 188 226 b 408 179 319 226 367 196 b 583 129 453 160 506 129 b 799 244 672 129 754 182 z "},"≠":{"ha":828,"x_min":0,"x_max":0,"o":"m 772 188 l 772 279 l 401 279 l 521 467 l 772 467 l 772 558 l 579 558 l 685 722 l 586 722 l 483 558 l 56 558 l 56 467 l 425 467 l 306 279 l 56 279 l 56 188 l 247 188 l 142 24 l 240 24 l 343 188 z "},"≤":{"ha":828,"x_min":0,"x_max":0,"o":"m 739 142 l 739 243 l 217 449 l 217 451 l 739 657 l 739 758 l 90 496 l 90 406 z m 739 0 l 739 88 l 93 88 l 93 0 z "},"≥":{"ha":828,"x_min":0,"x_max":0,"o":"m 738 406 l 738 496 l 89 758 l 89 657 l 611 451 l 611 449 l 89 243 l 89 142 z m 735 0 l 735 88 l 89 88 l 89 0 z "},"◊":{"ha":738,"x_min":0,"x_max":0,"o":"m 678 451 l 422 947 l 315 947 l 61 451 l 315 -44 l 422 -44 z m 561 449 l 388 93 b 372 60 383 83 376 71 l 369 60 b 354 93 367 71 360 83 l 178 454 l 351 808 b 365 843 356 818 363 832 l 368 843 b 383 808 372 832 378 818 z "},"ˉ":{"ha":1181,"x_min":0,"x_max":0,"o":"m 399 1069 l 776 1063 l 782 1151 l 410 1147 z "},"":{"ha":982,"x_min":0,"x_max":0,"o":"m 743 1001 b 688 908 732 979 713 949 b 501 950 632 936 569 950 b 50 485 267 950 50 765 b 203 124 50 318 113 199 b 143 29 178 81 157 49 l 228 -29 b 283 68 238 -11 253 15 b 475 24 343 39 410 24 b 932 496 754 24 932 254 b 769 860 932 651 871 779 b 831 953 804 913 819 938 z m 494 132 b 342 169 436 132 385 146 b 529 483 396 263 461 374 b 701 756 592 585 657 686 b 810 501 768 692 810 600 b 494 132 810 250 635 132 z m 489 842 b 626 807 539 842 585 829 b 461 542 578 728 519 636 b 268 228 392 432 324 319 b 172 478 204 294 172 389 b 489 842 172 689 307 842 z "},"":{"ha":1049,"x_min":0,"x_max":0,"o":"m 508 24 b 965 496 788 24 965 254 b 535 950 965 765 782 950 b 83 485 300 950 83 765 b 508 24 83 176 299 24 z m 528 132 b 206 478 314 132 206 315 b 522 842 206 689 340 842 b 843 501 703 842 843 683 b 528 132 843 250 668 132 z "},"":{"ha":617,"x_min":0,"x_max":0,"o":"m 419 0 b 417 368 415 43 417 168 l 417 582 b 428 1000 417 769 428 954 l 424 1000 b 47 642 383 954 74 665 l 110 567 b 297 758 150 608 257 711 l 297 399 b 289 0 297 211 289 36 z "},"":{"ha":806,"x_min":0,"x_max":0,"o":"m 682 108 l 268 93 l 267 99 b 626 606 389 197 626 381 b 131 996 626 790 446 958 l 106 882 b 492 593 269 874 492 788 b 0 14 492 369 186 140 l 3 0 l 160 0 b 682 -11 361 -1 647 -7 z "},"":{"ha":686,"x_min":0,"x_max":0,"o":"m 122 896 b 429 718 265 894 429 833 b 154 522 429 610 267 533 l 154 481 b 447 304 258 476 447 429 b 57 78 447 143 215 67 l 65 -35 b 589 311 319 -28 589 122 b 386 514 589 422 494 486 l 386 517 b 558 740 457 547 558 642 b 139 1003 558 906 300 994 z "},"":{"ha":819,"x_min":0,"x_max":0,"o":"m 614 1015 l 606 1015 l 1 238 l 4 226 l 499 226 l 499 178 b 492 0 499 100 493 39 l 615 0 b 613 163 614 40 613 107 l 613 228 l 756 224 l 765 328 l 614 324 z m 501 325 l 192 325 b 499 738 242 394 453 668 l 501 738 z "},"":{"ha":694,"x_min":0,"x_max":0,"o":"m 242 868 l 601 865 l 603 986 b 157 969 531 981 199 971 l 100 621 b 456 400 319 600 456 521 b 68 78 456 219 219 106 l 99 -31 b 588 422 319 17 588 214 b 215 718 588 536 521 667 z "},"":{"ha":781,"x_min":0,"x_max":0,"o":"m 493 1008 b 83 300 304 875 83 575 b 168 54 83 189 113 113 b 364 -22 221 0 285 -22 b 697 317 528 -22 697 117 b 289 608 697 492 521 617 b 565 913 357 750 494 871 z m 208 308 b 246 513 208 396 221 454 b 567 289 408 524 567 443 b 374 79 567 178 489 79 b 208 308 278 79 208 167 z "},"":{"ha":674,"x_min":0,"x_max":0,"o":"m 28 868 l 507 865 b 151 38 493 831 181 81 l 274 -22 b 660 968 303 54 638 932 l 657 972 b 22 985 525 972 125 981 z "},"":{"ha":846,"x_min":0,"x_max":0,"o":"m 424 904 b 594 729 515 904 594 844 b 417 547 594 617 517 547 b 249 725 314 547 249 636 b 424 904 249 810 299 904 z m 436 994 b 121 724 232 996 121 849 b 272 500 121 626 181 538 b 110 243 179 449 110 347 b 413 -22 110 100 204 -22 b 736 263 642 -22 736 146 b 564 513 736 378 674 467 b 722 747 675 563 722 667 b 436 994 722 896 604 994 z m 419 68 b 239 247 308 68 239 156 b 418 454 239 357 301 454 b 604 254 522 454 604 378 b 419 68 604 142 528 68 z "},"":{"ha":779,"x_min":0,"x_max":0,"o":"m 293 -36 b 696 679 482 97 696 388 b 407 994 696 861 583 994 b 83 661 240 994 83 847 b 494 375 83 488 260 364 b 221 60 422 222 292 103 z m 565 660 b 533 468 565 582 550 510 b 213 688 367 453 213 526 b 399 894 213 796 289 894 b 565 660 497 894 565 815 z "},"":{"ha":1179,"x_min":0,"x_max":0,"o":"m 289 379 b 542 604 478 379 542 531 b 310 826 542 753 447 826 b 50 594 142 826 50 697 b 289 379 50 481 129 379 z m 292 451 b 151 597 208 451 151 519 b 303 754 151 665 197 754 b 439 603 374 754 439 711 b 292 451 439 504 369 451 z m 876 0 b 1129 225 1065 0 1129 151 b 897 447 1129 374 1035 447 b 638 215 729 447 638 318 b 876 0 638 101 717 0 z m 879 72 b 739 218 796 72 739 140 b 890 375 739 285 785 375 b 1026 221 961 375 1026 331 b 879 72 1026 124 957 72 z m 365 -25 b 638 411 403 38 518 226 b 907 807 751 586 869 754 l 822 856 b 568 461 786 793 678 626 b 282 28 446 275 326 86 z "},"":{"ha":1735,"x_min":0,"x_max":0,"o":"m 289 379 b 542 604 478 379 542 531 b 310 826 542 753 447 826 b 50 594 142 826 50 697 b 289 379 50 481 129 379 z m 292 451 b 151 597 208 451 151 519 b 303 754 151 665 197 754 b 439 603 374 754 439 711 b 292 451 439 504 369 451 z m 876 0 b 1129 225 1065 0 1129 151 b 897 447 1129 374 1035 447 b 638 215 729 447 638 318 b 876 0 638 101 717 0 z m 879 72 b 739 218 796 72 739 140 b 890 375 739 285 785 375 b 1026 221 961 375 1026 331 b 879 72 1026 124 957 72 z m 1432 0 b 1685 225 1621 0 1685 151 b 1453 447 1685 374 1590 447 b 1193 215 1285 447 1193 318 b 1432 0 1193 101 1272 0 z m 1435 72 b 1294 218 1351 72 1294 140 b 1446 375 1294 285 1340 375 b 1582 221 1517 375 1582 331 b 1435 72 1582 124 1513 72 z m 365 -25 b 638 411 403 38 518 226 b 907 807 751 586 869 754 l 822 856 b 568 461 786 793 678 626 b 282 28 446 275 326 86 z "},"":{"ha":892,"x_min":0,"x_max":0,"o":"m 432 18 b 846 421 683 18 846 215 b 457 808 846 651 679 808 b 49 413 244 808 49 651 b 432 18 49 149 244 18 z m 450 115 b 167 406 260 115 167 268 b 444 713 167 586 285 713 b 726 426 604 713 726 581 b 450 115 726 213 574 115 z "},"":{"ha":892,"x_min":0,"x_max":0,"o":"m 574 0 b 571 313 569 36 571 143 l 571 494 b 579 850 571 654 579 811 l 571 850 b 232 546 528 811 256 565 l 290 475 b 457 636 326 510 421 596 l 457 339 b 449 0 457 179 449 31 z "},"":{"ha":892,"x_min":0,"x_max":0,"o":"m 685 96 l 317 83 l 315 88 b 638 515 421 168 638 324 b 189 846 638 672 472 815 l 165 746 b 510 504 314 739 510 669 b 71 15 510 314 239 122 l 74 0 l 215 0 b 685 -10 396 -1 653 -6 z "},"":{"ha":892,"x_min":0,"x_max":0,"o":"m 238 758 b 510 615 367 758 510 713 b 267 453 510 524 368 460 l 267 406 b 529 257 360 403 529 364 b 179 69 529 121 322 65 l 186 -32 b 661 263 415 -26 661 103 b 479 440 661 357 572 415 l 479 442 b 633 635 539 468 633 551 b 253 856 633 775 397 851 z "},"":{"ha":892,"x_min":0,"x_max":0,"o":"m 631 863 l 615 863 l 72 201 l 76 188 l 521 188 l 521 146 b 515 0 521 79 517 33 l 632 0 b 629 132 631 35 629 85 l 629 188 l 758 185 l 767 281 l 631 276 z m 524 278 l 253 278 b 521 621 299 335 479 564 l 524 621 z "},"":{"ha":892,"x_min":0,"x_max":0,"o":"m 354 738 l 674 736 l 675 844 b 274 829 610 839 311 831 l 222 524 b 540 338 421 507 540 447 b 193 68 540 186 329 92 l 221 -29 b 664 356 428 14 664 179 b 332 608 664 453 601 567 z "},"":{"ha":892,"x_min":0,"x_max":0,"o":"m 542 864 b 167 257 368 747 167 490 b 246 44 167 163 196 94 b 425 -19 293 -3 354 -19 b 728 271 572 -19 728 100 b 358 519 728 419 568 528 b 611 778 419 640 544 739 z m 288 264 b 321 435 288 338 299 385 b 603 247 468 443 603 376 b 433 71 603 153 538 71 b 288 264 347 71 288 147 z "},"":{"ha":892,"x_min":0,"x_max":0,"o":"m 179 738 l 607 736 b 283 28 593 706 310 68 l 399 -24 b 749 825 425 46 726 790 l 746 831 b 174 842 626 831 267 838 z "},"":{"ha":892,"x_min":0,"x_max":0,"o":"m 450 769 b 600 625 533 769 600 724 b 443 469 600 529 532 469 b 294 622 351 469 294 546 b 450 769 294 694 339 769 z m 461 851 b 172 621 276 851 172 726 b 308 426 172 538 226 460 b 160 204 225 382 160 293 b 439 -22 160 82 251 -22 b 735 221 646 -22 735 121 b 579 438 735 318 679 397 b 721 640 679 481 721 572 b 461 851 721 767 613 851 z m 446 60 b 285 207 347 60 285 129 b 444 383 285 300 340 383 b 611 214 536 383 611 318 b 446 60 611 118 542 60 z "},"":{"ha":892,"x_min":0,"x_max":0,"o":"m 361 -35 b 729 581 533 82 729 332 b 463 850 729 735 629 850 b 165 565 310 850 165 724 b 543 318 165 417 325 307 b 290 49 475 188 356 88 z m 454 760 b 608 564 547 760 608 696 b 582 400 608 497 596 436 b 289 588 424 388 289 450 b 454 760 289 679 354 760 z "},"":{"ha":892,"x_min":0,"x_max":0,"o":"m 326 407 b 688 419 422 411 513 413 l 692 501 b 346 483 514 489 443 486 b 733 728 406 625 571 699 l 713 822 b 232 476 457 768 293 632 b 132 474 208 474 154 474 l 129 394 b 211 399 161 397 185 397 b 207 349 207 385 207 367 l 207 322 b 124 321 182 322 139 321 l 125 240 b 221 247 150 243 197 247 b 672 11 264 133 388 11 b 772 15 714 11 754 13 l 764 111 b 683 103 747 107 707 103 b 339 250 492 103 388 154 b 675 254 440 251 515 253 l 678 333 b 322 325 515 329 414 326 b 321 358 322 333 321 349 b 326 407 321 376 324 396 z "},"":{"ha":892,"x_min":0,"x_max":0,"o":"m 414 0 l 414 99 b 419 313 414 169 415 249 b 644 321 461 315 594 319 l 650 410 b 422 397 600 406 475 397 b 426 439 424 414 425 429 b 708 738 464 713 611 731 l 688 846 b 314 451 504 808 349 696 b 297 56 296 326 297 89 l 297 0 z "},"":{"ha":892,"x_min":0,"x_max":0,"o":"m 729 96 b 351 90 574 92 425 90 b 411 340 381 178 397 263 b 651 347 496 344 585 347 l 657 436 b 425 419 601 431 515 425 b 435 465 429 435 432 450 b 731 742 483 694 582 724 l 708 846 b 321 485 514 807 367 708 b 308 414 315 461 313 438 b 165 407 260 411 210 408 l 165 324 b 296 332 207 326 250 329 b 225 0 279 231 263 122 b 729 -6 300 0 678 -6 z "},"":{"ha":892,"x_min":0,"x_max":0,"o":"m 514 0 b 508 156 511 25 508 138 l 508 260 b 715 258 604 260 683 260 l 713 340 b 506 338 679 339 604 338 b 831 774 606 467 785 717 l 731 835 b 463 421 674 742 546 542 l 460 421 b 193 836 374 540 258 732 l 93 769 b 396 339 163 678 307 467 b 190 340 293 338 218 339 l 192 258 b 397 260 222 260 300 260 l 397 179 b 390 0 397 163 392 29 z "},"":{"ha":892,"x_min":0,"x_max":0,"o":"m 383 929 l 388 757 b 233 576 329 726 233 660 b 418 394 233 497 322 443 b 538 272 510 347 538 325 b 250 124 538 213 428 138 l 268 28 b 388 56 290 29 360 46 l 383 -100 l 481 -100 l 476 85 b 663 299 538 107 663 201 b 499 471 663 389 583 432 b 360 597 404 514 360 542 b 615 728 360 672 517 729 l 603 828 b 476 796 583 826 496 806 l 481 929 z "},"":{"ha":892,"x_min":0,"x_max":0,"o":"m 513 -19 l 610 -19 l 606 154 b 685 150 626 153 654 150 b 786 158 715 150 754 153 l 778 254 b 683 244 750 249 719 244 b 435 408 554 244 435 299 b 760 651 435 518 533 631 l 746 754 b 606 717 694 744 643 733 l 610 889 l 513 889 l 515 679 b 310 393 396 619 310 514 b 515 174 310 340 361 207 z "},"":{"ha":986,"x_min":0,"x_max":0,"o":"m 126 -25 b 260 258 146 15 243 221 l 689 275 b 854 -24 701 254 832 21 l 967 44 b 478 868 885 168 585 700 l 475 868 b 19 36 447 822 86 154 z m 307 346 b 474 672 318 365 456 644 b 646 360 486 653 632 386 z m 625 1104 b 483 1032 592 1065 544 1032 b 326 1104 410 1032 358 1068 l 275 1044 b 472 949 311 1000 406 949 b 672 1047 543 949 628 997 z "},"":{"ha":986,"x_min":0,"x_max":0,"o":"m 126 -25 b 260 258 146 15 243 221 l 689 275 b 854 -24 701 254 832 21 l 967 44 b 478 868 885 168 585 700 l 475 868 b 19 36 447 822 86 154 z m 307 346 b 474 672 318 365 456 644 b 646 360 486 653 632 386 z m 293 960 l 651 954 l 657 1038 l 303 1035 z "},"":{"ha":986,"x_min":0,"x_max":0,"o":"m 307 346 b 474 672 318 365 456 644 b 646 360 486 653 632 386 z m 126 -25 b 260 258 146 15 243 221 l 689 275 b 833 14 700 257 801 75 b 664 -154 722 -50 664 -100 b 864 -292 664 -222 765 -275 l 881 -237 b 763 -137 799 -221 763 -174 b 858 -21 763 -108 794 -58 l 967 44 b 478 868 885 168 585 700 l 475 868 b 19 36 447 822 86 154 z "},"":{"ha":815,"x_min":0,"x_max":0,"o":"m 760 94 b 626 81 731 88 678 81 b 207 350 325 81 207 211 b 718 742 207 556 443 708 l 699 847 b 78 331 267 771 78 531 b 614 -19 78 217 183 -19 b 772 -10 690 -19 749 -14 z m 472 985 l 506 938 l 715 1049 l 653 1140 z "},"":{"ha":815,"x_min":0,"x_max":0,"o":"m 760 94 b 626 81 731 88 678 81 b 207 350 325 81 207 211 b 718 742 207 556 443 708 l 699 847 b 78 331 267 771 78 531 b 614 -19 78 217 183 -19 b 772 -10 690 -19 749 -14 z m 558 943 l 743 1072 l 692 1135 l 560 1026 l 414 1135 l 361 1072 z "},"":{"ha":1003,"x_min":0,"x_max":0,"o":"m 183 374 b 175 -6 183 342 181 49 b 936 510 507 -6 936 132 b 488 819 936 592 900 788 b 176 826 378 828 249 826 b 183 519 182 793 183 544 z m 303 733 b 808 482 621 739 808 664 b 303 97 808 310 642 119 z m 457 943 l 642 1072 l 590 1135 l 458 1026 l 313 1135 l 260 1072 z "},"":{"ha":1010,"x_min":0,"x_max":0,"o":"m 190 374 l 190 339 b 182 -6 190 307 188 49 b 943 504 532 -6 943 143 b 496 819 943 592 913 782 b 183 826 386 829 256 826 b 190 519 189 793 190 544 l 190 456 b 60 450 126 453 85 450 l 64 367 b 190 374 89 368 131 371 z m 310 381 b 518 386 379 383 456 385 l 515 472 b 310 461 458 469 381 464 l 310 733 b 815 479 628 738 815 668 b 310 97 815 299 649 125 z "},"":{"ha":733,"x_min":0,"x_max":0,"o":"m 622 93 b 304 89 504 86 335 89 l 304 369 b 431 368 318 369 374 368 b 569 365 489 367 549 365 l 565 467 b 304 454 489 460 328 454 l 304 743 b 607 749 325 743 553 749 l 601 849 b 179 826 539 844 210 826 b 183 500 181 804 183 519 l 183 343 b 179 0 183 315 183 63 b 626 -12 204 0 585 -12 z m 406 943 l 590 1072 l 539 1135 l 407 1026 l 261 1135 l 208 1072 z "},"":{"ha":733,"x_min":0,"x_max":0,"o":"m 622 93 b 304 89 504 86 335 89 l 304 369 b 431 368 318 369 374 368 b 569 365 489 367 549 365 l 565 467 b 304 454 489 460 328 454 l 304 743 b 607 749 325 743 553 749 l 601 849 b 179 826 539 844 210 826 b 183 500 181 804 183 519 l 183 343 b 179 0 183 315 183 63 b 626 -12 204 0 585 -12 z m 407 957 l 500 1050 l 407 1143 l 314 1050 z "},"":{"ha":733,"x_min":0,"x_max":0,"o":"m 622 93 b 304 89 504 86 335 89 l 304 369 b 431 368 318 369 374 368 b 569 365 489 367 549 365 l 565 467 b 304 454 489 460 328 454 l 304 743 b 607 749 325 743 553 749 l 601 849 b 179 826 539 844 210 826 b 183 500 181 804 183 519 l 183 343 b 179 0 183 315 183 63 b 626 -12 204 0 585 -12 z m 208 960 l 567 954 l 572 1038 l 218 1035 z "},"":{"ha":733,"x_min":0,"x_max":0,"o":"m 622 93 b 304 89 504 86 335 89 l 304 369 b 431 368 318 369 374 368 b 569 365 489 367 549 365 l 565 467 b 304 454 489 460 328 454 l 304 743 b 607 749 325 743 553 749 l 601 849 b 179 826 539 844 210 826 b 183 500 181 804 183 519 l 183 343 b 179 0 183 315 183 63 b 521 -10 199 0 425 -7 b 386 -154 447 -47 386 -99 b 586 -292 386 -222 488 -275 l 603 -237 b 485 -137 521 -221 485 -174 b 594 -11 485 -106 525 -54 b 626 -12 619 -12 624 -12 z "},"":{"ha":914,"x_min":0,"x_max":0,"o":"m 808 271 l 808 361 l 685 361 b 689 279 686 354 689 314 l 689 88 b 558 71 664 78 611 71 b 206 325 308 71 206 201 b 713 740 206 513 439 689 l 688 849 b 76 326 224 728 76 465 b 532 -19 76 131 246 -19 b 811 18 638 -19 754 -3 b 808 185 811 33 808 139 z m 714 1104 b 572 1032 681 1065 633 1032 b 415 1104 499 1032 447 1068 l 364 1044 b 561 949 400 1000 494 949 b 761 1047 632 949 717 997 z "},"":{"ha":914,"x_min":0,"x_max":0,"o":"m 808 271 l 808 361 l 685 361 b 689 279 686 354 689 314 l 689 88 b 558 71 664 78 611 71 b 206 325 308 71 206 201 b 713 740 206 513 439 689 l 688 849 b 76 326 224 728 76 465 b 532 -19 76 131 246 -19 b 811 18 638 -19 754 -3 b 808 185 811 33 808 139 z m 375 -286 l 415 -306 l 539 -104 l 440 -60 z "},"":{"ha":489,"x_min":0,"x_max":0,"o":"m 304 485 b 311 826 304 626 308 806 l 176 826 b 183 486 179 799 183 507 l 183 358 b 179 0 183 328 182 51 l 310 0 b 304 357 308 28 304 239 z m 58 960 l 417 954 l 422 1038 l 68 1035 z "},"":{"ha":489,"x_min":0,"x_max":0,"o":"m 281 -237 b 163 -137 199 -221 163 -174 b 286 0 163 -106 204 -54 l 310 0 b 304 357 308 28 304 239 l 304 485 b 311 826 304 626 308 806 l 176 826 b 183 486 179 799 183 507 l 183 358 b 179 0 183 328 182 51 l 217 0 b 64 -154 121 -51 64 -101 b 264 -292 64 -222 165 -275 z "},"":{"ha":914,"x_min":0,"x_max":0,"o":"m 310 -12 b 303 367 307 11 303 275 l 303 493 b 310 839 303 596 308 819 l 176 839 b 183 482 176 811 183 585 l 183 357 b 176 -12 183 222 179 22 z m 843 83 b 457 443 793 128 496 397 b 797 732 525 506 747 693 l 724 822 b 313 435 694 792 333 454 b 757 -11 367 376 742 6 z m 375 -258 l 415 -278 l 539 -76 l 440 -32 z "},"":{"ha":683,"x_min":0,"x_max":0,"o":"m 178 826 b 183 500 181 804 183 519 l 183 343 b 172 0 183 315 183 63 b 619 -12 204 0 579 -12 l 619 99 b 304 93 485 93 335 93 l 304 419 b 315 826 304 568 310 800 z m 156 985 l 189 938 l 399 1049 l 336 1140 z "},"":{"ha":683,"x_min":0,"x_max":0,"o":"m 178 826 b 183 500 181 804 183 519 l 183 343 b 172 0 183 315 183 63 b 619 -12 204 0 579 -12 l 619 99 b 304 93 485 93 335 93 l 304 419 b 315 826 304 568 310 800 z m 454 600 l 494 581 l 618 782 l 519 826 z "},"":{"ha":683,"x_min":0,"x_max":0,"o":"m 178 826 b 183 500 181 804 183 519 l 183 343 b 172 0 183 315 183 63 b 619 -12 204 0 579 -12 l 619 99 b 304 93 485 93 335 93 l 304 419 b 315 826 304 568 310 800 z m 288 -286 l 328 -306 l 451 -104 l 353 -60 z "},"":{"ha":1115,"x_min":0,"x_max":0,"o":"m 268 -8 b 274 631 267 31 276 608 l 276 631 b 936 -25 292 614 900 7 l 942 -25 b 976 826 947 272 971 756 l 853 832 b 849 214 851 793 849 247 b 194 874 810 251 231 835 l 188 874 b 140 0 182 751 147 89 z m 469 957 l 503 910 l 713 1021 l 650 1113 z "},"":{"ha":1115,"x_min":0,"x_max":0,"o":"m 268 -8 b 274 631 267 31 276 608 l 276 631 b 936 -25 292 614 900 7 l 942 -25 b 976 826 947 272 971 756 l 853 832 b 849 214 851 793 849 247 b 194 874 810 251 231 835 l 188 874 b 140 0 182 751 147 89 z m 569 915 l 754 1044 l 703 1107 l 571 999 l 425 1107 l 372 1044 z "},"":{"ha":1115,"x_min":0,"x_max":0,"o":"m 268 -8 b 274 631 267 31 276 608 l 276 631 b 936 -25 292 614 900 7 l 942 -25 b 976 826 947 272 971 756 l 853 832 b 849 214 851 793 849 247 b 194 874 810 251 231 835 l 188 874 b 140 0 182 751 147 89 z m 476 -258 l 517 -278 l 640 -76 l 542 -32 z "},"":{"ha":1075,"x_min":0,"x_max":0,"o":"m 504 -19 b 999 443 868 -19 999 258 b 575 846 999 697 819 846 b 76 371 269 846 76 633 b 504 -19 76 163 228 -19 z m 515 72 b 204 389 322 72 204 213 b 557 754 204 590 336 754 b 869 438 722 754 869 649 b 515 72 869 204 706 72 z m 582 976 l 625 939 l 804 1090 l 731 1161 z m 410 976 l 456 940 l 606 1090 l 528 1156 z "},"":{"ha":1075,"x_min":0,"x_max":0,"o":"m 504 -19 b 999 443 868 -19 999 258 b 575 846 999 697 819 846 b 76 371 269 846 76 633 b 504 -19 76 163 228 -19 z m 515 72 b 204 389 322 72 204 213 b 557 754 204 590 336 754 b 869 438 722 754 869 649 b 515 72 869 204 706 72 z m 365 960 l 724 954 l 729 1038 l 375 1035 z "},"":{"ha":856,"x_min":0,"x_max":0,"o":"m 304 736 b 583 608 540 735 583 664 b 394 394 583 490 457 426 b 732 -22 432 344 718 -6 l 828 63 b 536 385 792 97 568 342 b 715 626 640 446 715 529 b 451 817 715 729 618 797 b 176 826 346 829 236 826 b 183 524 181 804 183 560 l 183 428 b 181 0 183 403 185 28 l 311 0 b 304 361 308 18 304 317 z m 353 985 l 386 938 l 596 1049 l 533 1140 z "},"":{"ha":856,"x_min":0,"x_max":0,"o":"m 304 736 b 583 608 540 735 583 664 b 394 394 583 490 457 426 b 732 -22 432 344 718 -6 l 828 63 b 536 385 792 97 568 342 b 715 626 640 446 715 529 b 451 817 715 729 618 797 b 176 826 346 829 236 826 b 183 524 181 804 183 560 l 183 428 b 181 0 183 403 185 28 l 311 0 b 304 361 308 18 304 317 z m 439 943 l 624 1072 l 572 1135 l 440 1026 l 294 1135 l 242 1072 z "},"":{"ha":856,"x_min":0,"x_max":0,"o":"m 304 736 b 583 608 540 735 583 664 b 394 394 583 490 457 426 b 732 -22 432 344 718 -6 l 828 63 b 536 385 792 97 568 342 b 715 626 640 446 715 529 b 451 817 715 729 618 797 b 176 826 346 829 236 826 b 183 524 181 804 183 560 l 183 428 b 181 0 183 403 185 28 l 311 0 b 304 361 308 18 304 317 z m 346 -286 l 386 -306 l 510 -104 l 411 -60 z "},"":{"ha":667,"x_min":0,"x_max":0,"o":"m 178 -22 b 565 274 425 28 565 151 b 386 463 565 372 482 410 b 242 589 332 493 242 525 b 513 751 242 692 431 739 l 486 849 b 114 569 307 817 114 701 b 301 381 114 483 193 433 b 436 246 393 336 436 307 b 146 75 436 151 274 100 z m 286 985 l 319 938 l 529 1049 l 467 1140 z "},"":{"ha":667,"x_min":0,"x_max":0,"o":"m 178 -22 b 271 1 210 -15 240 -8 l 206 -100 b 292 -186 247 -115 292 -151 b 163 -264 292 -235 225 -261 l 176 -321 b 392 -182 289 -310 392 -250 b 293 -83 392 -136 340 -97 l 381 47 b 565 274 500 107 565 190 b 386 463 565 372 482 410 b 242 589 332 493 242 525 b 513 751 242 692 431 739 l 486 849 b 114 569 307 817 114 701 b 301 381 114 483 193 433 b 436 246 393 336 436 307 b 146 75 436 151 274 100 z "},"":{"ha":667,"x_min":0,"x_max":0,"o":"m 178 -22 b 565 274 425 28 565 151 b 386 463 565 372 482 410 b 242 589 332 493 242 525 b 513 751 242 692 431 739 l 486 849 b 114 569 307 817 114 701 b 301 381 114 483 193 433 b 436 246 393 336 436 307 b 146 75 436 151 274 100 z m 251 -286 l 292 -306 l 415 -104 l 317 -60 z "},"":{"ha":785,"x_min":0,"x_max":0,"o":"m 469 0 b 454 544 467 24 454 304 l 454 728 b 792 717 556 728 789 722 l 792 829 b 453 815 751 819 476 815 l 342 815 b -7 829 328 815 29 819 l -7 717 b 333 728 11 722 190 728 l 333 563 b 325 0 333 375 332 31 z m 404 943 l 589 1072 l 538 1135 l 406 1026 l 260 1135 l 207 1072 z "},"":{"ha":785,"x_min":0,"x_max":0,"o":"m 469 0 b 454 544 467 24 454 304 l 454 728 b 792 717 556 728 789 722 l 792 829 b 453 815 751 819 476 815 l 342 815 b -7 829 328 815 29 819 l -7 717 b 333 728 11 722 190 728 l 333 563 b 325 0 333 375 332 31 z m 311 -286 l 351 -306 l 475 -104 l 376 -60 z "},"":{"ha":1028,"x_min":0,"x_max":0,"o":"m 250 626 b 256 821 250 735 254 790 l 131 821 b 129 653 131 793 129 707 l 129 589 b 213 122 129 303 154 210 b 501 -19 301 -10 433 -19 b 800 107 636 -19 725 21 b 911 586 894 217 911 360 l 911 642 b 910 839 911 735 910 813 l 783 839 b 790 643 785 794 790 725 l 790 603 b 731 189 790 417 789 275 b 518 76 689 126 626 76 b 308 190 428 76 357 111 b 250 547 261 268 250 356 z m 503 976 l 546 939 l 725 1090 l 651 1161 z m 331 976 l 376 940 l 526 1090 l 449 1156 z "},"":{"ha":1028,"x_min":0,"x_max":0,"o":"m 250 626 b 256 821 250 735 254 790 l 131 821 b 129 653 131 793 129 707 l 129 589 b 213 122 129 303 154 210 b 501 -19 301 -10 433 -19 b 800 107 636 -19 725 21 b 911 586 894 217 911 360 l 911 642 b 910 839 911 735 910 813 l 783 839 b 790 643 785 794 790 725 l 790 603 b 731 189 790 417 789 275 b 518 76 689 126 626 76 b 308 190 428 76 357 111 b 250 547 261 268 250 356 z m 342 960 l 700 954 l 706 1038 l 351 1035 z "},"":{"ha":1028,"x_min":0,"x_max":0,"o":"m 617 -237 b 499 -137 535 -221 499 -174 b 615 -7 499 -106 542 -51 b 800 107 690 11 749 49 b 911 586 894 217 911 360 l 911 642 b 910 839 911 735 910 813 l 783 839 b 790 643 785 794 790 725 l 790 603 b 731 189 790 417 789 275 b 518 76 689 126 626 76 b 308 190 428 76 357 111 b 250 547 261 268 250 356 l 250 626 b 256 821 250 735 254 790 l 131 821 b 129 653 131 793 129 707 l 129 589 b 213 122 129 303 154 210 b 501 -19 301 -10 433 -19 b 518 -18 507 -19 513 -19 b 400 -154 454 -54 400 -103 b 600 -292 400 -222 501 -275 z "},"":{"ha":1028,"x_min":0,"x_max":0,"o":"m 250 626 b 256 821 250 735 254 790 l 131 821 b 129 653 131 793 129 707 l 129 589 b 213 122 129 303 154 210 b 501 -19 301 -10 433 -19 b 800 107 636 -19 725 21 b 911 586 894 217 911 360 l 911 642 b 910 839 911 735 910 813 l 783 839 b 790 643 785 794 790 725 l 790 603 b 731 189 790 417 789 275 b 518 76 689 126 626 76 b 308 190 428 76 357 111 b 250 547 261 268 250 356 z m 507 915 b 651 1035 582 915 651 960 b 518 1133 651 1088 607 1133 b 379 1017 447 1133 382 1088 b 507 915 379 956 440 915 z m 514 965 b 453 1022 481 965 453 988 b 517 1082 453 1063 488 1082 b 579 1028 554 1082 579 1058 b 514 965 579 985 547 965 z "},"":{"ha":835,"x_min":0,"x_max":0,"o":"m 107 747 b 597 742 131 747 549 742 b 42 3 569 704 94 58 l 42 0 b 753 -12 101 0 726 -12 l 757 92 b 243 83 728 88 311 83 b 789 818 254 99 743 758 l 789 821 b 113 849 769 821 183 842 z m 315 985 l 349 938 l 558 1049 l 496 1140 z "},"":{"ha":835,"x_min":0,"x_max":0,"o":"m 107 747 b 597 742 131 747 549 742 b 42 3 569 704 94 58 l 42 0 b 753 -12 101 0 726 -12 l 757 92 b 243 83 728 88 311 83 b 789 818 254 99 743 758 l 789 821 b 113 849 769 821 183 842 z m 431 957 l 524 1050 l 431 1143 l 338 1050 z "},"":{"ha":489,"x_min":0,"x_max":0,"o":"m 304 485 b 311 826 304 626 308 806 l 176 826 b 183 486 179 799 183 507 l 183 358 b 179 0 183 328 182 51 l 310 0 b 304 357 308 28 304 239 z m 243 957 l 336 1050 l 243 1143 l 150 1050 z "},"":{"ha":950,"x_min":0,"x_max":0,"o":"m 942 899 l 842 988 b 489 457 742 858 582 622 l 485 457 b 142 993 378 651 267 828 l 32 906 b 415 363 161 757 326 522 l 415 169 b 410 0 415 96 411 32 l 546 0 b 540 164 544 28 540 106 l 540 354 b 942 899 631 511 821 768 z "},"":{"ha":864,"x_min":0,"x_max":0,"o":"m 846 753 l 754 839 b 446 396 661 729 522 533 l 442 396 b 131 843 346 557 246 704 l 35 757 b 374 308 154 631 293 444 l 374 149 b 369 0 374 68 369 28 l 500 0 b 494 146 499 24 494 82 l 494 301 b 846 753 569 435 738 643 z "},"":{"ha":761,"x_min":0,"x_max":0,"o":"m 682 104 b 261 97 517 100 350 97 b 329 403 293 208 313 308 b 596 413 431 408 529 411 l 601 513 b 344 493 547 507 451 500 b 356 547 349 511 351 529 b 683 879 408 821 526 858 l 658 994 b 236 569 450 949 288 833 b 222 488 231 543 226 515 b 63 479 168 483 113 481 l 64 385 b 208 394 110 388 157 390 b 129 0 190 271 171 143 b 682 -7 213 0 633 -7 z "},"":{"ha":489,"x_min":0,"x_max":0,"o":"m 304 485 b 311 826 304 626 308 806 l 176 826 b 183 486 179 799 183 507 l 183 358 b 179 0 183 328 182 51 l 310 0 b 304 357 308 28 304 239 z m 243 957 l 336 1050 l 243 1143 l 150 1050 z "},"":{"ha":908,"x_min":0,"x_max":0,"o":"m 139 319 l 224 404 l 139 488 l 56 404 z m 731 319 l 815 404 l 731 488 l 647 404 z m 503 0 b 496 146 500 24 496 129 l 496 251 b 639 593 496 378 553 501 b 863 740 710 669 796 719 l 826 842 b 599 693 761 821 654 751 b 446 454 531 621 483 553 l 444 454 b 279 708 415 553 339 644 b 97 839 247 743 164 806 l 46 738 b 217 615 99 717 165 668 b 375 251 303 526 375 406 l 375 168 b 369 0 375 153 369 28 z "},"":{"ha":683,"x_min":0,"x_max":0,"o":"m 315 0 b 304 407 310 26 304 258 l 304 733 b 619 728 335 733 485 733 l 619 839 b 172 826 579 839 204 826 b 183 483 183 764 183 511 l 183 326 b 178 0 183 307 181 22 z "},"ț":{"ha":785,"x_min":0,"x_max":0,"o":"m 469 0 b 454 544 467 24 454 304 l 454 728 b 792 717 556 728 789 722 l 792 829 b 453 815 751 819 476 815 l 342 815 b -7 829 328 815 29 819 l -7 717 b 333 728 11 722 190 728 l 333 563 b 325 0 333 375 332 31 z m 311 -286 l 351 -306 l 475 -104 l 376 -60 z "},"":{"ha":826,"x_min":0,"x_max":0,"o":"m 472 0 b 465 183 469 29 465 163 l 465 311 b 700 308 578 311 665 310 l 697 400 b 467 397 660 399 575 397 b 825 915 576 549 775 849 l 725 979 b 419 490 663 869 513 638 l 417 490 b 115 979 321 636 188 857 l 13 908 b 347 399 89 800 249 549 b 117 400 233 397 149 399 l 119 308 b 350 310 153 310 239 311 l 350 211 b 343 0 350 192 344 35 z "},"∕":{"ha":208,"x_min":0,"x_max":0,"o":"m 447 953 l 360 1001 b 78 542 319 928 200 738 b -240 29 -58 324 -192 99 l -156 -29 b 146 483 -114 44 13 267 b 447 953 272 689 406 890 z "},"":{"ha":986,"x_min":0,"x_max":0,"o":"m 126 -25 b 260 258 146 15 243 221 l 689 275 b 854 -24 701 254 832 21 l 967 44 b 478 868 885 168 585 700 l 475 868 b 19 36 447 822 86 154 z m 307 346 b 474 672 318 365 456 644 b 646 360 486 653 632 386 z "},"":{"ha":864,"x_min":0,"x_max":0,"o":"m 846 753 l 754 839 b 446 396 661 729 522 533 l 442 396 b 131 843 346 557 246 704 l 35 757 b 374 308 154 631 293 444 l 374 149 b 369 0 374 68 369 28 l 500 0 b 494 146 499 24 494 82 l 494 301 b 846 753 569 435 738 643 z m 357 985 l 390 938 l 600 1049 l 538 1140 z "},"":{"ha":544,"x_min":0,"x_max":0,"o":"m 217 0 l 217 99 b 222 313 217 169 218 249 b 447 321 264 315 397 319 l 453 410 b 225 397 403 406 278 397 b 229 439 226 414 228 429 b 511 738 267 713 414 731 l 490 846 b 117 451 307 808 151 696 b 100 56 99 326 100 89 l 100 0 z "},"":{"ha":689,"x_min":0,"x_max":0,"o":"m 275 1093 l 279 892 b 110 678 213 851 110 776 b 310 469 110 585 204 526 b 444 319 413 414 444 382 b 124 139 444 250 321 156 l 143 32 b 279 67 168 35 246 54 l 275 -118 l 376 -118 l 372 99 b 578 351 442 129 578 238 b 400 551 578 457 493 504 b 243 703 294 603 243 638 b 529 863 243 790 419 864 l 515 974 b 372 935 493 972 397 947 l 376 1093 z "},"":{"ha":606,"x_min":0,"x_max":0,"o":"m 235 0 l 235 115 b 240 372 235 199 236 292 b 499 382 294 375 443 381 l 504 482 b 244 467 449 476 310 467 b 249 517 246 488 247 504 b 564 872 289 838 458 865 l 540 994 b 129 531 340 951 168 818 b 111 65 110 385 111 104 l 111 0 z "},"":{"ha":489,"x_min":0,"x_max":0,"o":"m 304 485 b 311 826 304 626 308 806 l 176 826 b 183 486 179 799 183 507 l 183 358 b 179 0 183 328 182 51 l 310 0 b 304 357 308 28 304 239 z "},"":{"ha":685,"x_min":0,"x_max":0,"o":"m 621 96 b 243 90 465 92 317 90 b 303 340 272 178 289 263 b 543 347 388 344 476 347 l 549 436 b 317 419 493 431 407 425 b 326 465 321 435 324 450 b 622 742 375 694 474 724 l 600 846 b 213 485 406 807 258 708 b 200 414 207 461 204 438 b 57 407 151 411 101 408 l 57 324 b 188 332 99 326 142 329 b 117 0 171 231 154 122 b 621 -6 192 0 569 -6 z "},"Ț":{"ha":903,"x_min":0,"x_max":0,"o":"m 531 0 b 514 640 528 28 514 358 l 514 869 b 907 857 631 869 888 863 l 907 975 b 517 958 846 964 543 958 l 396 958 b -4 975 381 958 51 964 l -4 857 b 389 869 32 863 229 869 l 389 663 b 381 0 389 442 388 36 z m 365 -314 l 407 -333 l 536 -119 l 433 -74 z "},"":{"ha":489,"x_min":0,"x_max":0,"o":"m 304 485 b 311 826 304 626 308 806 l 176 826 b 183 486 179 799 183 507 l 183 358 b 179 0 183 328 182 51 l 310 0 b 304 357 308 28 304 239 z m 90 956 l 175 1040 l 90 1124 l 7 1040 z m 382 956 l 465 1040 l 382 1124 l 297 1040 z "},"":{"ha":576,"x_min":0,"x_max":0,"o":"m 481 414 b 238 646 386 503 318 567 l 239 651 b 531 810 340 711 413 747 l 465 892 b 67 663 318 810 239 765 l 67 656 b 328 410 153 578 257 482 l 328 406 b 68 144 250 322 179 253 l 68 139 b 489 -85 181 69 311 4 l 547 3 b 236 160 447 50 343 99 l 235 163 b 481 408 317 243 372 299 z "},"":{"ha":806,"x_min":0,"x_max":0,"o":"m 183 438 b 176 -7 183 414 183 58 l 201 -7 b 710 271 521 -7 710 113 b 503 451 710 376 596 439 l 503 454 b 671 642 639 507 671 596 b 376 822 671 707 631 803 b 176 826 326 826 243 826 b 183 568 181 801 183 603 z m 300 393 b 581 264 457 400 581 356 b 300 83 581 144 440 93 z m 300 744 b 549 626 389 746 549 732 b 300 468 549 547 438 469 z "},"":{"ha":690,"x_min":0,"x_max":0,"o":"m 322 -22 l 424 -22 l 419 182 b 507 176 443 179 474 176 b 621 186 542 176 585 179 l 611 292 b 506 281 581 286 546 281 b 228 481 363 281 228 351 b 590 774 228 613 343 749 l 575 888 b 419 843 518 876 461 863 l 424 1046 l 322 1046 l 325 799 b 97 463 192 726 97 604 b 325 204 97 400 153 244 z "},"":{"ha":785,"x_min":0,"x_max":0,"o":"m 469 0 b 454 544 467 24 454 304 l 454 728 b 792 717 556 728 789 722 l 792 829 b 453 815 751 819 476 815 l 342 815 b -7 829 328 815 29 819 l -7 717 b 333 728 11 722 190 728 l 333 563 b 325 0 333 375 332 31 z "},"":{"ha":1092,"x_min":0,"x_max":0,"o":"m 618 0 b 615 203 617 17 617 113 b 1004 585 822 208 1004 336 b 990 808 1004 661 1001 733 l 874 806 b 888 592 883 725 888 667 b 614 286 888 372 756 297 l 614 483 b 618 846 614 626 617 806 l 499 846 b 503 486 501 799 503 507 l 501 288 b 229 586 393 289 229 343 b 244 806 229 663 233 724 l 126 807 b 113 571 117 731 113 663 b 500 201 113 311 301 208 b 497 0 499 104 499 38 z "},"":{"ha":864,"x_min":0,"x_max":0,"o":"m 846 753 l 754 839 b 446 396 661 729 522 533 l 442 396 b 131 843 346 557 246 704 l 35 757 b 374 308 154 631 293 444 l 374 149 b 369 0 374 68 369 28 l 500 0 b 494 146 499 24 494 82 l 494 301 b 846 753 569 435 738 643 z m 292 956 l 376 1040 l 292 1124 l 208 1040 z m 583 956 l 667 1040 l 583 1124 l 499 1040 z "},"":{"ha":744,"x_min":0,"x_max":0,"o":"m 429 0 b 424 156 426 25 424 138 l 424 260 b 631 258 519 260 599 260 l 628 340 b 421 338 594 339 519 338 b 746 774 521 467 700 717 l 646 835 b 378 421 589 742 461 542 l 375 421 b 108 836 289 540 174 732 l 8 769 b 311 339 78 678 222 467 b 106 340 208 338 133 339 l 107 258 b 313 260 138 260 215 260 l 313 179 b 306 0 313 163 307 29 z "}," ":{"ha":417,"x_min":0,"x_max":0,"o":""},"Δ":{"ha":1101,"x_min":0,"x_max":0,"o":"m 1110 -1 b 550 1006 1014 144 658 824 l 547 1006 b 3 1 442 826 74 122 l 4 -3 b 543 0 171 0 363 -1 b 1108 -6 776 0 992 0 z m 906 110 b 544 104 863 106 703 103 b 190 108 388 104 231 107 b 546 788 203 131 488 681 b 906 110 601 683 890 135 z "},"Ω":{"ha":1226,"x_min":0,"x_max":0,"o":"m 1179 104 b 904 93 1094 96 969 94 l 901 101 b 1100 536 1004 185 1100 342 b 647 994 1100 813 903 994 b 132 478 326 994 132 744 b 285 113 132 315 225 168 l 282 101 b 21 108 229 100 96 103 l 15 -4 b 481 0 78 -6 453 -1 l 485 21 b 267 479 383 110 267 282 b 635 892 267 697 396 892 b 967 521 813 892 967 761 b 686 24 967 296 804 96 l 689 0 b 1185 -11 717 -1 1139 -8 z "},"":{"ha":1151,"x_min":0,"x_max":0,"o":"m 1104 99 b 860 90 1025 92 910 90 l 856 97 b 1032 456 942 157 1032 290 b 607 846 1032 690 846 846 b 124 406 307 846 124 633 b 257 106 124 268 211 143 l 253 97 b 19 103 215 96 90 99 l 15 -4 b 451 0 32 -6 425 -1 l 456 17 b 253 407 360 93 253 239 b 594 754 253 593 371 754 b 903 443 761 754 903 647 b 643 19 903 251 753 81 l 646 0 b 1110 -10 672 -1 1078 -14 z "},"":{"ha":914,"x_min":0,"x_max":0,"o":"m 310 -12 b 303 367 307 11 303 275 l 303 493 b 310 839 303 596 308 819 l 176 839 b 183 482 176 811 183 585 l 183 357 b 176 -12 183 222 179 22 z m 843 83 b 457 443 793 128 496 397 b 797 732 525 506 747 693 l 724 822 b 313 435 694 792 333 454 b 757 -11 367 376 742 6 z "},"":{"ha":914,"x_min":0,"x_max":0,"o":"m 310 -12 b 303 367 307 11 303 275 l 303 493 b 310 839 303 596 308 819 l 176 839 b 183 482 176 811 183 585 l 183 357 b 176 -12 183 222 179 22 z m 724 822 b 313 435 694 792 333 454 b 710 40 369 378 651 104 b 778 -94 754 -10 778 -49 b 704 -232 778 -139 768 -186 l 776 -299 b 889 -89 856 -236 889 -172 b 808 103 889 -21 867 31 b 457 443 746 182 500 399 b 797 732 525 506 747 693 z "},"":{"ha":775,"x_min":0,"x_max":0,"o":"m 264 407 b 625 419 360 411 450 413 l 629 501 b 283 483 451 489 381 486 b 671 728 343 625 508 699 l 650 822 b 169 476 394 768 231 632 b 69 474 146 474 92 474 l 67 394 b 149 399 99 397 122 397 b 144 349 144 385 144 367 l 144 322 b 61 321 119 322 76 321 l 63 240 b 158 247 88 243 135 247 b 610 11 201 133 325 11 b 710 15 651 11 692 13 l 701 111 b 621 103 685 107 644 103 b 276 250 429 103 325 154 b 613 254 378 251 453 253 l 615 333 b 260 325 453 329 351 326 b 258 358 260 333 258 349 b 264 407 258 376 261 396 z "},"":{"ha":868,"x_min":0,"x_max":0,"o":"m 289 482 b 694 497 400 486 500 489 l 699 588 b 313 567 501 574 421 569 b 746 864 379 731 565 828 l 722 968 b 188 558 439 904 256 743 b 76 556 163 556 101 556 l 74 467 b 165 472 110 471 136 471 b 160 408 161 453 160 429 b 161 376 160 392 160 382 b 68 374 132 375 85 374 l 69 285 b 176 292 97 288 150 292 b 678 13 224 157 361 13 b 789 18 724 13 768 15 l 779 121 b 690 111 761 117 715 111 b 301 296 476 111 351 183 b 681 300 414 297 503 299 l 683 389 b 283 379 503 385 390 381 b 282 422 283 392 282 410 b 289 482 282 443 286 465 z "},"­":{"ha":486,"x_min":0,"x_max":0,"o":"m 40 424 b 453 438 93 428 431 442 l 449 525 b 33 528 424 524 104 526 z "},"":{"ha":1306,"x_min":0,"x_max":0,"o":"m 156 -31 b 344 590 168 15 322 517 b 618 75 400 483 547 207 l 621 75 b 935 588 675 161 894 522 b 1153 -31 951 542 1124 58 l 1268 13 b 961 810 1217 138 999 714 l 957 810 b 635 272 935 774 675 339 b 332 846 597 340 369 771 l 326 846 b 42 6 319 817 63 56 z "},"":{"ha":986,"x_min":0,"x_max":0,"o":"m 126 -25 b 478 660 265 261 374 465 b 854 -24 589 474 728 200 l 967 44 b 478 868 885 168 585 700 l 475 868 b 19 36 401 744 86 154 z "},"μ":{"ha":1306,"x_min":0,"x_max":0,"o":"m 156 -31 b 344 590 168 15 322 517 b 618 75 400 483 547 207 l 621 75 b 935 588 675 161 894 522 b 1153 -31 951 542 1124 58 l 1268 13 b 961 810 1217 138 999 714 l 957 810 b 635 272 935 774 675 339 b 332 846 597 340 369 771 l 326 846 b 42 6 319 817 63 56 z "},"":{"ha":778,"x_min":0,"x_max":0,"o":"m 304 0 b 303 178 303 25 303 154 l 303 244 b 704 585 539 286 704 415 b 431 813 704 710 600 786 b 181 826 351 825 233 826 b 183 549 181 808 183 576 l 183 419 b 178 0 183 335 181 51 z m 303 733 b 576 571 549 731 576 614 b 303 336 576 435 453 365 z "},"":{"ha":733,"x_min":0,"x_max":0,"o":"m 622 93 b 304 89 504 86 335 89 l 304 369 b 431 368 318 369 374 368 b 569 365 489 367 549 365 l 565 467 b 304 454 489 460 328 454 l 304 743 b 607 749 325 743 553 749 l 601 849 b 179 826 539 844 210 826 b 183 500 181 804 183 519 l 183 343 b 179 0 183 315 183 63 b 626 -12 204 0 585 -12 z m 4 599 l 65 597 l 90 849 l -24 843 z "},"":{"ha":835,"x_min":0,"x_max":0,"o":"m 107 747 b 597 742 131 747 549 742 b 42 3 569 704 94 58 l 42 0 b 753 -12 101 0 726 -12 l 757 92 b 243 83 728 88 311 83 b 789 818 254 99 743 758 l 789 821 b 113 849 769 821 183 842 z "},"":{"ha":489,"x_min":0,"x_max":0,"o":"m 304 485 b 311 826 304 626 308 806 l 176 826 b 183 486 179 799 183 507 l 183 358 b 179 0 183 328 182 51 l 310 0 b 304 357 308 28 304 239 z m -7 599 l 54 597 l 79 849 l -35 843 z "},"":{"ha":908,"x_min":0,"x_max":0,"o":"m 139 319 l 224 404 l 139 488 l 56 404 z m 731 319 l 815 404 l 731 488 l 647 404 z m 503 0 b 496 146 500 24 496 129 l 496 251 b 639 593 496 378 553 501 b 863 740 710 669 796 719 l 826 842 b 599 693 761 821 654 751 b 446 454 531 621 483 553 l 444 454 b 279 708 415 553 339 644 b 97 839 247 743 164 806 l 46 738 b 217 615 99 717 165 668 b 375 251 303 526 375 406 l 375 168 b 369 0 375 153 369 28 z "},"":{"ha":1193,"x_min":0,"x_max":0,"o":"m 1086 849 b 565 835 939 840 621 836 b 90 833 503 833 211 833 l 90 735 b 214 743 118 736 165 740 b 217 497 215 690 217 517 l 217 367 b 213 0 217 335 215 53 l 342 0 b 338 322 340 28 338 250 l 338 517 b 343 747 338 576 340 728 b 839 754 429 750 760 754 b 842 549 840 731 842 600 l 842 339 b 839 0 842 315 840 42 l 969 0 b 961 340 964 22 961 325 l 961 461 b 963 754 961 489 960 728 b 1086 747 1015 751 1063 749 z "},"":{"ha":986,"x_min":0,"x_max":0,"o":"m 126 -25 b 260 258 146 15 243 221 l 689 275 b 854 -24 701 254 832 21 l 967 44 b 478 868 885 168 585 700 l 475 868 b 19 36 447 822 86 154 z m 307 346 b 474 672 318 365 456 644 b 646 360 486 653 632 386 z m 131 599 l 192 597 l 217 849 l 103 843 z "},"":{"ha":1138,"x_min":0,"x_max":0,"o":"m 632 -107 b 629 1 631 -67 629 -21 b 1069 442 897 31 1069 203 b 629 846 1069 689 839 836 b 635 936 629 861 632 894 l 508 936 b 513 842 510 897 511 860 b 72 393 292 819 72 665 b 511 -1 72 161 279 14 b 507 -107 511 -33 508 -64 z m 514 354 b 511 89 514 338 515 176 b 201 400 354 108 201 203 b 513 753 201 608 347 724 b 514 490 515 661 513 515 z m 628 488 b 628 754 628 549 626 689 b 940 435 776 740 940 654 b 629 90 940 201 781 114 b 628 351 628 154 628 303 z "},"":{"ha":1115,"x_min":0,"x_max":0,"o":"m 268 -8 b 274 631 267 31 276 608 l 276 631 b 936 -25 292 614 900 7 l 942 -25 b 976 826 947 272 971 756 l 853 832 b 849 214 851 793 849 247 b 194 874 810 251 231 835 l 188 874 b 140 0 182 751 147 89 z "},"":{"ha":864,"x_min":0,"x_max":0,"o":"m 846 753 l 754 839 b 446 396 661 729 522 533 l 442 396 b 131 843 346 557 246 704 l 35 757 b 374 308 154 631 293 444 l 374 149 b 369 0 374 68 369 28 l 500 0 b 494 146 499 24 494 82 l 494 301 b 846 753 569 435 738 643 z "},"":{"ha":733,"x_min":0,"x_max":0,"o":"m 622 93 b 304 89 504 86 335 89 l 304 369 b 431 368 318 369 374 368 b 569 365 489 367 549 365 l 565 467 b 304 454 489 460 328 454 l 304 743 b 607 749 325 743 553 749 l 601 849 b 179 826 539 844 210 826 b 183 500 181 804 183 519 l 183 343 b 179 0 183 315 183 63 b 626 -12 204 0 585 -12 z "},"":{"ha":813,"x_min":0,"x_max":0,"o":"m 474 0 b 467 146 471 24 467 129 l 467 251 b 610 593 467 378 524 501 b 833 740 681 669 767 719 l 797 842 b 569 693 732 821 625 751 b 417 454 501 621 454 553 l 415 454 b 250 708 386 553 310 644 b 68 839 218 743 135 806 l 17 738 b 188 615 69 717 136 668 b 346 251 274 526 346 406 l 346 168 b 340 0 346 153 340 28 z "},"":{"ha":915,"x_min":0,"x_max":0,"o":"m 136 -25 b 450 353 158 -3 436 332 b 768 -24 481 318 735 15 l 864 61 b 526 426 815 111 564 385 b 844 749 557 465 804 710 l 760 832 b 463 499 724 790 506 544 b 186 833 371 604 219 790 l 94 746 b 388 424 143 692 336 481 b 49 57 349 379 82 83 z "},"":{"ha":950,"x_min":0,"x_max":0,"o":"m 942 899 l 842 988 b 489 457 742 858 582 622 l 485 457 b 142 993 378 651 267 828 l 32 906 b 415 363 161 757 326 522 l 415 169 b 410 0 415 96 411 32 l 546 0 b 540 164 544 28 540 106 l 540 354 b 942 899 631 511 821 768 z m 343 1063 l 432 1151 l 343 1239 l 254 1151 z m 649 1063 l 738 1151 l 649 1239 l 560 1151 z "},"":{"ha":864,"x_min":0,"x_max":0,"o":"m 846 753 l 754 839 b 446 396 661 729 522 533 l 442 396 b 131 843 346 557 246 704 l 35 757 b 374 308 154 631 293 444 l 374 149 b 369 0 374 68 369 28 l 500 0 b 494 146 499 24 494 82 l 494 301 b 846 753 569 435 738 643 z m 357 985 l 390 938 l 600 1049 l 538 1140 z "},"":{"ha":1167,"x_min":0,"x_max":0,"o":"m 568 -19 b 1063 443 932 -19 1063 258 b 639 846 1063 697 883 846 b 140 371 333 846 140 633 b 568 -19 140 163 292 -19 z m 579 72 b 268 389 386 72 268 213 b 621 754 268 590 400 754 b 933 438 786 754 933 649 b 579 72 933 204 769 72 z m 28 599 l 89 597 l 114 849 l 0 843 z "},"":{"ha":1111,"x_min":0,"x_max":0,"o":"m 626 0 b 622 239 625 19 624 132 b 1036 688 843 244 1036 396 b 1022 951 1036 778 1033 863 l 897 947 b 913 696 908 853 913 785 b 621 333 913 438 772 350 l 621 569 b 626 994 621 736 624 947 l 499 994 b 503 572 501 939 503 596 l 501 335 b 211 690 386 340 211 404 b 226 947 211 779 215 851 l 103 950 b 88 672 92 860 88 779 b 500 238 88 365 289 244 b 497 0 499 122 499 44 z "},"":{"ha":1003,"x_min":0,"x_max":0,"o":"m 340 -14 b 333 431 338 13 333 324 l 333 581 b 340 986 333 701 339 964 l 201 986 b 208 567 201 954 208 688 l 208 419 b 201 -14 208 261 204 26 z m 838 -353 b 958 -106 922 -278 958 -204 b 872 121 958 -25 935 35 b 499 521 806 214 544 468 b 876 869 572 594 824 819 l 796 961 b 343 511 764 925 367 533 b 767 47 406 444 706 122 b 840 -112 815 -12 840 -58 b 761 -274 840 -164 829 -219 z "},"":{"ha":947,"x_min":0,"x_max":0,"o":"m 956 -1 b 474 864 872 124 567 708 l 471 864 b 3 1 381 710 64 104 l 4 -3 b 468 0 147 0 313 -1 b 954 -6 668 0 854 0 z m 472 646 b 760 111 565 468 661 289 b 469 106 732 107 606 106 b 189 110 333 106 221 108 z "},"":{"ha":1092,"x_min":0,"x_max":0,"o":"m 618 0 b 615 203 617 17 617 113 b 1004 585 822 208 1004 336 b 990 808 1004 661 1001 733 l 874 806 b 888 592 883 725 888 667 b 614 286 888 372 756 297 l 614 483 b 618 846 614 626 617 806 l 499 846 b 503 486 501 799 503 507 l 501 288 b 229 586 393 289 229 343 b 244 806 229 663 233 724 l 126 807 b 113 571 117 731 113 663 b 500 201 113 311 301 208 b 497 0 499 104 499 38 z "},"":{"ha":626,"x_min":0,"x_max":0,"o":"m 475 501 b 240 775 383 607 318 682 l 242 781 b 524 968 339 851 408 894 l 460 1064 b 74 794 318 968 242 915 l 74 786 b 326 497 157 694 258 582 l 326 492 b 75 185 251 394 183 313 l 75 178 b 482 -85 185 97 311 19 l 540 18 b 238 203 442 74 342 131 l 236 207 b 475 496 317 301 369 367 z "},"":{"ha":813,"x_min":0,"x_max":0,"o":"m 474 0 b 467 146 471 24 467 129 l 467 251 b 610 593 467 378 524 501 b 833 740 681 669 767 719 l 797 842 b 569 693 732 821 625 751 b 417 454 501 621 454 553 l 415 454 b 250 708 386 553 310 644 b 68 839 218 743 135 806 l 17 738 b 188 615 69 717 136 668 b 346 251 274 526 346 406 l 346 168 b 340 0 346 153 340 28 z m 267 956 l 351 1040 l 267 1124 l 183 1040 z m 558 956 l 642 1040 l 558 1124 l 474 1040 z "},"":{"ha":950,"x_min":0,"x_max":0,"o":"m 547 0 b 540 171 544 28 540 151 l 540 301 b 700 706 540 449 606 597 b 965 886 778 796 876 860 l 924 994 b 657 814 838 967 718 882 b 489 533 582 729 529 649 l 486 533 b 306 832 456 649 371 757 b 89 994 269 872 178 949 l 32 886 b 236 732 107 854 181 794 b 415 301 331 628 415 482 l 415 197 b 408 0 415 179 410 32 z m 183 347 l 272 436 l 183 524 l 94 436 z m 772 347 l 861 436 l 772 524 l 683 436 z "},"":{"ha":576,"x_min":0,"x_max":0,"o":"m 481 414 b 238 646 386 503 318 567 l 239 651 b 531 810 340 711 413 747 l 465 892 b 67 663 318 810 239 765 l 67 656 b 328 410 153 578 257 482 l 328 406 b 68 144 250 322 179 253 l 68 139 b 489 -85 181 69 311 4 l 547 3 b 236 160 447 50 343 99 l 235 163 b 481 408 317 243 372 299 z "},"":{"ha":961,"x_min":0,"x_max":0,"o":"m 622 0 b 615 146 619 24 615 129 l 615 251 b 758 593 615 378 672 501 b 982 740 829 669 915 719 l 946 842 b 718 693 881 821 774 751 b 565 454 650 621 603 553 l 564 454 b 399 708 535 553 458 644 b 217 839 367 743 283 806 l 165 738 b 336 615 218 717 285 668 b 494 251 422 526 494 406 l 494 168 b 489 0 494 153 489 28 z m 0 599 l 61 597 l 86 849 l -28 843 z "},"":{"ha":943,"x_min":0,"x_max":0,"o":"m 158 715 b 815 726 329 721 643 726 l 808 832 b 154 818 617 825 301 817 z m 124 4 b 836 0 290 4 665 -1 l 832 107 b 126 108 590 96 331 100 z m 194 360 b 764 368 358 363 674 371 l 758 472 b 190 461 647 469 332 457 z "},"":{"ha":1151,"x_min":0,"x_max":0,"o":"m 1139 99 b 894 90 1060 92 944 90 l 890 97 b 1067 456 976 157 1067 290 b 642 846 1067 690 881 846 b 158 406 342 846 158 633 b 292 106 158 268 246 143 l 288 97 b 54 103 250 96 125 99 l 50 -4 b 486 0 67 -6 460 -1 l 490 17 b 288 407 394 93 288 239 b 629 754 288 593 406 754 b 938 443 796 754 938 647 b 678 19 938 251 788 81 l 681 0 b 1144 -10 707 -1 1113 -14 z m 26 599 l 88 597 l 113 849 l -1 843 z "},"":{"ha":1054,"x_min":0,"x_max":0,"o":"m 892 803 b 847 543 883 751 865 631 b 586 292 801 349 696 296 l 586 483 b 592 846 586 624 588 800 l 471 846 b 475 486 472 792 475 504 l 475 292 b 224 522 368 292 263 360 b 169 811 203 607 176 751 l 50 789 b 114 515 72 711 92 617 b 474 206 150 335 278 215 b 469 0 472 107 471 38 l 593 0 b 588 207 592 17 589 115 b 951 529 782 221 907 332 b 1008 782 975 631 986 711 z "},"":{"ha":1075,"x_min":0,"x_max":0,"o":"m 504 -19 b 999 443 868 -19 999 258 b 575 846 999 697 819 846 b 76 371 269 846 76 633 b 504 -19 76 163 228 -19 z m 515 72 b 204 389 322 72 204 213 b 557 754 204 590 336 754 b 869 438 722 754 869 649 b 515 72 869 204 706 72 z "},"":{"ha":950,"x_min":0,"x_max":0,"o":"m 942 899 l 842 988 b 489 457 742 858 582 622 l 485 457 b 142 993 378 651 267 828 l 32 906 b 415 363 161 757 326 522 l 415 169 b 410 0 415 96 411 32 l 546 0 b 540 164 544 28 540 106 l 540 354 b 942 899 631 511 821 768 z m 442 1093 l 478 1043 l 699 1160 l 632 1257 z "},"":{"ha":824,"x_min":0,"x_max":0,"o":"m 644 425 b 292 660 526 503 410 582 l 292 665 b 738 747 440 693 589 719 l 713 849 b 60 707 494 801 278 754 l 60 699 b 479 414 200 604 339 508 l 479 408 b 39 99 332 306 186 201 l 39 88 b 747 -35 275 47 511 6 l 769 69 b 276 140 606 93 440 117 l 276 146 b 644 408 399 233 522 321 z "},"":{"ha":864,"x_min":0,"x_max":0,"o":"m 846 753 l 754 839 b 446 396 661 729 522 533 l 442 396 b 131 843 346 557 246 704 l 35 757 b 374 308 154 631 293 444 l 374 149 b 369 0 374 68 369 28 l 500 0 b 494 146 499 24 494 82 l 494 301 b 846 753 569 435 738 643 z m 292 956 l 376 1040 l 292 1124 l 208 1040 z m 583 956 l 667 1040 l 583 1124 l 499 1040 z "},"":{"ha":1143,"x_min":0,"x_max":0,"o":"m 310 0 b 304 297 308 28 304 244 l 304 369 l 839 392 l 839 272 b 832 0 839 250 836 40 l 965 0 b 960 333 963 22 960 318 l 960 451 b 969 826 960 479 967 799 l 835 826 b 839 568 836 800 839 588 l 839 479 l 304 457 l 304 543 b 311 826 304 564 308 806 l 176 826 b 183 486 179 799 183 507 l 183 358 b 179 0 183 328 182 51 z m 0 599 l 61 597 l 86 849 l -28 843 z "},"":{"ha":1086,"x_min":0,"x_max":0,"o":"m 514 -19 b 1010 443 878 -19 1010 258 b 585 846 1010 699 828 846 b 76 371 278 846 76 632 b 514 -19 76 163 235 -19 z m 526 72 b 204 389 325 72 204 211 b 568 754 204 590 339 754 b 882 436 735 754 882 647 b 526 72 882 203 717 72 z m 335 364 b 761 385 425 371 638 381 l 753 482 b 332 463 683 475 428 461 z "},"":{"ha":1143,"x_min":0,"x_max":0,"o":"m 310 0 b 304 297 308 28 304 244 l 304 369 l 839 392 l 839 272 b 832 0 839 250 836 40 l 965 0 b 960 333 963 22 960 318 l 960 451 b 969 826 960 479 967 799 l 835 826 b 839 568 836 800 839 588 l 839 479 l 304 457 l 304 543 b 311 826 304 564 308 806 l 176 826 b 183 486 179 799 183 507 l 183 358 b 179 0 183 328 182 51 z "}}}
